%TF.GenerationSoftware,KiCad,Pcbnew,8.0.4*%
%TF.CreationDate,2024-08-21T22:32:37+02:00*%
%TF.ProjectId,pixxy,70697878-792e-46b6-9963-61645f706362,rev?*%
%TF.SameCoordinates,Original*%
%TF.FileFunction,Drillmap*%
%TF.FilePolarity,Positive*%
%FSLAX45Y45*%
G04 Gerber Fmt 4.5, Leading zero omitted, Abs format (unit mm)*
G04 Created by KiCad (PCBNEW 8.0.4) date 2024-08-21 22:32:37*
%MOMM*%
%LPD*%
G01*
G04 APERTURE LIST*
%ADD10C,0.050000*%
%ADD11C,0.200000*%
%ADD12C,0.100000*%
%ADD13C,0.110000*%
%ADD14C,0.180000*%
G04 APERTURE END LIST*
D10*
X4100000Y-3350000D02*
X9650000Y-3350000D01*
X9650000Y-13150000D01*
X4100000Y-13150000D01*
X4100000Y-3350000D01*
D11*
D12*
X8735000Y-4735000D02*
X8765000Y-4765000D01*
X8765000Y-4735000D02*
X8735000Y-4765000D01*
X9335000Y-6885000D02*
X9365000Y-6915000D01*
X9365000Y-6885000D02*
X9335000Y-6915000D01*
X5237500Y-3850000D02*
G75*
G02*
X5162500Y-3850000I-37500J0D01*
G01*
X5162500Y-3850000D02*
G75*
G02*
X5237500Y-3850000I37500J0D01*
G01*
X5364500Y-3850000D02*
G75*
G02*
X5289500Y-3850000I-37500J0D01*
G01*
X5289500Y-3850000D02*
G75*
G02*
X5364500Y-3850000I37500J0D01*
G01*
X5491500Y-3850000D02*
G75*
G02*
X5416500Y-3850000I-37500J0D01*
G01*
X5416500Y-3850000D02*
G75*
G02*
X5491500Y-3850000I37500J0D01*
G01*
X7192000Y-3810000D02*
X7192000Y-3890000D01*
X7152000Y-3850000D02*
X7232000Y-3850000D01*
X8208000Y-3810000D02*
X8208000Y-3890000D01*
X8168000Y-3850000D02*
X8248000Y-3850000D01*
X8546000Y-10560000D02*
X8546000Y-10640000D01*
X8506000Y-10600000D02*
X8586000Y-10600000D01*
X8800000Y-10560000D02*
X8800000Y-10640000D01*
X8760000Y-10600000D02*
X8840000Y-10600000D01*
X9054000Y-10560000D02*
X9054000Y-10640000D01*
X9014000Y-10600000D02*
X9094000Y-10600000D01*
X6304320Y-3881820D02*
X6304320Y-3818180D01*
X6240680Y-3818180D01*
X6240680Y-3881820D01*
X6304320Y-3881820D01*
X6558320Y-3881820D02*
X6558320Y-3818180D01*
X6494680Y-3818180D01*
X6494680Y-3881820D01*
X6558320Y-3881820D01*
X5050000Y-7705000D02*
X5100000Y-7655000D01*
X5050000Y-7605000D01*
X5000000Y-7655000D01*
X5050000Y-7705000D01*
X5300000Y-7705000D02*
X5350000Y-7655000D01*
X5300000Y-7605000D01*
X5250000Y-7655000D01*
X5300000Y-7705000D01*
X5550000Y-7705000D02*
X5600000Y-7655000D01*
X5550000Y-7605000D01*
X5500000Y-7655000D01*
X5550000Y-7705000D01*
X6650000Y-7705000D02*
X6700000Y-7655000D01*
X6650000Y-7605000D01*
X6600000Y-7655000D01*
X6650000Y-7705000D01*
X6900000Y-7705000D02*
X6950000Y-7655000D01*
X6900000Y-7605000D01*
X6850000Y-7655000D01*
X6900000Y-7705000D01*
X7150000Y-7705000D02*
X7200000Y-7655000D01*
X7150000Y-7605000D01*
X7100000Y-7655000D01*
X7150000Y-7705000D01*
X8300000Y-7705000D02*
X8350000Y-7655000D01*
X8300000Y-7605000D01*
X8250000Y-7655000D01*
X8300000Y-7705000D01*
X8550000Y-7705000D02*
X8600000Y-7655000D01*
X8550000Y-7605000D01*
X8500000Y-7655000D01*
X8550000Y-7705000D01*
X8800000Y-7705000D02*
X8850000Y-7655000D01*
X8800000Y-7605000D01*
X8750000Y-7655000D01*
X8800000Y-7705000D01*
D13*
X4670000Y-8570000D02*
X4780000Y-8680000D01*
X4780000Y-8570000D02*
X4670000Y-8680000D01*
X4780000Y-8625000D02*
G75*
G02*
X4670000Y-8625000I-55000J0D01*
G01*
X4670000Y-8625000D02*
G75*
G02*
X4780000Y-8625000I55000J0D01*
G01*
X4670000Y-9020000D02*
X4780000Y-9130000D01*
X4780000Y-9020000D02*
X4670000Y-9130000D01*
X4780000Y-9075000D02*
G75*
G02*
X4670000Y-9075000I-55000J0D01*
G01*
X4670000Y-9075000D02*
G75*
G02*
X4780000Y-9075000I55000J0D01*
G01*
X4670000Y-9625000D02*
X4780000Y-9735000D01*
X4780000Y-9625000D02*
X4670000Y-9735000D01*
X4780000Y-9680000D02*
G75*
G02*
X4670000Y-9680000I-55000J0D01*
G01*
X4670000Y-9680000D02*
G75*
G02*
X4780000Y-9680000I55000J0D01*
G01*
X4670000Y-10075000D02*
X4780000Y-10185000D01*
X4780000Y-10075000D02*
X4670000Y-10185000D01*
X4780000Y-10130000D02*
G75*
G02*
X4670000Y-10130000I-55000J0D01*
G01*
X4670000Y-10130000D02*
G75*
G02*
X4780000Y-10130000I55000J0D01*
G01*
X4670000Y-10620000D02*
X4780000Y-10730000D01*
X4780000Y-10620000D02*
X4670000Y-10730000D01*
X4780000Y-10675000D02*
G75*
G02*
X4670000Y-10675000I-55000J0D01*
G01*
X4670000Y-10675000D02*
G75*
G02*
X4780000Y-10675000I55000J0D01*
G01*
X4670000Y-11070000D02*
X4780000Y-11180000D01*
X4780000Y-11070000D02*
X4670000Y-11180000D01*
X4780000Y-11125000D02*
G75*
G02*
X4670000Y-11125000I-55000J0D01*
G01*
X4670000Y-11125000D02*
G75*
G02*
X4780000Y-11125000I55000J0D01*
G01*
X4670000Y-12170000D02*
X4780000Y-12280000D01*
X4780000Y-12170000D02*
X4670000Y-12280000D01*
X4780000Y-12225000D02*
G75*
G02*
X4670000Y-12225000I-55000J0D01*
G01*
X4670000Y-12225000D02*
G75*
G02*
X4780000Y-12225000I55000J0D01*
G01*
X4670000Y-12620000D02*
X4780000Y-12730000D01*
X4780000Y-12620000D02*
X4670000Y-12730000D01*
X4780000Y-12675000D02*
G75*
G02*
X4670000Y-12675000I-55000J0D01*
G01*
X4670000Y-12675000D02*
G75*
G02*
X4780000Y-12675000I55000J0D01*
G01*
X5320000Y-8570000D02*
X5430000Y-8680000D01*
X5430000Y-8570000D02*
X5320000Y-8680000D01*
X5430000Y-8625000D02*
G75*
G02*
X5320000Y-8625000I-55000J0D01*
G01*
X5320000Y-8625000D02*
G75*
G02*
X5430000Y-8625000I55000J0D01*
G01*
X5320000Y-9020000D02*
X5430000Y-9130000D01*
X5430000Y-9020000D02*
X5320000Y-9130000D01*
X5430000Y-9075000D02*
G75*
G02*
X5320000Y-9075000I-55000J0D01*
G01*
X5320000Y-9075000D02*
G75*
G02*
X5430000Y-9075000I55000J0D01*
G01*
X5320000Y-9625000D02*
X5430000Y-9735000D01*
X5430000Y-9625000D02*
X5320000Y-9735000D01*
X5430000Y-9680000D02*
G75*
G02*
X5320000Y-9680000I-55000J0D01*
G01*
X5320000Y-9680000D02*
G75*
G02*
X5430000Y-9680000I55000J0D01*
G01*
X5320000Y-10075000D02*
X5430000Y-10185000D01*
X5430000Y-10075000D02*
X5320000Y-10185000D01*
X5430000Y-10130000D02*
G75*
G02*
X5320000Y-10130000I-55000J0D01*
G01*
X5320000Y-10130000D02*
G75*
G02*
X5430000Y-10130000I55000J0D01*
G01*
X5320000Y-10620000D02*
X5430000Y-10730000D01*
X5430000Y-10620000D02*
X5320000Y-10730000D01*
X5430000Y-10675000D02*
G75*
G02*
X5320000Y-10675000I-55000J0D01*
G01*
X5320000Y-10675000D02*
G75*
G02*
X5430000Y-10675000I55000J0D01*
G01*
X5320000Y-11070000D02*
X5430000Y-11180000D01*
X5430000Y-11070000D02*
X5320000Y-11180000D01*
X5430000Y-11125000D02*
G75*
G02*
X5320000Y-11125000I-55000J0D01*
G01*
X5320000Y-11125000D02*
G75*
G02*
X5430000Y-11125000I55000J0D01*
G01*
X5320000Y-12170000D02*
X5430000Y-12280000D01*
X5430000Y-12170000D02*
X5320000Y-12280000D01*
X5430000Y-12225000D02*
G75*
G02*
X5320000Y-12225000I-55000J0D01*
G01*
X5320000Y-12225000D02*
G75*
G02*
X5430000Y-12225000I55000J0D01*
G01*
X5320000Y-12620000D02*
X5430000Y-12730000D01*
X5430000Y-12620000D02*
X5320000Y-12730000D01*
X5430000Y-12675000D02*
G75*
G02*
X5320000Y-12675000I-55000J0D01*
G01*
X5320000Y-12675000D02*
G75*
G02*
X5430000Y-12675000I55000J0D01*
G01*
X5885000Y-8570000D02*
X5995000Y-8680000D01*
X5995000Y-8570000D02*
X5885000Y-8680000D01*
X5995000Y-8625000D02*
G75*
G02*
X5885000Y-8625000I-55000J0D01*
G01*
X5885000Y-8625000D02*
G75*
G02*
X5995000Y-8625000I55000J0D01*
G01*
X5885000Y-9020000D02*
X5995000Y-9130000D01*
X5995000Y-9020000D02*
X5885000Y-9130000D01*
X5995000Y-9075000D02*
G75*
G02*
X5885000Y-9075000I-55000J0D01*
G01*
X5885000Y-9075000D02*
G75*
G02*
X5995000Y-9075000I55000J0D01*
G01*
X5885000Y-9625000D02*
X5995000Y-9735000D01*
X5995000Y-9625000D02*
X5885000Y-9735000D01*
X5995000Y-9680000D02*
G75*
G02*
X5885000Y-9680000I-55000J0D01*
G01*
X5885000Y-9680000D02*
G75*
G02*
X5995000Y-9680000I55000J0D01*
G01*
X5885000Y-10075000D02*
X5995000Y-10185000D01*
X5995000Y-10075000D02*
X5885000Y-10185000D01*
X5995000Y-10130000D02*
G75*
G02*
X5885000Y-10130000I-55000J0D01*
G01*
X5885000Y-10130000D02*
G75*
G02*
X5995000Y-10130000I55000J0D01*
G01*
X5885000Y-10620000D02*
X5995000Y-10730000D01*
X5995000Y-10620000D02*
X5885000Y-10730000D01*
X5995000Y-10675000D02*
G75*
G02*
X5885000Y-10675000I-55000J0D01*
G01*
X5885000Y-10675000D02*
G75*
G02*
X5995000Y-10675000I55000J0D01*
G01*
X5885000Y-11070000D02*
X5995000Y-11180000D01*
X5995000Y-11070000D02*
X5885000Y-11180000D01*
X5995000Y-11125000D02*
G75*
G02*
X5885000Y-11125000I-55000J0D01*
G01*
X5885000Y-11125000D02*
G75*
G02*
X5995000Y-11125000I55000J0D01*
G01*
X5885000Y-12170000D02*
X5995000Y-12280000D01*
X5995000Y-12170000D02*
X5885000Y-12280000D01*
X5995000Y-12225000D02*
G75*
G02*
X5885000Y-12225000I-55000J0D01*
G01*
X5885000Y-12225000D02*
G75*
G02*
X5995000Y-12225000I55000J0D01*
G01*
X5885000Y-12620000D02*
X5995000Y-12730000D01*
X5995000Y-12620000D02*
X5885000Y-12730000D01*
X5995000Y-12675000D02*
G75*
G02*
X5885000Y-12675000I-55000J0D01*
G01*
X5885000Y-12675000D02*
G75*
G02*
X5995000Y-12675000I55000J0D01*
G01*
X6535000Y-8570000D02*
X6645000Y-8680000D01*
X6645000Y-8570000D02*
X6535000Y-8680000D01*
X6645000Y-8625000D02*
G75*
G02*
X6535000Y-8625000I-55000J0D01*
G01*
X6535000Y-8625000D02*
G75*
G02*
X6645000Y-8625000I55000J0D01*
G01*
X6535000Y-9020000D02*
X6645000Y-9130000D01*
X6645000Y-9020000D02*
X6535000Y-9130000D01*
X6645000Y-9075000D02*
G75*
G02*
X6535000Y-9075000I-55000J0D01*
G01*
X6535000Y-9075000D02*
G75*
G02*
X6645000Y-9075000I55000J0D01*
G01*
X6535000Y-9625000D02*
X6645000Y-9735000D01*
X6645000Y-9625000D02*
X6535000Y-9735000D01*
X6645000Y-9680000D02*
G75*
G02*
X6535000Y-9680000I-55000J0D01*
G01*
X6535000Y-9680000D02*
G75*
G02*
X6645000Y-9680000I55000J0D01*
G01*
X6535000Y-10075000D02*
X6645000Y-10185000D01*
X6645000Y-10075000D02*
X6535000Y-10185000D01*
X6645000Y-10130000D02*
G75*
G02*
X6535000Y-10130000I-55000J0D01*
G01*
X6535000Y-10130000D02*
G75*
G02*
X6645000Y-10130000I55000J0D01*
G01*
X6535000Y-10620000D02*
X6645000Y-10730000D01*
X6645000Y-10620000D02*
X6535000Y-10730000D01*
X6645000Y-10675000D02*
G75*
G02*
X6535000Y-10675000I-55000J0D01*
G01*
X6535000Y-10675000D02*
G75*
G02*
X6645000Y-10675000I55000J0D01*
G01*
X6535000Y-11070000D02*
X6645000Y-11180000D01*
X6645000Y-11070000D02*
X6535000Y-11180000D01*
X6645000Y-11125000D02*
G75*
G02*
X6535000Y-11125000I-55000J0D01*
G01*
X6535000Y-11125000D02*
G75*
G02*
X6645000Y-11125000I55000J0D01*
G01*
X6535000Y-12170000D02*
X6645000Y-12280000D01*
X6645000Y-12170000D02*
X6535000Y-12280000D01*
X6645000Y-12225000D02*
G75*
G02*
X6535000Y-12225000I-55000J0D01*
G01*
X6535000Y-12225000D02*
G75*
G02*
X6645000Y-12225000I55000J0D01*
G01*
X6535000Y-12620000D02*
X6645000Y-12730000D01*
X6645000Y-12620000D02*
X6535000Y-12730000D01*
X6645000Y-12675000D02*
G75*
G02*
X6535000Y-12675000I-55000J0D01*
G01*
X6535000Y-12675000D02*
G75*
G02*
X6645000Y-12675000I55000J0D01*
G01*
X7085000Y-8570000D02*
X7195000Y-8680000D01*
X7195000Y-8570000D02*
X7085000Y-8680000D01*
X7195000Y-8625000D02*
G75*
G02*
X7085000Y-8625000I-55000J0D01*
G01*
X7085000Y-8625000D02*
G75*
G02*
X7195000Y-8625000I55000J0D01*
G01*
X7085000Y-9020000D02*
X7195000Y-9130000D01*
X7195000Y-9020000D02*
X7085000Y-9130000D01*
X7195000Y-9075000D02*
G75*
G02*
X7085000Y-9075000I-55000J0D01*
G01*
X7085000Y-9075000D02*
G75*
G02*
X7195000Y-9075000I55000J0D01*
G01*
X7085000Y-9625000D02*
X7195000Y-9735000D01*
X7195000Y-9625000D02*
X7085000Y-9735000D01*
X7195000Y-9680000D02*
G75*
G02*
X7085000Y-9680000I-55000J0D01*
G01*
X7085000Y-9680000D02*
G75*
G02*
X7195000Y-9680000I55000J0D01*
G01*
X7085000Y-10075000D02*
X7195000Y-10185000D01*
X7195000Y-10075000D02*
X7085000Y-10185000D01*
X7195000Y-10130000D02*
G75*
G02*
X7085000Y-10130000I-55000J0D01*
G01*
X7085000Y-10130000D02*
G75*
G02*
X7195000Y-10130000I55000J0D01*
G01*
X7085000Y-10620000D02*
X7195000Y-10730000D01*
X7195000Y-10620000D02*
X7085000Y-10730000D01*
X7195000Y-10675000D02*
G75*
G02*
X7085000Y-10675000I-55000J0D01*
G01*
X7085000Y-10675000D02*
G75*
G02*
X7195000Y-10675000I55000J0D01*
G01*
X7085000Y-11070000D02*
X7195000Y-11180000D01*
X7195000Y-11070000D02*
X7085000Y-11180000D01*
X7195000Y-11125000D02*
G75*
G02*
X7085000Y-11125000I-55000J0D01*
G01*
X7085000Y-11125000D02*
G75*
G02*
X7195000Y-11125000I55000J0D01*
G01*
X7085000Y-12170000D02*
X7195000Y-12280000D01*
X7195000Y-12170000D02*
X7085000Y-12280000D01*
X7195000Y-12225000D02*
G75*
G02*
X7085000Y-12225000I-55000J0D01*
G01*
X7085000Y-12225000D02*
G75*
G02*
X7195000Y-12225000I55000J0D01*
G01*
X7085000Y-12620000D02*
X7195000Y-12730000D01*
X7195000Y-12620000D02*
X7085000Y-12730000D01*
X7195000Y-12675000D02*
G75*
G02*
X7085000Y-12675000I-55000J0D01*
G01*
X7085000Y-12675000D02*
G75*
G02*
X7195000Y-12675000I55000J0D01*
G01*
X7735000Y-8570000D02*
X7845000Y-8680000D01*
X7845000Y-8570000D02*
X7735000Y-8680000D01*
X7845000Y-8625000D02*
G75*
G02*
X7735000Y-8625000I-55000J0D01*
G01*
X7735000Y-8625000D02*
G75*
G02*
X7845000Y-8625000I55000J0D01*
G01*
X7735000Y-9020000D02*
X7845000Y-9130000D01*
X7845000Y-9020000D02*
X7735000Y-9130000D01*
X7845000Y-9075000D02*
G75*
G02*
X7735000Y-9075000I-55000J0D01*
G01*
X7735000Y-9075000D02*
G75*
G02*
X7845000Y-9075000I55000J0D01*
G01*
X7735000Y-9625000D02*
X7845000Y-9735000D01*
X7845000Y-9625000D02*
X7735000Y-9735000D01*
X7845000Y-9680000D02*
G75*
G02*
X7735000Y-9680000I-55000J0D01*
G01*
X7735000Y-9680000D02*
G75*
G02*
X7845000Y-9680000I55000J0D01*
G01*
X7735000Y-10075000D02*
X7845000Y-10185000D01*
X7845000Y-10075000D02*
X7735000Y-10185000D01*
X7845000Y-10130000D02*
G75*
G02*
X7735000Y-10130000I-55000J0D01*
G01*
X7735000Y-10130000D02*
G75*
G02*
X7845000Y-10130000I55000J0D01*
G01*
X7735000Y-10620000D02*
X7845000Y-10730000D01*
X7845000Y-10620000D02*
X7735000Y-10730000D01*
X7845000Y-10675000D02*
G75*
G02*
X7735000Y-10675000I-55000J0D01*
G01*
X7735000Y-10675000D02*
G75*
G02*
X7845000Y-10675000I55000J0D01*
G01*
X7735000Y-11070000D02*
X7845000Y-11180000D01*
X7845000Y-11070000D02*
X7735000Y-11180000D01*
X7845000Y-11125000D02*
G75*
G02*
X7735000Y-11125000I-55000J0D01*
G01*
X7735000Y-11125000D02*
G75*
G02*
X7845000Y-11125000I55000J0D01*
G01*
X7735000Y-12170000D02*
X7845000Y-12280000D01*
X7845000Y-12170000D02*
X7735000Y-12280000D01*
X7845000Y-12225000D02*
G75*
G02*
X7735000Y-12225000I-55000J0D01*
G01*
X7735000Y-12225000D02*
G75*
G02*
X7845000Y-12225000I55000J0D01*
G01*
X7735000Y-12620000D02*
X7845000Y-12730000D01*
X7845000Y-12620000D02*
X7735000Y-12730000D01*
X7845000Y-12675000D02*
G75*
G02*
X7735000Y-12675000I-55000J0D01*
G01*
X7735000Y-12675000D02*
G75*
G02*
X7845000Y-12675000I55000J0D01*
G01*
X8435000Y-8570000D02*
X8545000Y-8680000D01*
X8545000Y-8570000D02*
X8435000Y-8680000D01*
X8545000Y-8625000D02*
G75*
G02*
X8435000Y-8625000I-55000J0D01*
G01*
X8435000Y-8625000D02*
G75*
G02*
X8545000Y-8625000I55000J0D01*
G01*
X8435000Y-9020000D02*
X8545000Y-9130000D01*
X8545000Y-9020000D02*
X8435000Y-9130000D01*
X8545000Y-9075000D02*
G75*
G02*
X8435000Y-9075000I-55000J0D01*
G01*
X8435000Y-9075000D02*
G75*
G02*
X8545000Y-9075000I55000J0D01*
G01*
X8435000Y-9585000D02*
X8545000Y-9695000D01*
X8545000Y-9585000D02*
X8435000Y-9695000D01*
X8545000Y-9640000D02*
G75*
G02*
X8435000Y-9640000I-55000J0D01*
G01*
X8435000Y-9640000D02*
G75*
G02*
X8545000Y-9640000I55000J0D01*
G01*
X8435000Y-10035000D02*
X8545000Y-10145000D01*
X8545000Y-10035000D02*
X8435000Y-10145000D01*
X8545000Y-10090000D02*
G75*
G02*
X8435000Y-10090000I-55000J0D01*
G01*
X8435000Y-10090000D02*
G75*
G02*
X8545000Y-10090000I55000J0D01*
G01*
X8435000Y-11170000D02*
X8545000Y-11280000D01*
X8545000Y-11170000D02*
X8435000Y-11280000D01*
X8545000Y-11225000D02*
G75*
G02*
X8435000Y-11225000I-55000J0D01*
G01*
X8435000Y-11225000D02*
G75*
G02*
X8545000Y-11225000I55000J0D01*
G01*
X8435000Y-11620000D02*
X8545000Y-11730000D01*
X8545000Y-11620000D02*
X8435000Y-11730000D01*
X8545000Y-11675000D02*
G75*
G02*
X8435000Y-11675000I-55000J0D01*
G01*
X8435000Y-11675000D02*
G75*
G02*
X8545000Y-11675000I55000J0D01*
G01*
X8435000Y-12170000D02*
X8545000Y-12280000D01*
X8545000Y-12170000D02*
X8435000Y-12280000D01*
X8545000Y-12225000D02*
G75*
G02*
X8435000Y-12225000I-55000J0D01*
G01*
X8435000Y-12225000D02*
G75*
G02*
X8545000Y-12225000I55000J0D01*
G01*
X8435000Y-12620000D02*
X8545000Y-12730000D01*
X8545000Y-12620000D02*
X8435000Y-12730000D01*
X8545000Y-12675000D02*
G75*
G02*
X8435000Y-12675000I-55000J0D01*
G01*
X8435000Y-12675000D02*
G75*
G02*
X8545000Y-12675000I55000J0D01*
G01*
X9085000Y-8570000D02*
X9195000Y-8680000D01*
X9195000Y-8570000D02*
X9085000Y-8680000D01*
X9195000Y-8625000D02*
G75*
G02*
X9085000Y-8625000I-55000J0D01*
G01*
X9085000Y-8625000D02*
G75*
G02*
X9195000Y-8625000I55000J0D01*
G01*
X9085000Y-9020000D02*
X9195000Y-9130000D01*
X9195000Y-9020000D02*
X9085000Y-9130000D01*
X9195000Y-9075000D02*
G75*
G02*
X9085000Y-9075000I-55000J0D01*
G01*
X9085000Y-9075000D02*
G75*
G02*
X9195000Y-9075000I55000J0D01*
G01*
X9085000Y-9585000D02*
X9195000Y-9695000D01*
X9195000Y-9585000D02*
X9085000Y-9695000D01*
X9195000Y-9640000D02*
G75*
G02*
X9085000Y-9640000I-55000J0D01*
G01*
X9085000Y-9640000D02*
G75*
G02*
X9195000Y-9640000I55000J0D01*
G01*
X9085000Y-10035000D02*
X9195000Y-10145000D01*
X9195000Y-10035000D02*
X9085000Y-10145000D01*
X9195000Y-10090000D02*
G75*
G02*
X9085000Y-10090000I-55000J0D01*
G01*
X9085000Y-10090000D02*
G75*
G02*
X9195000Y-10090000I55000J0D01*
G01*
X9085000Y-11170000D02*
X9195000Y-11280000D01*
X9195000Y-11170000D02*
X9085000Y-11280000D01*
X9195000Y-11225000D02*
G75*
G02*
X9085000Y-11225000I-55000J0D01*
G01*
X9085000Y-11225000D02*
G75*
G02*
X9195000Y-11225000I55000J0D01*
G01*
X9085000Y-11620000D02*
X9195000Y-11730000D01*
X9195000Y-11620000D02*
X9085000Y-11730000D01*
X9195000Y-11675000D02*
G75*
G02*
X9085000Y-11675000I-55000J0D01*
G01*
X9085000Y-11675000D02*
G75*
G02*
X9195000Y-11675000I55000J0D01*
G01*
X9085000Y-12170000D02*
X9195000Y-12280000D01*
X9195000Y-12170000D02*
X9085000Y-12280000D01*
X9195000Y-12225000D02*
G75*
G02*
X9085000Y-12225000I-55000J0D01*
G01*
X9085000Y-12225000D02*
G75*
G02*
X9195000Y-12225000I55000J0D01*
G01*
X9085000Y-12620000D02*
X9195000Y-12730000D01*
X9195000Y-12620000D02*
X9085000Y-12730000D01*
X9195000Y-12675000D02*
G75*
G02*
X9085000Y-12675000I-55000J0D01*
G01*
X9085000Y-12675000D02*
G75*
G02*
X9195000Y-12675000I55000J0D01*
G01*
D14*
X4770000Y-6865000D02*
X4950000Y-7045000D01*
X4950000Y-6865000D02*
X4770000Y-7045000D01*
X4860000Y-6865000D02*
X4860000Y-7045000D01*
X4770000Y-6955000D02*
X4950000Y-6955000D01*
D12*
X4950000Y-6970000D02*
X4950000Y-6940000D01*
X4770000Y-6940000D02*
G75*
G02*
X4950000Y-6940000I90000J0D01*
G01*
X4770000Y-6940000D02*
X4770000Y-6970000D01*
X4770000Y-6970000D02*
G75*
G03*
X4950000Y-6970000I90000J0D01*
G01*
D14*
X5650000Y-6865000D02*
X5830000Y-7045000D01*
X5830000Y-6865000D02*
X5650000Y-7045000D01*
X5740000Y-6865000D02*
X5740000Y-7045000D01*
X5650000Y-6955000D02*
X5830000Y-6955000D01*
D12*
X5830000Y-6970000D02*
X5830000Y-6940000D01*
X5650000Y-6940000D02*
G75*
G02*
X5830000Y-6940000I90000J0D01*
G01*
X5650000Y-6940000D02*
X5650000Y-6970000D01*
X5650000Y-6970000D02*
G75*
G03*
X5830000Y-6970000I90000J0D01*
G01*
D14*
X6370000Y-6865000D02*
X6550000Y-7045000D01*
X6550000Y-6865000D02*
X6370000Y-7045000D01*
X6460000Y-6865000D02*
X6460000Y-7045000D01*
X6370000Y-6955000D02*
X6550000Y-6955000D01*
D12*
X6550000Y-6970000D02*
X6550000Y-6940000D01*
X6370000Y-6940000D02*
G75*
G02*
X6550000Y-6940000I90000J0D01*
G01*
X6370000Y-6940000D02*
X6370000Y-6970000D01*
X6370000Y-6970000D02*
G75*
G03*
X6550000Y-6970000I90000J0D01*
G01*
D14*
X7250000Y-6865000D02*
X7430000Y-7045000D01*
X7430000Y-6865000D02*
X7250000Y-7045000D01*
X7340000Y-6865000D02*
X7340000Y-7045000D01*
X7250000Y-6955000D02*
X7430000Y-6955000D01*
D12*
X7430000Y-6970000D02*
X7430000Y-6940000D01*
X7250000Y-6940000D02*
G75*
G02*
X7430000Y-6940000I90000J0D01*
G01*
X7250000Y-6940000D02*
X7250000Y-6970000D01*
X7250000Y-6970000D02*
G75*
G03*
X7430000Y-6970000I90000J0D01*
G01*
D14*
X8020000Y-6865000D02*
X8200000Y-7045000D01*
X8200000Y-6865000D02*
X8020000Y-7045000D01*
X8110000Y-6865000D02*
X8110000Y-7045000D01*
X8020000Y-6955000D02*
X8200000Y-6955000D01*
D12*
X8200000Y-6970000D02*
X8200000Y-6940000D01*
X8020000Y-6940000D02*
G75*
G02*
X8200000Y-6940000I90000J0D01*
G01*
X8020000Y-6940000D02*
X8020000Y-6970000D01*
X8020000Y-6970000D02*
G75*
G03*
X8200000Y-6970000I90000J0D01*
G01*
D14*
X8900000Y-6865000D02*
X9080000Y-7045000D01*
X9080000Y-6865000D02*
X8900000Y-7045000D01*
X8990000Y-6865000D02*
X8990000Y-7045000D01*
X8900000Y-6955000D02*
X9080000Y-6955000D01*
D12*
X9080000Y-6970000D02*
X9080000Y-6940000D01*
X8900000Y-6940000D02*
G75*
G02*
X9080000Y-6940000I90000J0D01*
G01*
X8900000Y-6940000D02*
X8900000Y-6970000D01*
X8900000Y-6970000D02*
G75*
G03*
X9080000Y-6970000I90000J0D01*
G01*
D11*
X4358277Y-13463984D02*
X4358277Y-13263984D01*
X4358277Y-13263984D02*
X4405896Y-13263984D01*
X4405896Y-13263984D02*
X4434467Y-13273508D01*
X4434467Y-13273508D02*
X4453515Y-13292555D01*
X4453515Y-13292555D02*
X4463039Y-13311603D01*
X4463039Y-13311603D02*
X4472563Y-13349698D01*
X4472563Y-13349698D02*
X4472563Y-13378269D01*
X4472563Y-13378269D02*
X4463039Y-13416365D01*
X4463039Y-13416365D02*
X4453515Y-13435412D01*
X4453515Y-13435412D02*
X4434467Y-13454460D01*
X4434467Y-13454460D02*
X4405896Y-13463984D01*
X4405896Y-13463984D02*
X4358277Y-13463984D01*
X4558277Y-13463984D02*
X4558277Y-13330650D01*
X4558277Y-13368746D02*
X4567801Y-13349698D01*
X4567801Y-13349698D02*
X4577324Y-13340174D01*
X4577324Y-13340174D02*
X4596372Y-13330650D01*
X4596372Y-13330650D02*
X4615420Y-13330650D01*
X4682086Y-13463984D02*
X4682086Y-13330650D01*
X4682086Y-13263984D02*
X4672563Y-13273508D01*
X4672563Y-13273508D02*
X4682086Y-13283031D01*
X4682086Y-13283031D02*
X4691610Y-13273508D01*
X4691610Y-13273508D02*
X4682086Y-13263984D01*
X4682086Y-13263984D02*
X4682086Y-13283031D01*
X4805896Y-13463984D02*
X4786848Y-13454460D01*
X4786848Y-13454460D02*
X4777324Y-13435412D01*
X4777324Y-13435412D02*
X4777324Y-13263984D01*
X4910658Y-13463984D02*
X4891610Y-13454460D01*
X4891610Y-13454460D02*
X4882086Y-13435412D01*
X4882086Y-13435412D02*
X4882086Y-13263984D01*
X5139229Y-13463984D02*
X5139229Y-13263984D01*
X5139229Y-13263984D02*
X5205896Y-13406841D01*
X5205896Y-13406841D02*
X5272563Y-13263984D01*
X5272563Y-13263984D02*
X5272563Y-13463984D01*
X5453515Y-13463984D02*
X5453515Y-13359222D01*
X5453515Y-13359222D02*
X5443991Y-13340174D01*
X5443991Y-13340174D02*
X5424944Y-13330650D01*
X5424944Y-13330650D02*
X5386848Y-13330650D01*
X5386848Y-13330650D02*
X5367801Y-13340174D01*
X5453515Y-13454460D02*
X5434467Y-13463984D01*
X5434467Y-13463984D02*
X5386848Y-13463984D01*
X5386848Y-13463984D02*
X5367801Y-13454460D01*
X5367801Y-13454460D02*
X5358277Y-13435412D01*
X5358277Y-13435412D02*
X5358277Y-13416365D01*
X5358277Y-13416365D02*
X5367801Y-13397317D01*
X5367801Y-13397317D02*
X5386848Y-13387793D01*
X5386848Y-13387793D02*
X5434467Y-13387793D01*
X5434467Y-13387793D02*
X5453515Y-13378269D01*
X5548753Y-13330650D02*
X5548753Y-13530650D01*
X5548753Y-13340174D02*
X5567801Y-13330650D01*
X5567801Y-13330650D02*
X5605896Y-13330650D01*
X5605896Y-13330650D02*
X5624943Y-13340174D01*
X5624943Y-13340174D02*
X5634467Y-13349698D01*
X5634467Y-13349698D02*
X5643991Y-13368746D01*
X5643991Y-13368746D02*
X5643991Y-13425888D01*
X5643991Y-13425888D02*
X5634467Y-13444936D01*
X5634467Y-13444936D02*
X5624943Y-13454460D01*
X5624943Y-13454460D02*
X5605896Y-13463984D01*
X5605896Y-13463984D02*
X5567801Y-13463984D01*
X5567801Y-13463984D02*
X5548753Y-13454460D01*
X5729705Y-13444936D02*
X5739229Y-13454460D01*
X5739229Y-13454460D02*
X5729705Y-13463984D01*
X5729705Y-13463984D02*
X5720182Y-13454460D01*
X5720182Y-13454460D02*
X5729705Y-13444936D01*
X5729705Y-13444936D02*
X5729705Y-13463984D01*
X5729705Y-13340174D02*
X5739229Y-13349698D01*
X5739229Y-13349698D02*
X5729705Y-13359222D01*
X5729705Y-13359222D02*
X5720182Y-13349698D01*
X5720182Y-13349698D02*
X5729705Y-13340174D01*
X5729705Y-13340174D02*
X5729705Y-13359222D01*
D12*
X4067500Y-13777500D02*
X4097500Y-13807500D01*
X4097500Y-13777500D02*
X4067500Y-13807500D01*
D11*
X4396372Y-13683984D02*
X4415420Y-13683984D01*
X4415420Y-13683984D02*
X4434467Y-13693508D01*
X4434467Y-13693508D02*
X4443991Y-13703031D01*
X4443991Y-13703031D02*
X4453515Y-13722079D01*
X4453515Y-13722079D02*
X4463039Y-13760174D01*
X4463039Y-13760174D02*
X4463039Y-13807793D01*
X4463039Y-13807793D02*
X4453515Y-13845888D01*
X4453515Y-13845888D02*
X4443991Y-13864936D01*
X4443991Y-13864936D02*
X4434467Y-13874460D01*
X4434467Y-13874460D02*
X4415420Y-13883984D01*
X4415420Y-13883984D02*
X4396372Y-13883984D01*
X4396372Y-13883984D02*
X4377324Y-13874460D01*
X4377324Y-13874460D02*
X4367801Y-13864936D01*
X4367801Y-13864936D02*
X4358277Y-13845888D01*
X4358277Y-13845888D02*
X4348753Y-13807793D01*
X4348753Y-13807793D02*
X4348753Y-13760174D01*
X4348753Y-13760174D02*
X4358277Y-13722079D01*
X4358277Y-13722079D02*
X4367801Y-13703031D01*
X4367801Y-13703031D02*
X4377324Y-13693508D01*
X4377324Y-13693508D02*
X4396372Y-13683984D01*
X4548753Y-13864936D02*
X4558277Y-13874460D01*
X4558277Y-13874460D02*
X4548753Y-13883984D01*
X4548753Y-13883984D02*
X4539229Y-13874460D01*
X4539229Y-13874460D02*
X4548753Y-13864936D01*
X4548753Y-13864936D02*
X4548753Y-13883984D01*
X4624944Y-13683984D02*
X4748753Y-13683984D01*
X4748753Y-13683984D02*
X4682086Y-13760174D01*
X4682086Y-13760174D02*
X4710658Y-13760174D01*
X4710658Y-13760174D02*
X4729705Y-13769698D01*
X4729705Y-13769698D02*
X4739229Y-13779222D01*
X4739229Y-13779222D02*
X4748753Y-13798269D01*
X4748753Y-13798269D02*
X4748753Y-13845888D01*
X4748753Y-13845888D02*
X4739229Y-13864936D01*
X4739229Y-13864936D02*
X4729705Y-13874460D01*
X4729705Y-13874460D02*
X4710658Y-13883984D01*
X4710658Y-13883984D02*
X4653515Y-13883984D01*
X4653515Y-13883984D02*
X4634467Y-13874460D01*
X4634467Y-13874460D02*
X4624944Y-13864936D01*
X4872563Y-13683984D02*
X4891610Y-13683984D01*
X4891610Y-13683984D02*
X4910658Y-13693508D01*
X4910658Y-13693508D02*
X4920182Y-13703031D01*
X4920182Y-13703031D02*
X4929705Y-13722079D01*
X4929705Y-13722079D02*
X4939229Y-13760174D01*
X4939229Y-13760174D02*
X4939229Y-13807793D01*
X4939229Y-13807793D02*
X4929705Y-13845888D01*
X4929705Y-13845888D02*
X4920182Y-13864936D01*
X4920182Y-13864936D02*
X4910658Y-13874460D01*
X4910658Y-13874460D02*
X4891610Y-13883984D01*
X4891610Y-13883984D02*
X4872563Y-13883984D01*
X4872563Y-13883984D02*
X4853515Y-13874460D01*
X4853515Y-13874460D02*
X4843991Y-13864936D01*
X4843991Y-13864936D02*
X4834467Y-13845888D01*
X4834467Y-13845888D02*
X4824944Y-13807793D01*
X4824944Y-13807793D02*
X4824944Y-13760174D01*
X4824944Y-13760174D02*
X4834467Y-13722079D01*
X4834467Y-13722079D02*
X4843991Y-13703031D01*
X4843991Y-13703031D02*
X4853515Y-13693508D01*
X4853515Y-13693508D02*
X4872563Y-13683984D01*
X5063039Y-13683984D02*
X5082086Y-13683984D01*
X5082086Y-13683984D02*
X5101134Y-13693508D01*
X5101134Y-13693508D02*
X5110658Y-13703031D01*
X5110658Y-13703031D02*
X5120182Y-13722079D01*
X5120182Y-13722079D02*
X5129705Y-13760174D01*
X5129705Y-13760174D02*
X5129705Y-13807793D01*
X5129705Y-13807793D02*
X5120182Y-13845888D01*
X5120182Y-13845888D02*
X5110658Y-13864936D01*
X5110658Y-13864936D02*
X5101134Y-13874460D01*
X5101134Y-13874460D02*
X5082086Y-13883984D01*
X5082086Y-13883984D02*
X5063039Y-13883984D01*
X5063039Y-13883984D02*
X5043991Y-13874460D01*
X5043991Y-13874460D02*
X5034467Y-13864936D01*
X5034467Y-13864936D02*
X5024944Y-13845888D01*
X5024944Y-13845888D02*
X5015420Y-13807793D01*
X5015420Y-13807793D02*
X5015420Y-13760174D01*
X5015420Y-13760174D02*
X5024944Y-13722079D01*
X5024944Y-13722079D02*
X5034467Y-13703031D01*
X5034467Y-13703031D02*
X5043991Y-13693508D01*
X5043991Y-13693508D02*
X5063039Y-13683984D01*
X5215420Y-13883984D02*
X5215420Y-13750650D01*
X5215420Y-13769698D02*
X5224944Y-13760174D01*
X5224944Y-13760174D02*
X5243991Y-13750650D01*
X5243991Y-13750650D02*
X5272563Y-13750650D01*
X5272563Y-13750650D02*
X5291610Y-13760174D01*
X5291610Y-13760174D02*
X5301134Y-13779222D01*
X5301134Y-13779222D02*
X5301134Y-13883984D01*
X5301134Y-13779222D02*
X5310658Y-13760174D01*
X5310658Y-13760174D02*
X5329705Y-13750650D01*
X5329705Y-13750650D02*
X5358277Y-13750650D01*
X5358277Y-13750650D02*
X5377325Y-13760174D01*
X5377325Y-13760174D02*
X5386848Y-13779222D01*
X5386848Y-13779222D02*
X5386848Y-13883984D01*
X5482086Y-13883984D02*
X5482086Y-13750650D01*
X5482086Y-13769698D02*
X5491610Y-13760174D01*
X5491610Y-13760174D02*
X5510658Y-13750650D01*
X5510658Y-13750650D02*
X5539229Y-13750650D01*
X5539229Y-13750650D02*
X5558277Y-13760174D01*
X5558277Y-13760174D02*
X5567801Y-13779222D01*
X5567801Y-13779222D02*
X5567801Y-13883984D01*
X5567801Y-13779222D02*
X5577325Y-13760174D01*
X5577325Y-13760174D02*
X5596372Y-13750650D01*
X5596372Y-13750650D02*
X5624943Y-13750650D01*
X5624943Y-13750650D02*
X5643991Y-13760174D01*
X5643991Y-13760174D02*
X5653515Y-13779222D01*
X5653515Y-13779222D02*
X5653515Y-13883984D01*
X6043991Y-13674460D02*
X5872563Y-13931603D01*
X6301134Y-13683984D02*
X6320182Y-13683984D01*
X6320182Y-13683984D02*
X6339229Y-13693508D01*
X6339229Y-13693508D02*
X6348753Y-13703031D01*
X6348753Y-13703031D02*
X6358277Y-13722079D01*
X6358277Y-13722079D02*
X6367801Y-13760174D01*
X6367801Y-13760174D02*
X6367801Y-13807793D01*
X6367801Y-13807793D02*
X6358277Y-13845888D01*
X6358277Y-13845888D02*
X6348753Y-13864936D01*
X6348753Y-13864936D02*
X6339229Y-13874460D01*
X6339229Y-13874460D02*
X6320182Y-13883984D01*
X6320182Y-13883984D02*
X6301134Y-13883984D01*
X6301134Y-13883984D02*
X6282086Y-13874460D01*
X6282086Y-13874460D02*
X6272563Y-13864936D01*
X6272563Y-13864936D02*
X6263039Y-13845888D01*
X6263039Y-13845888D02*
X6253515Y-13807793D01*
X6253515Y-13807793D02*
X6253515Y-13760174D01*
X6253515Y-13760174D02*
X6263039Y-13722079D01*
X6263039Y-13722079D02*
X6272563Y-13703031D01*
X6272563Y-13703031D02*
X6282086Y-13693508D01*
X6282086Y-13693508D02*
X6301134Y-13683984D01*
X6453515Y-13864936D02*
X6463039Y-13874460D01*
X6463039Y-13874460D02*
X6453515Y-13883984D01*
X6453515Y-13883984D02*
X6443991Y-13874460D01*
X6443991Y-13874460D02*
X6453515Y-13864936D01*
X6453515Y-13864936D02*
X6453515Y-13883984D01*
X6586848Y-13683984D02*
X6605896Y-13683984D01*
X6605896Y-13683984D02*
X6624944Y-13693508D01*
X6624944Y-13693508D02*
X6634467Y-13703031D01*
X6634467Y-13703031D02*
X6643991Y-13722079D01*
X6643991Y-13722079D02*
X6653515Y-13760174D01*
X6653515Y-13760174D02*
X6653515Y-13807793D01*
X6653515Y-13807793D02*
X6643991Y-13845888D01*
X6643991Y-13845888D02*
X6634467Y-13864936D01*
X6634467Y-13864936D02*
X6624944Y-13874460D01*
X6624944Y-13874460D02*
X6605896Y-13883984D01*
X6605896Y-13883984D02*
X6586848Y-13883984D01*
X6586848Y-13883984D02*
X6567801Y-13874460D01*
X6567801Y-13874460D02*
X6558277Y-13864936D01*
X6558277Y-13864936D02*
X6548753Y-13845888D01*
X6548753Y-13845888D02*
X6539229Y-13807793D01*
X6539229Y-13807793D02*
X6539229Y-13760174D01*
X6539229Y-13760174D02*
X6548753Y-13722079D01*
X6548753Y-13722079D02*
X6558277Y-13703031D01*
X6558277Y-13703031D02*
X6567801Y-13693508D01*
X6567801Y-13693508D02*
X6586848Y-13683984D01*
X6843991Y-13883984D02*
X6729706Y-13883984D01*
X6786848Y-13883984D02*
X6786848Y-13683984D01*
X6786848Y-13683984D02*
X6767801Y-13712555D01*
X6767801Y-13712555D02*
X6748753Y-13731603D01*
X6748753Y-13731603D02*
X6729706Y-13741127D01*
X7034467Y-13883984D02*
X6920182Y-13883984D01*
X6977325Y-13883984D02*
X6977325Y-13683984D01*
X6977325Y-13683984D02*
X6958277Y-13712555D01*
X6958277Y-13712555D02*
X6939229Y-13731603D01*
X6939229Y-13731603D02*
X6920182Y-13741127D01*
X7148753Y-13769698D02*
X7129706Y-13760174D01*
X7129706Y-13760174D02*
X7120182Y-13750650D01*
X7120182Y-13750650D02*
X7110658Y-13731603D01*
X7110658Y-13731603D02*
X7110658Y-13722079D01*
X7110658Y-13722079D02*
X7120182Y-13703031D01*
X7120182Y-13703031D02*
X7129706Y-13693508D01*
X7129706Y-13693508D02*
X7148753Y-13683984D01*
X7148753Y-13683984D02*
X7186848Y-13683984D01*
X7186848Y-13683984D02*
X7205896Y-13693508D01*
X7205896Y-13693508D02*
X7215420Y-13703031D01*
X7215420Y-13703031D02*
X7224944Y-13722079D01*
X7224944Y-13722079D02*
X7224944Y-13731603D01*
X7224944Y-13731603D02*
X7215420Y-13750650D01*
X7215420Y-13750650D02*
X7205896Y-13760174D01*
X7205896Y-13760174D02*
X7186848Y-13769698D01*
X7186848Y-13769698D02*
X7148753Y-13769698D01*
X7148753Y-13769698D02*
X7129706Y-13779222D01*
X7129706Y-13779222D02*
X7120182Y-13788746D01*
X7120182Y-13788746D02*
X7110658Y-13807793D01*
X7110658Y-13807793D02*
X7110658Y-13845888D01*
X7110658Y-13845888D02*
X7120182Y-13864936D01*
X7120182Y-13864936D02*
X7129706Y-13874460D01*
X7129706Y-13874460D02*
X7148753Y-13883984D01*
X7148753Y-13883984D02*
X7186848Y-13883984D01*
X7186848Y-13883984D02*
X7205896Y-13874460D01*
X7205896Y-13874460D02*
X7215420Y-13864936D01*
X7215420Y-13864936D02*
X7224944Y-13845888D01*
X7224944Y-13845888D02*
X7224944Y-13807793D01*
X7224944Y-13807793D02*
X7215420Y-13788746D01*
X7215420Y-13788746D02*
X7205896Y-13779222D01*
X7205896Y-13779222D02*
X7186848Y-13769698D01*
X7301134Y-13683984D02*
X7301134Y-13722079D01*
X7377325Y-13683984D02*
X7377325Y-13722079D01*
X7672563Y-13960174D02*
X7663039Y-13950650D01*
X7663039Y-13950650D02*
X7643991Y-13922079D01*
X7643991Y-13922079D02*
X7634468Y-13903031D01*
X7634468Y-13903031D02*
X7624944Y-13874460D01*
X7624944Y-13874460D02*
X7615420Y-13826841D01*
X7615420Y-13826841D02*
X7615420Y-13788746D01*
X7615420Y-13788746D02*
X7624944Y-13741127D01*
X7624944Y-13741127D02*
X7634468Y-13712555D01*
X7634468Y-13712555D02*
X7643991Y-13693508D01*
X7643991Y-13693508D02*
X7663039Y-13664936D01*
X7663039Y-13664936D02*
X7672563Y-13655412D01*
X7739229Y-13703031D02*
X7748753Y-13693508D01*
X7748753Y-13693508D02*
X7767801Y-13683984D01*
X7767801Y-13683984D02*
X7815420Y-13683984D01*
X7815420Y-13683984D02*
X7834468Y-13693508D01*
X7834468Y-13693508D02*
X7843991Y-13703031D01*
X7843991Y-13703031D02*
X7853515Y-13722079D01*
X7853515Y-13722079D02*
X7853515Y-13741127D01*
X7853515Y-13741127D02*
X7843991Y-13769698D01*
X7843991Y-13769698D02*
X7729706Y-13883984D01*
X7729706Y-13883984D02*
X7853515Y-13883984D01*
X8091610Y-13883984D02*
X8091610Y-13683984D01*
X8177325Y-13883984D02*
X8177325Y-13779222D01*
X8177325Y-13779222D02*
X8167801Y-13760174D01*
X8167801Y-13760174D02*
X8148753Y-13750650D01*
X8148753Y-13750650D02*
X8120182Y-13750650D01*
X8120182Y-13750650D02*
X8101134Y-13760174D01*
X8101134Y-13760174D02*
X8091610Y-13769698D01*
X8301134Y-13883984D02*
X8282087Y-13874460D01*
X8282087Y-13874460D02*
X8272563Y-13864936D01*
X8272563Y-13864936D02*
X8263039Y-13845888D01*
X8263039Y-13845888D02*
X8263039Y-13788746D01*
X8263039Y-13788746D02*
X8272563Y-13769698D01*
X8272563Y-13769698D02*
X8282087Y-13760174D01*
X8282087Y-13760174D02*
X8301134Y-13750650D01*
X8301134Y-13750650D02*
X8329706Y-13750650D01*
X8329706Y-13750650D02*
X8348753Y-13760174D01*
X8348753Y-13760174D02*
X8358277Y-13769698D01*
X8358277Y-13769698D02*
X8367801Y-13788746D01*
X8367801Y-13788746D02*
X8367801Y-13845888D01*
X8367801Y-13845888D02*
X8358277Y-13864936D01*
X8358277Y-13864936D02*
X8348753Y-13874460D01*
X8348753Y-13874460D02*
X8329706Y-13883984D01*
X8329706Y-13883984D02*
X8301134Y-13883984D01*
X8482087Y-13883984D02*
X8463039Y-13874460D01*
X8463039Y-13874460D02*
X8453515Y-13855412D01*
X8453515Y-13855412D02*
X8453515Y-13683984D01*
X8634468Y-13874460D02*
X8615420Y-13883984D01*
X8615420Y-13883984D02*
X8577325Y-13883984D01*
X8577325Y-13883984D02*
X8558277Y-13874460D01*
X8558277Y-13874460D02*
X8548753Y-13855412D01*
X8548753Y-13855412D02*
X8548753Y-13779222D01*
X8548753Y-13779222D02*
X8558277Y-13760174D01*
X8558277Y-13760174D02*
X8577325Y-13750650D01*
X8577325Y-13750650D02*
X8615420Y-13750650D01*
X8615420Y-13750650D02*
X8634468Y-13760174D01*
X8634468Y-13760174D02*
X8643992Y-13779222D01*
X8643992Y-13779222D02*
X8643992Y-13798269D01*
X8643992Y-13798269D02*
X8548753Y-13817317D01*
X8720182Y-13874460D02*
X8739230Y-13883984D01*
X8739230Y-13883984D02*
X8777325Y-13883984D01*
X8777325Y-13883984D02*
X8796373Y-13874460D01*
X8796373Y-13874460D02*
X8805896Y-13855412D01*
X8805896Y-13855412D02*
X8805896Y-13845888D01*
X8805896Y-13845888D02*
X8796373Y-13826841D01*
X8796373Y-13826841D02*
X8777325Y-13817317D01*
X8777325Y-13817317D02*
X8748753Y-13817317D01*
X8748753Y-13817317D02*
X8729706Y-13807793D01*
X8729706Y-13807793D02*
X8720182Y-13788746D01*
X8720182Y-13788746D02*
X8720182Y-13779222D01*
X8720182Y-13779222D02*
X8729706Y-13760174D01*
X8729706Y-13760174D02*
X8748753Y-13750650D01*
X8748753Y-13750650D02*
X8777325Y-13750650D01*
X8777325Y-13750650D02*
X8796373Y-13760174D01*
X8872563Y-13960174D02*
X8882087Y-13950650D01*
X8882087Y-13950650D02*
X8901134Y-13922079D01*
X8901134Y-13922079D02*
X8910658Y-13903031D01*
X8910658Y-13903031D02*
X8920182Y-13874460D01*
X8920182Y-13874460D02*
X8929706Y-13826841D01*
X8929706Y-13826841D02*
X8929706Y-13788746D01*
X8929706Y-13788746D02*
X8920182Y-13741127D01*
X8920182Y-13741127D02*
X8910658Y-13712555D01*
X8910658Y-13712555D02*
X8901134Y-13693508D01*
X8901134Y-13693508D02*
X8882087Y-13664936D01*
X8882087Y-13664936D02*
X8872563Y-13655412D01*
D12*
X4097500Y-14056500D02*
G75*
G02*
X4022500Y-14056500I-37500J0D01*
G01*
X4022500Y-14056500D02*
G75*
G02*
X4097500Y-14056500I37500J0D01*
G01*
D11*
X4396372Y-13947984D02*
X4415420Y-13947984D01*
X4415420Y-13947984D02*
X4434467Y-13957508D01*
X4434467Y-13957508D02*
X4443991Y-13967031D01*
X4443991Y-13967031D02*
X4453515Y-13986079D01*
X4453515Y-13986079D02*
X4463039Y-14024174D01*
X4463039Y-14024174D02*
X4463039Y-14071793D01*
X4463039Y-14071793D02*
X4453515Y-14109888D01*
X4453515Y-14109888D02*
X4443991Y-14128936D01*
X4443991Y-14128936D02*
X4434467Y-14138460D01*
X4434467Y-14138460D02*
X4415420Y-14147984D01*
X4415420Y-14147984D02*
X4396372Y-14147984D01*
X4396372Y-14147984D02*
X4377324Y-14138460D01*
X4377324Y-14138460D02*
X4367801Y-14128936D01*
X4367801Y-14128936D02*
X4358277Y-14109888D01*
X4358277Y-14109888D02*
X4348753Y-14071793D01*
X4348753Y-14071793D02*
X4348753Y-14024174D01*
X4348753Y-14024174D02*
X4358277Y-13986079D01*
X4358277Y-13986079D02*
X4367801Y-13967031D01*
X4367801Y-13967031D02*
X4377324Y-13957508D01*
X4377324Y-13957508D02*
X4396372Y-13947984D01*
X4548753Y-14128936D02*
X4558277Y-14138460D01*
X4558277Y-14138460D02*
X4548753Y-14147984D01*
X4548753Y-14147984D02*
X4539229Y-14138460D01*
X4539229Y-14138460D02*
X4548753Y-14128936D01*
X4548753Y-14128936D02*
X4548753Y-14147984D01*
X4624944Y-13947984D02*
X4758277Y-13947984D01*
X4758277Y-13947984D02*
X4672563Y-14147984D01*
X4929705Y-13947984D02*
X4834467Y-13947984D01*
X4834467Y-13947984D02*
X4824944Y-14043222D01*
X4824944Y-14043222D02*
X4834467Y-14033698D01*
X4834467Y-14033698D02*
X4853515Y-14024174D01*
X4853515Y-14024174D02*
X4901134Y-14024174D01*
X4901134Y-14024174D02*
X4920182Y-14033698D01*
X4920182Y-14033698D02*
X4929705Y-14043222D01*
X4929705Y-14043222D02*
X4939229Y-14062269D01*
X4939229Y-14062269D02*
X4939229Y-14109888D01*
X4939229Y-14109888D02*
X4929705Y-14128936D01*
X4929705Y-14128936D02*
X4920182Y-14138460D01*
X4920182Y-14138460D02*
X4901134Y-14147984D01*
X4901134Y-14147984D02*
X4853515Y-14147984D01*
X4853515Y-14147984D02*
X4834467Y-14138460D01*
X4834467Y-14138460D02*
X4824944Y-14128936D01*
X5063039Y-13947984D02*
X5082086Y-13947984D01*
X5082086Y-13947984D02*
X5101134Y-13957508D01*
X5101134Y-13957508D02*
X5110658Y-13967031D01*
X5110658Y-13967031D02*
X5120182Y-13986079D01*
X5120182Y-13986079D02*
X5129705Y-14024174D01*
X5129705Y-14024174D02*
X5129705Y-14071793D01*
X5129705Y-14071793D02*
X5120182Y-14109888D01*
X5120182Y-14109888D02*
X5110658Y-14128936D01*
X5110658Y-14128936D02*
X5101134Y-14138460D01*
X5101134Y-14138460D02*
X5082086Y-14147984D01*
X5082086Y-14147984D02*
X5063039Y-14147984D01*
X5063039Y-14147984D02*
X5043991Y-14138460D01*
X5043991Y-14138460D02*
X5034467Y-14128936D01*
X5034467Y-14128936D02*
X5024944Y-14109888D01*
X5024944Y-14109888D02*
X5015420Y-14071793D01*
X5015420Y-14071793D02*
X5015420Y-14024174D01*
X5015420Y-14024174D02*
X5024944Y-13986079D01*
X5024944Y-13986079D02*
X5034467Y-13967031D01*
X5034467Y-13967031D02*
X5043991Y-13957508D01*
X5043991Y-13957508D02*
X5063039Y-13947984D01*
X5215420Y-14147984D02*
X5215420Y-14014650D01*
X5215420Y-14033698D02*
X5224944Y-14024174D01*
X5224944Y-14024174D02*
X5243991Y-14014650D01*
X5243991Y-14014650D02*
X5272563Y-14014650D01*
X5272563Y-14014650D02*
X5291610Y-14024174D01*
X5291610Y-14024174D02*
X5301134Y-14043222D01*
X5301134Y-14043222D02*
X5301134Y-14147984D01*
X5301134Y-14043222D02*
X5310658Y-14024174D01*
X5310658Y-14024174D02*
X5329705Y-14014650D01*
X5329705Y-14014650D02*
X5358277Y-14014650D01*
X5358277Y-14014650D02*
X5377325Y-14024174D01*
X5377325Y-14024174D02*
X5386848Y-14043222D01*
X5386848Y-14043222D02*
X5386848Y-14147984D01*
X5482086Y-14147984D02*
X5482086Y-14014650D01*
X5482086Y-14033698D02*
X5491610Y-14024174D01*
X5491610Y-14024174D02*
X5510658Y-14014650D01*
X5510658Y-14014650D02*
X5539229Y-14014650D01*
X5539229Y-14014650D02*
X5558277Y-14024174D01*
X5558277Y-14024174D02*
X5567801Y-14043222D01*
X5567801Y-14043222D02*
X5567801Y-14147984D01*
X5567801Y-14043222D02*
X5577325Y-14024174D01*
X5577325Y-14024174D02*
X5596372Y-14014650D01*
X5596372Y-14014650D02*
X5624943Y-14014650D01*
X5624943Y-14014650D02*
X5643991Y-14024174D01*
X5643991Y-14024174D02*
X5653515Y-14043222D01*
X5653515Y-14043222D02*
X5653515Y-14147984D01*
X6043991Y-13938460D02*
X5872563Y-14195603D01*
X6301134Y-13947984D02*
X6320182Y-13947984D01*
X6320182Y-13947984D02*
X6339229Y-13957508D01*
X6339229Y-13957508D02*
X6348753Y-13967031D01*
X6348753Y-13967031D02*
X6358277Y-13986079D01*
X6358277Y-13986079D02*
X6367801Y-14024174D01*
X6367801Y-14024174D02*
X6367801Y-14071793D01*
X6367801Y-14071793D02*
X6358277Y-14109888D01*
X6358277Y-14109888D02*
X6348753Y-14128936D01*
X6348753Y-14128936D02*
X6339229Y-14138460D01*
X6339229Y-14138460D02*
X6320182Y-14147984D01*
X6320182Y-14147984D02*
X6301134Y-14147984D01*
X6301134Y-14147984D02*
X6282086Y-14138460D01*
X6282086Y-14138460D02*
X6272563Y-14128936D01*
X6272563Y-14128936D02*
X6263039Y-14109888D01*
X6263039Y-14109888D02*
X6253515Y-14071793D01*
X6253515Y-14071793D02*
X6253515Y-14024174D01*
X6253515Y-14024174D02*
X6263039Y-13986079D01*
X6263039Y-13986079D02*
X6272563Y-13967031D01*
X6272563Y-13967031D02*
X6282086Y-13957508D01*
X6282086Y-13957508D02*
X6301134Y-13947984D01*
X6453515Y-14128936D02*
X6463039Y-14138460D01*
X6463039Y-14138460D02*
X6453515Y-14147984D01*
X6453515Y-14147984D02*
X6443991Y-14138460D01*
X6443991Y-14138460D02*
X6453515Y-14128936D01*
X6453515Y-14128936D02*
X6453515Y-14147984D01*
X6586848Y-13947984D02*
X6605896Y-13947984D01*
X6605896Y-13947984D02*
X6624944Y-13957508D01*
X6624944Y-13957508D02*
X6634467Y-13967031D01*
X6634467Y-13967031D02*
X6643991Y-13986079D01*
X6643991Y-13986079D02*
X6653515Y-14024174D01*
X6653515Y-14024174D02*
X6653515Y-14071793D01*
X6653515Y-14071793D02*
X6643991Y-14109888D01*
X6643991Y-14109888D02*
X6634467Y-14128936D01*
X6634467Y-14128936D02*
X6624944Y-14138460D01*
X6624944Y-14138460D02*
X6605896Y-14147984D01*
X6605896Y-14147984D02*
X6586848Y-14147984D01*
X6586848Y-14147984D02*
X6567801Y-14138460D01*
X6567801Y-14138460D02*
X6558277Y-14128936D01*
X6558277Y-14128936D02*
X6548753Y-14109888D01*
X6548753Y-14109888D02*
X6539229Y-14071793D01*
X6539229Y-14071793D02*
X6539229Y-14024174D01*
X6539229Y-14024174D02*
X6548753Y-13986079D01*
X6548753Y-13986079D02*
X6558277Y-13967031D01*
X6558277Y-13967031D02*
X6567801Y-13957508D01*
X6567801Y-13957508D02*
X6586848Y-13947984D01*
X6729706Y-13967031D02*
X6739229Y-13957508D01*
X6739229Y-13957508D02*
X6758277Y-13947984D01*
X6758277Y-13947984D02*
X6805896Y-13947984D01*
X6805896Y-13947984D02*
X6824944Y-13957508D01*
X6824944Y-13957508D02*
X6834467Y-13967031D01*
X6834467Y-13967031D02*
X6843991Y-13986079D01*
X6843991Y-13986079D02*
X6843991Y-14005127D01*
X6843991Y-14005127D02*
X6834467Y-14033698D01*
X6834467Y-14033698D02*
X6720182Y-14147984D01*
X6720182Y-14147984D02*
X6843991Y-14147984D01*
X6939229Y-14147984D02*
X6977325Y-14147984D01*
X6977325Y-14147984D02*
X6996372Y-14138460D01*
X6996372Y-14138460D02*
X7005896Y-14128936D01*
X7005896Y-14128936D02*
X7024944Y-14100365D01*
X7024944Y-14100365D02*
X7034467Y-14062269D01*
X7034467Y-14062269D02*
X7034467Y-13986079D01*
X7034467Y-13986079D02*
X7024944Y-13967031D01*
X7024944Y-13967031D02*
X7015420Y-13957508D01*
X7015420Y-13957508D02*
X6996372Y-13947984D01*
X6996372Y-13947984D02*
X6958277Y-13947984D01*
X6958277Y-13947984D02*
X6939229Y-13957508D01*
X6939229Y-13957508D02*
X6929706Y-13967031D01*
X6929706Y-13967031D02*
X6920182Y-13986079D01*
X6920182Y-13986079D02*
X6920182Y-14033698D01*
X6920182Y-14033698D02*
X6929706Y-14052746D01*
X6929706Y-14052746D02*
X6939229Y-14062269D01*
X6939229Y-14062269D02*
X6958277Y-14071793D01*
X6958277Y-14071793D02*
X6996372Y-14071793D01*
X6996372Y-14071793D02*
X7015420Y-14062269D01*
X7015420Y-14062269D02*
X7024944Y-14052746D01*
X7024944Y-14052746D02*
X7034467Y-14033698D01*
X7215420Y-13947984D02*
X7120182Y-13947984D01*
X7120182Y-13947984D02*
X7110658Y-14043222D01*
X7110658Y-14043222D02*
X7120182Y-14033698D01*
X7120182Y-14033698D02*
X7139229Y-14024174D01*
X7139229Y-14024174D02*
X7186848Y-14024174D01*
X7186848Y-14024174D02*
X7205896Y-14033698D01*
X7205896Y-14033698D02*
X7215420Y-14043222D01*
X7215420Y-14043222D02*
X7224944Y-14062269D01*
X7224944Y-14062269D02*
X7224944Y-14109888D01*
X7224944Y-14109888D02*
X7215420Y-14128936D01*
X7215420Y-14128936D02*
X7205896Y-14138460D01*
X7205896Y-14138460D02*
X7186848Y-14147984D01*
X7186848Y-14147984D02*
X7139229Y-14147984D01*
X7139229Y-14147984D02*
X7120182Y-14138460D01*
X7120182Y-14138460D02*
X7110658Y-14128936D01*
X7301134Y-13947984D02*
X7301134Y-13986079D01*
X7377325Y-13947984D02*
X7377325Y-13986079D01*
X7672563Y-14224174D02*
X7663039Y-14214650D01*
X7663039Y-14214650D02*
X7643991Y-14186079D01*
X7643991Y-14186079D02*
X7634468Y-14167031D01*
X7634468Y-14167031D02*
X7624944Y-14138460D01*
X7624944Y-14138460D02*
X7615420Y-14090841D01*
X7615420Y-14090841D02*
X7615420Y-14052746D01*
X7615420Y-14052746D02*
X7624944Y-14005127D01*
X7624944Y-14005127D02*
X7634468Y-13976555D01*
X7634468Y-13976555D02*
X7643991Y-13957508D01*
X7643991Y-13957508D02*
X7663039Y-13928936D01*
X7663039Y-13928936D02*
X7672563Y-13919412D01*
X7729706Y-13947984D02*
X7853515Y-13947984D01*
X7853515Y-13947984D02*
X7786848Y-14024174D01*
X7786848Y-14024174D02*
X7815420Y-14024174D01*
X7815420Y-14024174D02*
X7834468Y-14033698D01*
X7834468Y-14033698D02*
X7843991Y-14043222D01*
X7843991Y-14043222D02*
X7853515Y-14062269D01*
X7853515Y-14062269D02*
X7853515Y-14109888D01*
X7853515Y-14109888D02*
X7843991Y-14128936D01*
X7843991Y-14128936D02*
X7834468Y-14138460D01*
X7834468Y-14138460D02*
X7815420Y-14147984D01*
X7815420Y-14147984D02*
X7758277Y-14147984D01*
X7758277Y-14147984D02*
X7739229Y-14138460D01*
X7739229Y-14138460D02*
X7729706Y-14128936D01*
X8091610Y-14147984D02*
X8091610Y-13947984D01*
X8177325Y-14147984D02*
X8177325Y-14043222D01*
X8177325Y-14043222D02*
X8167801Y-14024174D01*
X8167801Y-14024174D02*
X8148753Y-14014650D01*
X8148753Y-14014650D02*
X8120182Y-14014650D01*
X8120182Y-14014650D02*
X8101134Y-14024174D01*
X8101134Y-14024174D02*
X8091610Y-14033698D01*
X8301134Y-14147984D02*
X8282087Y-14138460D01*
X8282087Y-14138460D02*
X8272563Y-14128936D01*
X8272563Y-14128936D02*
X8263039Y-14109888D01*
X8263039Y-14109888D02*
X8263039Y-14052746D01*
X8263039Y-14052746D02*
X8272563Y-14033698D01*
X8272563Y-14033698D02*
X8282087Y-14024174D01*
X8282087Y-14024174D02*
X8301134Y-14014650D01*
X8301134Y-14014650D02*
X8329706Y-14014650D01*
X8329706Y-14014650D02*
X8348753Y-14024174D01*
X8348753Y-14024174D02*
X8358277Y-14033698D01*
X8358277Y-14033698D02*
X8367801Y-14052746D01*
X8367801Y-14052746D02*
X8367801Y-14109888D01*
X8367801Y-14109888D02*
X8358277Y-14128936D01*
X8358277Y-14128936D02*
X8348753Y-14138460D01*
X8348753Y-14138460D02*
X8329706Y-14147984D01*
X8329706Y-14147984D02*
X8301134Y-14147984D01*
X8482087Y-14147984D02*
X8463039Y-14138460D01*
X8463039Y-14138460D02*
X8453515Y-14119412D01*
X8453515Y-14119412D02*
X8453515Y-13947984D01*
X8634468Y-14138460D02*
X8615420Y-14147984D01*
X8615420Y-14147984D02*
X8577325Y-14147984D01*
X8577325Y-14147984D02*
X8558277Y-14138460D01*
X8558277Y-14138460D02*
X8548753Y-14119412D01*
X8548753Y-14119412D02*
X8548753Y-14043222D01*
X8548753Y-14043222D02*
X8558277Y-14024174D01*
X8558277Y-14024174D02*
X8577325Y-14014650D01*
X8577325Y-14014650D02*
X8615420Y-14014650D01*
X8615420Y-14014650D02*
X8634468Y-14024174D01*
X8634468Y-14024174D02*
X8643992Y-14043222D01*
X8643992Y-14043222D02*
X8643992Y-14062269D01*
X8643992Y-14062269D02*
X8548753Y-14081317D01*
X8720182Y-14138460D02*
X8739230Y-14147984D01*
X8739230Y-14147984D02*
X8777325Y-14147984D01*
X8777325Y-14147984D02*
X8796373Y-14138460D01*
X8796373Y-14138460D02*
X8805896Y-14119412D01*
X8805896Y-14119412D02*
X8805896Y-14109888D01*
X8805896Y-14109888D02*
X8796373Y-14090841D01*
X8796373Y-14090841D02*
X8777325Y-14081317D01*
X8777325Y-14081317D02*
X8748753Y-14081317D01*
X8748753Y-14081317D02*
X8729706Y-14071793D01*
X8729706Y-14071793D02*
X8720182Y-14052746D01*
X8720182Y-14052746D02*
X8720182Y-14043222D01*
X8720182Y-14043222D02*
X8729706Y-14024174D01*
X8729706Y-14024174D02*
X8748753Y-14014650D01*
X8748753Y-14014650D02*
X8777325Y-14014650D01*
X8777325Y-14014650D02*
X8796373Y-14024174D01*
X8872563Y-14224174D02*
X8882087Y-14214650D01*
X8882087Y-14214650D02*
X8901134Y-14186079D01*
X8901134Y-14186079D02*
X8910658Y-14167031D01*
X8910658Y-14167031D02*
X8920182Y-14138460D01*
X8920182Y-14138460D02*
X8929706Y-14090841D01*
X8929706Y-14090841D02*
X8929706Y-14052746D01*
X8929706Y-14052746D02*
X8920182Y-14005127D01*
X8920182Y-14005127D02*
X8910658Y-13976555D01*
X8910658Y-13976555D02*
X8901134Y-13957508D01*
X8901134Y-13957508D02*
X8882087Y-13928936D01*
X8882087Y-13928936D02*
X8872563Y-13919412D01*
D12*
X4057500Y-14280500D02*
X4057500Y-14360500D01*
X4017500Y-14320500D02*
X4097500Y-14320500D01*
D11*
X4396372Y-14211984D02*
X4415420Y-14211984D01*
X4415420Y-14211984D02*
X4434467Y-14221508D01*
X4434467Y-14221508D02*
X4443991Y-14231031D01*
X4443991Y-14231031D02*
X4453515Y-14250079D01*
X4453515Y-14250079D02*
X4463039Y-14288174D01*
X4463039Y-14288174D02*
X4463039Y-14335793D01*
X4463039Y-14335793D02*
X4453515Y-14373888D01*
X4453515Y-14373888D02*
X4443991Y-14392936D01*
X4443991Y-14392936D02*
X4434467Y-14402460D01*
X4434467Y-14402460D02*
X4415420Y-14411984D01*
X4415420Y-14411984D02*
X4396372Y-14411984D01*
X4396372Y-14411984D02*
X4377324Y-14402460D01*
X4377324Y-14402460D02*
X4367801Y-14392936D01*
X4367801Y-14392936D02*
X4358277Y-14373888D01*
X4358277Y-14373888D02*
X4348753Y-14335793D01*
X4348753Y-14335793D02*
X4348753Y-14288174D01*
X4348753Y-14288174D02*
X4358277Y-14250079D01*
X4358277Y-14250079D02*
X4367801Y-14231031D01*
X4367801Y-14231031D02*
X4377324Y-14221508D01*
X4377324Y-14221508D02*
X4396372Y-14211984D01*
X4548753Y-14392936D02*
X4558277Y-14402460D01*
X4558277Y-14402460D02*
X4548753Y-14411984D01*
X4548753Y-14411984D02*
X4539229Y-14402460D01*
X4539229Y-14402460D02*
X4548753Y-14392936D01*
X4548753Y-14392936D02*
X4548753Y-14411984D01*
X4672563Y-14297698D02*
X4653515Y-14288174D01*
X4653515Y-14288174D02*
X4643991Y-14278650D01*
X4643991Y-14278650D02*
X4634467Y-14259603D01*
X4634467Y-14259603D02*
X4634467Y-14250079D01*
X4634467Y-14250079D02*
X4643991Y-14231031D01*
X4643991Y-14231031D02*
X4653515Y-14221508D01*
X4653515Y-14221508D02*
X4672563Y-14211984D01*
X4672563Y-14211984D02*
X4710658Y-14211984D01*
X4710658Y-14211984D02*
X4729705Y-14221508D01*
X4729705Y-14221508D02*
X4739229Y-14231031D01*
X4739229Y-14231031D02*
X4748753Y-14250079D01*
X4748753Y-14250079D02*
X4748753Y-14259603D01*
X4748753Y-14259603D02*
X4739229Y-14278650D01*
X4739229Y-14278650D02*
X4729705Y-14288174D01*
X4729705Y-14288174D02*
X4710658Y-14297698D01*
X4710658Y-14297698D02*
X4672563Y-14297698D01*
X4672563Y-14297698D02*
X4653515Y-14307222D01*
X4653515Y-14307222D02*
X4643991Y-14316746D01*
X4643991Y-14316746D02*
X4634467Y-14335793D01*
X4634467Y-14335793D02*
X4634467Y-14373888D01*
X4634467Y-14373888D02*
X4643991Y-14392936D01*
X4643991Y-14392936D02*
X4653515Y-14402460D01*
X4653515Y-14402460D02*
X4672563Y-14411984D01*
X4672563Y-14411984D02*
X4710658Y-14411984D01*
X4710658Y-14411984D02*
X4729705Y-14402460D01*
X4729705Y-14402460D02*
X4739229Y-14392936D01*
X4739229Y-14392936D02*
X4748753Y-14373888D01*
X4748753Y-14373888D02*
X4748753Y-14335793D01*
X4748753Y-14335793D02*
X4739229Y-14316746D01*
X4739229Y-14316746D02*
X4729705Y-14307222D01*
X4729705Y-14307222D02*
X4710658Y-14297698D01*
X4872563Y-14211984D02*
X4891610Y-14211984D01*
X4891610Y-14211984D02*
X4910658Y-14221508D01*
X4910658Y-14221508D02*
X4920182Y-14231031D01*
X4920182Y-14231031D02*
X4929705Y-14250079D01*
X4929705Y-14250079D02*
X4939229Y-14288174D01*
X4939229Y-14288174D02*
X4939229Y-14335793D01*
X4939229Y-14335793D02*
X4929705Y-14373888D01*
X4929705Y-14373888D02*
X4920182Y-14392936D01*
X4920182Y-14392936D02*
X4910658Y-14402460D01*
X4910658Y-14402460D02*
X4891610Y-14411984D01*
X4891610Y-14411984D02*
X4872563Y-14411984D01*
X4872563Y-14411984D02*
X4853515Y-14402460D01*
X4853515Y-14402460D02*
X4843991Y-14392936D01*
X4843991Y-14392936D02*
X4834467Y-14373888D01*
X4834467Y-14373888D02*
X4824944Y-14335793D01*
X4824944Y-14335793D02*
X4824944Y-14288174D01*
X4824944Y-14288174D02*
X4834467Y-14250079D01*
X4834467Y-14250079D02*
X4843991Y-14231031D01*
X4843991Y-14231031D02*
X4853515Y-14221508D01*
X4853515Y-14221508D02*
X4872563Y-14211984D01*
X5063039Y-14211984D02*
X5082086Y-14211984D01*
X5082086Y-14211984D02*
X5101134Y-14221508D01*
X5101134Y-14221508D02*
X5110658Y-14231031D01*
X5110658Y-14231031D02*
X5120182Y-14250079D01*
X5120182Y-14250079D02*
X5129705Y-14288174D01*
X5129705Y-14288174D02*
X5129705Y-14335793D01*
X5129705Y-14335793D02*
X5120182Y-14373888D01*
X5120182Y-14373888D02*
X5110658Y-14392936D01*
X5110658Y-14392936D02*
X5101134Y-14402460D01*
X5101134Y-14402460D02*
X5082086Y-14411984D01*
X5082086Y-14411984D02*
X5063039Y-14411984D01*
X5063039Y-14411984D02*
X5043991Y-14402460D01*
X5043991Y-14402460D02*
X5034467Y-14392936D01*
X5034467Y-14392936D02*
X5024944Y-14373888D01*
X5024944Y-14373888D02*
X5015420Y-14335793D01*
X5015420Y-14335793D02*
X5015420Y-14288174D01*
X5015420Y-14288174D02*
X5024944Y-14250079D01*
X5024944Y-14250079D02*
X5034467Y-14231031D01*
X5034467Y-14231031D02*
X5043991Y-14221508D01*
X5043991Y-14221508D02*
X5063039Y-14211984D01*
X5215420Y-14411984D02*
X5215420Y-14278650D01*
X5215420Y-14297698D02*
X5224944Y-14288174D01*
X5224944Y-14288174D02*
X5243991Y-14278650D01*
X5243991Y-14278650D02*
X5272563Y-14278650D01*
X5272563Y-14278650D02*
X5291610Y-14288174D01*
X5291610Y-14288174D02*
X5301134Y-14307222D01*
X5301134Y-14307222D02*
X5301134Y-14411984D01*
X5301134Y-14307222D02*
X5310658Y-14288174D01*
X5310658Y-14288174D02*
X5329705Y-14278650D01*
X5329705Y-14278650D02*
X5358277Y-14278650D01*
X5358277Y-14278650D02*
X5377325Y-14288174D01*
X5377325Y-14288174D02*
X5386848Y-14307222D01*
X5386848Y-14307222D02*
X5386848Y-14411984D01*
X5482086Y-14411984D02*
X5482086Y-14278650D01*
X5482086Y-14297698D02*
X5491610Y-14288174D01*
X5491610Y-14288174D02*
X5510658Y-14278650D01*
X5510658Y-14278650D02*
X5539229Y-14278650D01*
X5539229Y-14278650D02*
X5558277Y-14288174D01*
X5558277Y-14288174D02*
X5567801Y-14307222D01*
X5567801Y-14307222D02*
X5567801Y-14411984D01*
X5567801Y-14307222D02*
X5577325Y-14288174D01*
X5577325Y-14288174D02*
X5596372Y-14278650D01*
X5596372Y-14278650D02*
X5624943Y-14278650D01*
X5624943Y-14278650D02*
X5643991Y-14288174D01*
X5643991Y-14288174D02*
X5653515Y-14307222D01*
X5653515Y-14307222D02*
X5653515Y-14411984D01*
X6043991Y-14202460D02*
X5872563Y-14459603D01*
X6301134Y-14211984D02*
X6320182Y-14211984D01*
X6320182Y-14211984D02*
X6339229Y-14221508D01*
X6339229Y-14221508D02*
X6348753Y-14231031D01*
X6348753Y-14231031D02*
X6358277Y-14250079D01*
X6358277Y-14250079D02*
X6367801Y-14288174D01*
X6367801Y-14288174D02*
X6367801Y-14335793D01*
X6367801Y-14335793D02*
X6358277Y-14373888D01*
X6358277Y-14373888D02*
X6348753Y-14392936D01*
X6348753Y-14392936D02*
X6339229Y-14402460D01*
X6339229Y-14402460D02*
X6320182Y-14411984D01*
X6320182Y-14411984D02*
X6301134Y-14411984D01*
X6301134Y-14411984D02*
X6282086Y-14402460D01*
X6282086Y-14402460D02*
X6272563Y-14392936D01*
X6272563Y-14392936D02*
X6263039Y-14373888D01*
X6263039Y-14373888D02*
X6253515Y-14335793D01*
X6253515Y-14335793D02*
X6253515Y-14288174D01*
X6253515Y-14288174D02*
X6263039Y-14250079D01*
X6263039Y-14250079D02*
X6272563Y-14231031D01*
X6272563Y-14231031D02*
X6282086Y-14221508D01*
X6282086Y-14221508D02*
X6301134Y-14211984D01*
X6453515Y-14392936D02*
X6463039Y-14402460D01*
X6463039Y-14402460D02*
X6453515Y-14411984D01*
X6453515Y-14411984D02*
X6443991Y-14402460D01*
X6443991Y-14402460D02*
X6453515Y-14392936D01*
X6453515Y-14392936D02*
X6453515Y-14411984D01*
X6586848Y-14211984D02*
X6605896Y-14211984D01*
X6605896Y-14211984D02*
X6624944Y-14221508D01*
X6624944Y-14221508D02*
X6634467Y-14231031D01*
X6634467Y-14231031D02*
X6643991Y-14250079D01*
X6643991Y-14250079D02*
X6653515Y-14288174D01*
X6653515Y-14288174D02*
X6653515Y-14335793D01*
X6653515Y-14335793D02*
X6643991Y-14373888D01*
X6643991Y-14373888D02*
X6634467Y-14392936D01*
X6634467Y-14392936D02*
X6624944Y-14402460D01*
X6624944Y-14402460D02*
X6605896Y-14411984D01*
X6605896Y-14411984D02*
X6586848Y-14411984D01*
X6586848Y-14411984D02*
X6567801Y-14402460D01*
X6567801Y-14402460D02*
X6558277Y-14392936D01*
X6558277Y-14392936D02*
X6548753Y-14373888D01*
X6548753Y-14373888D02*
X6539229Y-14335793D01*
X6539229Y-14335793D02*
X6539229Y-14288174D01*
X6539229Y-14288174D02*
X6548753Y-14250079D01*
X6548753Y-14250079D02*
X6558277Y-14231031D01*
X6558277Y-14231031D02*
X6567801Y-14221508D01*
X6567801Y-14221508D02*
X6586848Y-14211984D01*
X6720182Y-14211984D02*
X6843991Y-14211984D01*
X6843991Y-14211984D02*
X6777325Y-14288174D01*
X6777325Y-14288174D02*
X6805896Y-14288174D01*
X6805896Y-14288174D02*
X6824944Y-14297698D01*
X6824944Y-14297698D02*
X6834467Y-14307222D01*
X6834467Y-14307222D02*
X6843991Y-14326269D01*
X6843991Y-14326269D02*
X6843991Y-14373888D01*
X6843991Y-14373888D02*
X6834467Y-14392936D01*
X6834467Y-14392936D02*
X6824944Y-14402460D01*
X6824944Y-14402460D02*
X6805896Y-14411984D01*
X6805896Y-14411984D02*
X6748753Y-14411984D01*
X6748753Y-14411984D02*
X6729706Y-14402460D01*
X6729706Y-14402460D02*
X6720182Y-14392936D01*
X7034467Y-14411984D02*
X6920182Y-14411984D01*
X6977325Y-14411984D02*
X6977325Y-14211984D01*
X6977325Y-14211984D02*
X6958277Y-14240555D01*
X6958277Y-14240555D02*
X6939229Y-14259603D01*
X6939229Y-14259603D02*
X6920182Y-14269127D01*
X7215420Y-14211984D02*
X7120182Y-14211984D01*
X7120182Y-14211984D02*
X7110658Y-14307222D01*
X7110658Y-14307222D02*
X7120182Y-14297698D01*
X7120182Y-14297698D02*
X7139229Y-14288174D01*
X7139229Y-14288174D02*
X7186848Y-14288174D01*
X7186848Y-14288174D02*
X7205896Y-14297698D01*
X7205896Y-14297698D02*
X7215420Y-14307222D01*
X7215420Y-14307222D02*
X7224944Y-14326269D01*
X7224944Y-14326269D02*
X7224944Y-14373888D01*
X7224944Y-14373888D02*
X7215420Y-14392936D01*
X7215420Y-14392936D02*
X7205896Y-14402460D01*
X7205896Y-14402460D02*
X7186848Y-14411984D01*
X7186848Y-14411984D02*
X7139229Y-14411984D01*
X7139229Y-14411984D02*
X7120182Y-14402460D01*
X7120182Y-14402460D02*
X7110658Y-14392936D01*
X7301134Y-14211984D02*
X7301134Y-14250079D01*
X7377325Y-14211984D02*
X7377325Y-14250079D01*
X7672563Y-14488174D02*
X7663039Y-14478650D01*
X7663039Y-14478650D02*
X7643991Y-14450079D01*
X7643991Y-14450079D02*
X7634468Y-14431031D01*
X7634468Y-14431031D02*
X7624944Y-14402460D01*
X7624944Y-14402460D02*
X7615420Y-14354841D01*
X7615420Y-14354841D02*
X7615420Y-14316746D01*
X7615420Y-14316746D02*
X7624944Y-14269127D01*
X7624944Y-14269127D02*
X7634468Y-14240555D01*
X7634468Y-14240555D02*
X7643991Y-14221508D01*
X7643991Y-14221508D02*
X7663039Y-14192936D01*
X7663039Y-14192936D02*
X7672563Y-14183412D01*
X7843991Y-14211984D02*
X7748753Y-14211984D01*
X7748753Y-14211984D02*
X7739229Y-14307222D01*
X7739229Y-14307222D02*
X7748753Y-14297698D01*
X7748753Y-14297698D02*
X7767801Y-14288174D01*
X7767801Y-14288174D02*
X7815420Y-14288174D01*
X7815420Y-14288174D02*
X7834468Y-14297698D01*
X7834468Y-14297698D02*
X7843991Y-14307222D01*
X7843991Y-14307222D02*
X7853515Y-14326269D01*
X7853515Y-14326269D02*
X7853515Y-14373888D01*
X7853515Y-14373888D02*
X7843991Y-14392936D01*
X7843991Y-14392936D02*
X7834468Y-14402460D01*
X7834468Y-14402460D02*
X7815420Y-14411984D01*
X7815420Y-14411984D02*
X7767801Y-14411984D01*
X7767801Y-14411984D02*
X7748753Y-14402460D01*
X7748753Y-14402460D02*
X7739229Y-14392936D01*
X8091610Y-14411984D02*
X8091610Y-14211984D01*
X8177325Y-14411984D02*
X8177325Y-14307222D01*
X8177325Y-14307222D02*
X8167801Y-14288174D01*
X8167801Y-14288174D02*
X8148753Y-14278650D01*
X8148753Y-14278650D02*
X8120182Y-14278650D01*
X8120182Y-14278650D02*
X8101134Y-14288174D01*
X8101134Y-14288174D02*
X8091610Y-14297698D01*
X8301134Y-14411984D02*
X8282087Y-14402460D01*
X8282087Y-14402460D02*
X8272563Y-14392936D01*
X8272563Y-14392936D02*
X8263039Y-14373888D01*
X8263039Y-14373888D02*
X8263039Y-14316746D01*
X8263039Y-14316746D02*
X8272563Y-14297698D01*
X8272563Y-14297698D02*
X8282087Y-14288174D01*
X8282087Y-14288174D02*
X8301134Y-14278650D01*
X8301134Y-14278650D02*
X8329706Y-14278650D01*
X8329706Y-14278650D02*
X8348753Y-14288174D01*
X8348753Y-14288174D02*
X8358277Y-14297698D01*
X8358277Y-14297698D02*
X8367801Y-14316746D01*
X8367801Y-14316746D02*
X8367801Y-14373888D01*
X8367801Y-14373888D02*
X8358277Y-14392936D01*
X8358277Y-14392936D02*
X8348753Y-14402460D01*
X8348753Y-14402460D02*
X8329706Y-14411984D01*
X8329706Y-14411984D02*
X8301134Y-14411984D01*
X8482087Y-14411984D02*
X8463039Y-14402460D01*
X8463039Y-14402460D02*
X8453515Y-14383412D01*
X8453515Y-14383412D02*
X8453515Y-14211984D01*
X8634468Y-14402460D02*
X8615420Y-14411984D01*
X8615420Y-14411984D02*
X8577325Y-14411984D01*
X8577325Y-14411984D02*
X8558277Y-14402460D01*
X8558277Y-14402460D02*
X8548753Y-14383412D01*
X8548753Y-14383412D02*
X8548753Y-14307222D01*
X8548753Y-14307222D02*
X8558277Y-14288174D01*
X8558277Y-14288174D02*
X8577325Y-14278650D01*
X8577325Y-14278650D02*
X8615420Y-14278650D01*
X8615420Y-14278650D02*
X8634468Y-14288174D01*
X8634468Y-14288174D02*
X8643992Y-14307222D01*
X8643992Y-14307222D02*
X8643992Y-14326269D01*
X8643992Y-14326269D02*
X8548753Y-14345317D01*
X8720182Y-14402460D02*
X8739230Y-14411984D01*
X8739230Y-14411984D02*
X8777325Y-14411984D01*
X8777325Y-14411984D02*
X8796373Y-14402460D01*
X8796373Y-14402460D02*
X8805896Y-14383412D01*
X8805896Y-14383412D02*
X8805896Y-14373888D01*
X8805896Y-14373888D02*
X8796373Y-14354841D01*
X8796373Y-14354841D02*
X8777325Y-14345317D01*
X8777325Y-14345317D02*
X8748753Y-14345317D01*
X8748753Y-14345317D02*
X8729706Y-14335793D01*
X8729706Y-14335793D02*
X8720182Y-14316746D01*
X8720182Y-14316746D02*
X8720182Y-14307222D01*
X8720182Y-14307222D02*
X8729706Y-14288174D01*
X8729706Y-14288174D02*
X8748753Y-14278650D01*
X8748753Y-14278650D02*
X8777325Y-14278650D01*
X8777325Y-14278650D02*
X8796373Y-14288174D01*
X8872563Y-14488174D02*
X8882087Y-14478650D01*
X8882087Y-14478650D02*
X8901134Y-14450079D01*
X8901134Y-14450079D02*
X8910658Y-14431031D01*
X8910658Y-14431031D02*
X8920182Y-14402460D01*
X8920182Y-14402460D02*
X8929706Y-14354841D01*
X8929706Y-14354841D02*
X8929706Y-14316746D01*
X8929706Y-14316746D02*
X8920182Y-14269127D01*
X8920182Y-14269127D02*
X8910658Y-14240555D01*
X8910658Y-14240555D02*
X8901134Y-14221508D01*
X8901134Y-14221508D02*
X8882087Y-14192936D01*
X8882087Y-14192936D02*
X8872563Y-14183412D01*
D12*
X4084320Y-14616320D02*
X4084320Y-14552680D01*
X4020680Y-14552680D01*
X4020680Y-14616320D01*
X4084320Y-14616320D01*
D11*
X4396372Y-14475984D02*
X4415420Y-14475984D01*
X4415420Y-14475984D02*
X4434467Y-14485508D01*
X4434467Y-14485508D02*
X4443991Y-14495031D01*
X4443991Y-14495031D02*
X4453515Y-14514079D01*
X4453515Y-14514079D02*
X4463039Y-14552174D01*
X4463039Y-14552174D02*
X4463039Y-14599793D01*
X4463039Y-14599793D02*
X4453515Y-14637888D01*
X4453515Y-14637888D02*
X4443991Y-14656936D01*
X4443991Y-14656936D02*
X4434467Y-14666460D01*
X4434467Y-14666460D02*
X4415420Y-14675984D01*
X4415420Y-14675984D02*
X4396372Y-14675984D01*
X4396372Y-14675984D02*
X4377324Y-14666460D01*
X4377324Y-14666460D02*
X4367801Y-14656936D01*
X4367801Y-14656936D02*
X4358277Y-14637888D01*
X4358277Y-14637888D02*
X4348753Y-14599793D01*
X4348753Y-14599793D02*
X4348753Y-14552174D01*
X4348753Y-14552174D02*
X4358277Y-14514079D01*
X4358277Y-14514079D02*
X4367801Y-14495031D01*
X4367801Y-14495031D02*
X4377324Y-14485508D01*
X4377324Y-14485508D02*
X4396372Y-14475984D01*
X4548753Y-14656936D02*
X4558277Y-14666460D01*
X4558277Y-14666460D02*
X4548753Y-14675984D01*
X4548753Y-14675984D02*
X4539229Y-14666460D01*
X4539229Y-14666460D02*
X4548753Y-14656936D01*
X4548753Y-14656936D02*
X4548753Y-14675984D01*
X4653515Y-14675984D02*
X4691610Y-14675984D01*
X4691610Y-14675984D02*
X4710658Y-14666460D01*
X4710658Y-14666460D02*
X4720182Y-14656936D01*
X4720182Y-14656936D02*
X4739229Y-14628365D01*
X4739229Y-14628365D02*
X4748753Y-14590269D01*
X4748753Y-14590269D02*
X4748753Y-14514079D01*
X4748753Y-14514079D02*
X4739229Y-14495031D01*
X4739229Y-14495031D02*
X4729705Y-14485508D01*
X4729705Y-14485508D02*
X4710658Y-14475984D01*
X4710658Y-14475984D02*
X4672563Y-14475984D01*
X4672563Y-14475984D02*
X4653515Y-14485508D01*
X4653515Y-14485508D02*
X4643991Y-14495031D01*
X4643991Y-14495031D02*
X4634467Y-14514079D01*
X4634467Y-14514079D02*
X4634467Y-14561698D01*
X4634467Y-14561698D02*
X4643991Y-14580746D01*
X4643991Y-14580746D02*
X4653515Y-14590269D01*
X4653515Y-14590269D02*
X4672563Y-14599793D01*
X4672563Y-14599793D02*
X4710658Y-14599793D01*
X4710658Y-14599793D02*
X4729705Y-14590269D01*
X4729705Y-14590269D02*
X4739229Y-14580746D01*
X4739229Y-14580746D02*
X4748753Y-14561698D01*
X4872563Y-14475984D02*
X4891610Y-14475984D01*
X4891610Y-14475984D02*
X4910658Y-14485508D01*
X4910658Y-14485508D02*
X4920182Y-14495031D01*
X4920182Y-14495031D02*
X4929705Y-14514079D01*
X4929705Y-14514079D02*
X4939229Y-14552174D01*
X4939229Y-14552174D02*
X4939229Y-14599793D01*
X4939229Y-14599793D02*
X4929705Y-14637888D01*
X4929705Y-14637888D02*
X4920182Y-14656936D01*
X4920182Y-14656936D02*
X4910658Y-14666460D01*
X4910658Y-14666460D02*
X4891610Y-14675984D01*
X4891610Y-14675984D02*
X4872563Y-14675984D01*
X4872563Y-14675984D02*
X4853515Y-14666460D01*
X4853515Y-14666460D02*
X4843991Y-14656936D01*
X4843991Y-14656936D02*
X4834467Y-14637888D01*
X4834467Y-14637888D02*
X4824944Y-14599793D01*
X4824944Y-14599793D02*
X4824944Y-14552174D01*
X4824944Y-14552174D02*
X4834467Y-14514079D01*
X4834467Y-14514079D02*
X4843991Y-14495031D01*
X4843991Y-14495031D02*
X4853515Y-14485508D01*
X4853515Y-14485508D02*
X4872563Y-14475984D01*
X5063039Y-14475984D02*
X5082086Y-14475984D01*
X5082086Y-14475984D02*
X5101134Y-14485508D01*
X5101134Y-14485508D02*
X5110658Y-14495031D01*
X5110658Y-14495031D02*
X5120182Y-14514079D01*
X5120182Y-14514079D02*
X5129705Y-14552174D01*
X5129705Y-14552174D02*
X5129705Y-14599793D01*
X5129705Y-14599793D02*
X5120182Y-14637888D01*
X5120182Y-14637888D02*
X5110658Y-14656936D01*
X5110658Y-14656936D02*
X5101134Y-14666460D01*
X5101134Y-14666460D02*
X5082086Y-14675984D01*
X5082086Y-14675984D02*
X5063039Y-14675984D01*
X5063039Y-14675984D02*
X5043991Y-14666460D01*
X5043991Y-14666460D02*
X5034467Y-14656936D01*
X5034467Y-14656936D02*
X5024944Y-14637888D01*
X5024944Y-14637888D02*
X5015420Y-14599793D01*
X5015420Y-14599793D02*
X5015420Y-14552174D01*
X5015420Y-14552174D02*
X5024944Y-14514079D01*
X5024944Y-14514079D02*
X5034467Y-14495031D01*
X5034467Y-14495031D02*
X5043991Y-14485508D01*
X5043991Y-14485508D02*
X5063039Y-14475984D01*
X5215420Y-14675984D02*
X5215420Y-14542650D01*
X5215420Y-14561698D02*
X5224944Y-14552174D01*
X5224944Y-14552174D02*
X5243991Y-14542650D01*
X5243991Y-14542650D02*
X5272563Y-14542650D01*
X5272563Y-14542650D02*
X5291610Y-14552174D01*
X5291610Y-14552174D02*
X5301134Y-14571222D01*
X5301134Y-14571222D02*
X5301134Y-14675984D01*
X5301134Y-14571222D02*
X5310658Y-14552174D01*
X5310658Y-14552174D02*
X5329705Y-14542650D01*
X5329705Y-14542650D02*
X5358277Y-14542650D01*
X5358277Y-14542650D02*
X5377325Y-14552174D01*
X5377325Y-14552174D02*
X5386848Y-14571222D01*
X5386848Y-14571222D02*
X5386848Y-14675984D01*
X5482086Y-14675984D02*
X5482086Y-14542650D01*
X5482086Y-14561698D02*
X5491610Y-14552174D01*
X5491610Y-14552174D02*
X5510658Y-14542650D01*
X5510658Y-14542650D02*
X5539229Y-14542650D01*
X5539229Y-14542650D02*
X5558277Y-14552174D01*
X5558277Y-14552174D02*
X5567801Y-14571222D01*
X5567801Y-14571222D02*
X5567801Y-14675984D01*
X5567801Y-14571222D02*
X5577325Y-14552174D01*
X5577325Y-14552174D02*
X5596372Y-14542650D01*
X5596372Y-14542650D02*
X5624943Y-14542650D01*
X5624943Y-14542650D02*
X5643991Y-14552174D01*
X5643991Y-14552174D02*
X5653515Y-14571222D01*
X5653515Y-14571222D02*
X5653515Y-14675984D01*
X6043991Y-14466460D02*
X5872563Y-14723603D01*
X6301134Y-14475984D02*
X6320182Y-14475984D01*
X6320182Y-14475984D02*
X6339229Y-14485508D01*
X6339229Y-14485508D02*
X6348753Y-14495031D01*
X6348753Y-14495031D02*
X6358277Y-14514079D01*
X6358277Y-14514079D02*
X6367801Y-14552174D01*
X6367801Y-14552174D02*
X6367801Y-14599793D01*
X6367801Y-14599793D02*
X6358277Y-14637888D01*
X6358277Y-14637888D02*
X6348753Y-14656936D01*
X6348753Y-14656936D02*
X6339229Y-14666460D01*
X6339229Y-14666460D02*
X6320182Y-14675984D01*
X6320182Y-14675984D02*
X6301134Y-14675984D01*
X6301134Y-14675984D02*
X6282086Y-14666460D01*
X6282086Y-14666460D02*
X6272563Y-14656936D01*
X6272563Y-14656936D02*
X6263039Y-14637888D01*
X6263039Y-14637888D02*
X6253515Y-14599793D01*
X6253515Y-14599793D02*
X6253515Y-14552174D01*
X6253515Y-14552174D02*
X6263039Y-14514079D01*
X6263039Y-14514079D02*
X6272563Y-14495031D01*
X6272563Y-14495031D02*
X6282086Y-14485508D01*
X6282086Y-14485508D02*
X6301134Y-14475984D01*
X6453515Y-14656936D02*
X6463039Y-14666460D01*
X6463039Y-14666460D02*
X6453515Y-14675984D01*
X6453515Y-14675984D02*
X6443991Y-14666460D01*
X6443991Y-14666460D02*
X6453515Y-14656936D01*
X6453515Y-14656936D02*
X6453515Y-14675984D01*
X6586848Y-14475984D02*
X6605896Y-14475984D01*
X6605896Y-14475984D02*
X6624944Y-14485508D01*
X6624944Y-14485508D02*
X6634467Y-14495031D01*
X6634467Y-14495031D02*
X6643991Y-14514079D01*
X6643991Y-14514079D02*
X6653515Y-14552174D01*
X6653515Y-14552174D02*
X6653515Y-14599793D01*
X6653515Y-14599793D02*
X6643991Y-14637888D01*
X6643991Y-14637888D02*
X6634467Y-14656936D01*
X6634467Y-14656936D02*
X6624944Y-14666460D01*
X6624944Y-14666460D02*
X6605896Y-14675984D01*
X6605896Y-14675984D02*
X6586848Y-14675984D01*
X6586848Y-14675984D02*
X6567801Y-14666460D01*
X6567801Y-14666460D02*
X6558277Y-14656936D01*
X6558277Y-14656936D02*
X6548753Y-14637888D01*
X6548753Y-14637888D02*
X6539229Y-14599793D01*
X6539229Y-14599793D02*
X6539229Y-14552174D01*
X6539229Y-14552174D02*
X6548753Y-14514079D01*
X6548753Y-14514079D02*
X6558277Y-14495031D01*
X6558277Y-14495031D02*
X6567801Y-14485508D01*
X6567801Y-14485508D02*
X6586848Y-14475984D01*
X6720182Y-14475984D02*
X6843991Y-14475984D01*
X6843991Y-14475984D02*
X6777325Y-14552174D01*
X6777325Y-14552174D02*
X6805896Y-14552174D01*
X6805896Y-14552174D02*
X6824944Y-14561698D01*
X6824944Y-14561698D02*
X6834467Y-14571222D01*
X6834467Y-14571222D02*
X6843991Y-14590269D01*
X6843991Y-14590269D02*
X6843991Y-14637888D01*
X6843991Y-14637888D02*
X6834467Y-14656936D01*
X6834467Y-14656936D02*
X6824944Y-14666460D01*
X6824944Y-14666460D02*
X6805896Y-14675984D01*
X6805896Y-14675984D02*
X6748753Y-14675984D01*
X6748753Y-14675984D02*
X6729706Y-14666460D01*
X6729706Y-14666460D02*
X6720182Y-14656936D01*
X7024944Y-14475984D02*
X6929706Y-14475984D01*
X6929706Y-14475984D02*
X6920182Y-14571222D01*
X6920182Y-14571222D02*
X6929706Y-14561698D01*
X6929706Y-14561698D02*
X6948753Y-14552174D01*
X6948753Y-14552174D02*
X6996372Y-14552174D01*
X6996372Y-14552174D02*
X7015420Y-14561698D01*
X7015420Y-14561698D02*
X7024944Y-14571222D01*
X7024944Y-14571222D02*
X7034467Y-14590269D01*
X7034467Y-14590269D02*
X7034467Y-14637888D01*
X7034467Y-14637888D02*
X7024944Y-14656936D01*
X7024944Y-14656936D02*
X7015420Y-14666460D01*
X7015420Y-14666460D02*
X6996372Y-14675984D01*
X6996372Y-14675984D02*
X6948753Y-14675984D01*
X6948753Y-14675984D02*
X6929706Y-14666460D01*
X6929706Y-14666460D02*
X6920182Y-14656936D01*
X7205896Y-14542650D02*
X7205896Y-14675984D01*
X7158277Y-14466460D02*
X7110658Y-14609317D01*
X7110658Y-14609317D02*
X7234467Y-14609317D01*
X7301134Y-14475984D02*
X7301134Y-14514079D01*
X7377325Y-14475984D02*
X7377325Y-14514079D01*
X7672563Y-14752174D02*
X7663039Y-14742650D01*
X7663039Y-14742650D02*
X7643991Y-14714079D01*
X7643991Y-14714079D02*
X7634468Y-14695031D01*
X7634468Y-14695031D02*
X7624944Y-14666460D01*
X7624944Y-14666460D02*
X7615420Y-14618841D01*
X7615420Y-14618841D02*
X7615420Y-14580746D01*
X7615420Y-14580746D02*
X7624944Y-14533127D01*
X7624944Y-14533127D02*
X7634468Y-14504555D01*
X7634468Y-14504555D02*
X7643991Y-14485508D01*
X7643991Y-14485508D02*
X7663039Y-14456936D01*
X7663039Y-14456936D02*
X7672563Y-14447412D01*
X7739229Y-14495031D02*
X7748753Y-14485508D01*
X7748753Y-14485508D02*
X7767801Y-14475984D01*
X7767801Y-14475984D02*
X7815420Y-14475984D01*
X7815420Y-14475984D02*
X7834468Y-14485508D01*
X7834468Y-14485508D02*
X7843991Y-14495031D01*
X7843991Y-14495031D02*
X7853515Y-14514079D01*
X7853515Y-14514079D02*
X7853515Y-14533127D01*
X7853515Y-14533127D02*
X7843991Y-14561698D01*
X7843991Y-14561698D02*
X7729706Y-14675984D01*
X7729706Y-14675984D02*
X7853515Y-14675984D01*
X8091610Y-14675984D02*
X8091610Y-14475984D01*
X8177325Y-14675984D02*
X8177325Y-14571222D01*
X8177325Y-14571222D02*
X8167801Y-14552174D01*
X8167801Y-14552174D02*
X8148753Y-14542650D01*
X8148753Y-14542650D02*
X8120182Y-14542650D01*
X8120182Y-14542650D02*
X8101134Y-14552174D01*
X8101134Y-14552174D02*
X8091610Y-14561698D01*
X8301134Y-14675984D02*
X8282087Y-14666460D01*
X8282087Y-14666460D02*
X8272563Y-14656936D01*
X8272563Y-14656936D02*
X8263039Y-14637888D01*
X8263039Y-14637888D02*
X8263039Y-14580746D01*
X8263039Y-14580746D02*
X8272563Y-14561698D01*
X8272563Y-14561698D02*
X8282087Y-14552174D01*
X8282087Y-14552174D02*
X8301134Y-14542650D01*
X8301134Y-14542650D02*
X8329706Y-14542650D01*
X8329706Y-14542650D02*
X8348753Y-14552174D01*
X8348753Y-14552174D02*
X8358277Y-14561698D01*
X8358277Y-14561698D02*
X8367801Y-14580746D01*
X8367801Y-14580746D02*
X8367801Y-14637888D01*
X8367801Y-14637888D02*
X8358277Y-14656936D01*
X8358277Y-14656936D02*
X8348753Y-14666460D01*
X8348753Y-14666460D02*
X8329706Y-14675984D01*
X8329706Y-14675984D02*
X8301134Y-14675984D01*
X8482087Y-14675984D02*
X8463039Y-14666460D01*
X8463039Y-14666460D02*
X8453515Y-14647412D01*
X8453515Y-14647412D02*
X8453515Y-14475984D01*
X8634468Y-14666460D02*
X8615420Y-14675984D01*
X8615420Y-14675984D02*
X8577325Y-14675984D01*
X8577325Y-14675984D02*
X8558277Y-14666460D01*
X8558277Y-14666460D02*
X8548753Y-14647412D01*
X8548753Y-14647412D02*
X8548753Y-14571222D01*
X8548753Y-14571222D02*
X8558277Y-14552174D01*
X8558277Y-14552174D02*
X8577325Y-14542650D01*
X8577325Y-14542650D02*
X8615420Y-14542650D01*
X8615420Y-14542650D02*
X8634468Y-14552174D01*
X8634468Y-14552174D02*
X8643992Y-14571222D01*
X8643992Y-14571222D02*
X8643992Y-14590269D01*
X8643992Y-14590269D02*
X8548753Y-14609317D01*
X8720182Y-14666460D02*
X8739230Y-14675984D01*
X8739230Y-14675984D02*
X8777325Y-14675984D01*
X8777325Y-14675984D02*
X8796373Y-14666460D01*
X8796373Y-14666460D02*
X8805896Y-14647412D01*
X8805896Y-14647412D02*
X8805896Y-14637888D01*
X8805896Y-14637888D02*
X8796373Y-14618841D01*
X8796373Y-14618841D02*
X8777325Y-14609317D01*
X8777325Y-14609317D02*
X8748753Y-14609317D01*
X8748753Y-14609317D02*
X8729706Y-14599793D01*
X8729706Y-14599793D02*
X8720182Y-14580746D01*
X8720182Y-14580746D02*
X8720182Y-14571222D01*
X8720182Y-14571222D02*
X8729706Y-14552174D01*
X8729706Y-14552174D02*
X8748753Y-14542650D01*
X8748753Y-14542650D02*
X8777325Y-14542650D01*
X8777325Y-14542650D02*
X8796373Y-14552174D01*
X8872563Y-14752174D02*
X8882087Y-14742650D01*
X8882087Y-14742650D02*
X8901134Y-14714079D01*
X8901134Y-14714079D02*
X8910658Y-14695031D01*
X8910658Y-14695031D02*
X8920182Y-14666460D01*
X8920182Y-14666460D02*
X8929706Y-14618841D01*
X8929706Y-14618841D02*
X8929706Y-14580746D01*
X8929706Y-14580746D02*
X8920182Y-14533127D01*
X8920182Y-14533127D02*
X8910658Y-14504555D01*
X8910658Y-14504555D02*
X8901134Y-14485508D01*
X8901134Y-14485508D02*
X8882087Y-14456936D01*
X8882087Y-14456936D02*
X8872563Y-14447412D01*
D12*
X4047500Y-14898500D02*
X4097500Y-14848500D01*
X4047500Y-14798500D01*
X3997500Y-14848500D01*
X4047500Y-14898500D01*
D11*
X4463039Y-14939984D02*
X4348753Y-14939984D01*
X4405896Y-14939984D02*
X4405896Y-14739984D01*
X4405896Y-14739984D02*
X4386848Y-14768555D01*
X4386848Y-14768555D02*
X4367801Y-14787603D01*
X4367801Y-14787603D02*
X4348753Y-14797127D01*
X4548753Y-14920936D02*
X4558277Y-14930460D01*
X4558277Y-14930460D02*
X4548753Y-14939984D01*
X4548753Y-14939984D02*
X4539229Y-14930460D01*
X4539229Y-14930460D02*
X4548753Y-14920936D01*
X4548753Y-14920936D02*
X4548753Y-14939984D01*
X4682086Y-14739984D02*
X4701134Y-14739984D01*
X4701134Y-14739984D02*
X4720182Y-14749508D01*
X4720182Y-14749508D02*
X4729705Y-14759031D01*
X4729705Y-14759031D02*
X4739229Y-14778079D01*
X4739229Y-14778079D02*
X4748753Y-14816174D01*
X4748753Y-14816174D02*
X4748753Y-14863793D01*
X4748753Y-14863793D02*
X4739229Y-14901888D01*
X4739229Y-14901888D02*
X4729705Y-14920936D01*
X4729705Y-14920936D02*
X4720182Y-14930460D01*
X4720182Y-14930460D02*
X4701134Y-14939984D01*
X4701134Y-14939984D02*
X4682086Y-14939984D01*
X4682086Y-14939984D02*
X4663039Y-14930460D01*
X4663039Y-14930460D02*
X4653515Y-14920936D01*
X4653515Y-14920936D02*
X4643991Y-14901888D01*
X4643991Y-14901888D02*
X4634467Y-14863793D01*
X4634467Y-14863793D02*
X4634467Y-14816174D01*
X4634467Y-14816174D02*
X4643991Y-14778079D01*
X4643991Y-14778079D02*
X4653515Y-14759031D01*
X4653515Y-14759031D02*
X4663039Y-14749508D01*
X4663039Y-14749508D02*
X4682086Y-14739984D01*
X4872563Y-14739984D02*
X4891610Y-14739984D01*
X4891610Y-14739984D02*
X4910658Y-14749508D01*
X4910658Y-14749508D02*
X4920182Y-14759031D01*
X4920182Y-14759031D02*
X4929705Y-14778079D01*
X4929705Y-14778079D02*
X4939229Y-14816174D01*
X4939229Y-14816174D02*
X4939229Y-14863793D01*
X4939229Y-14863793D02*
X4929705Y-14901888D01*
X4929705Y-14901888D02*
X4920182Y-14920936D01*
X4920182Y-14920936D02*
X4910658Y-14930460D01*
X4910658Y-14930460D02*
X4891610Y-14939984D01*
X4891610Y-14939984D02*
X4872563Y-14939984D01*
X4872563Y-14939984D02*
X4853515Y-14930460D01*
X4853515Y-14930460D02*
X4843991Y-14920936D01*
X4843991Y-14920936D02*
X4834467Y-14901888D01*
X4834467Y-14901888D02*
X4824944Y-14863793D01*
X4824944Y-14863793D02*
X4824944Y-14816174D01*
X4824944Y-14816174D02*
X4834467Y-14778079D01*
X4834467Y-14778079D02*
X4843991Y-14759031D01*
X4843991Y-14759031D02*
X4853515Y-14749508D01*
X4853515Y-14749508D02*
X4872563Y-14739984D01*
X5063039Y-14739984D02*
X5082086Y-14739984D01*
X5082086Y-14739984D02*
X5101134Y-14749508D01*
X5101134Y-14749508D02*
X5110658Y-14759031D01*
X5110658Y-14759031D02*
X5120182Y-14778079D01*
X5120182Y-14778079D02*
X5129705Y-14816174D01*
X5129705Y-14816174D02*
X5129705Y-14863793D01*
X5129705Y-14863793D02*
X5120182Y-14901888D01*
X5120182Y-14901888D02*
X5110658Y-14920936D01*
X5110658Y-14920936D02*
X5101134Y-14930460D01*
X5101134Y-14930460D02*
X5082086Y-14939984D01*
X5082086Y-14939984D02*
X5063039Y-14939984D01*
X5063039Y-14939984D02*
X5043991Y-14930460D01*
X5043991Y-14930460D02*
X5034467Y-14920936D01*
X5034467Y-14920936D02*
X5024944Y-14901888D01*
X5024944Y-14901888D02*
X5015420Y-14863793D01*
X5015420Y-14863793D02*
X5015420Y-14816174D01*
X5015420Y-14816174D02*
X5024944Y-14778079D01*
X5024944Y-14778079D02*
X5034467Y-14759031D01*
X5034467Y-14759031D02*
X5043991Y-14749508D01*
X5043991Y-14749508D02*
X5063039Y-14739984D01*
X5215420Y-14939984D02*
X5215420Y-14806650D01*
X5215420Y-14825698D02*
X5224944Y-14816174D01*
X5224944Y-14816174D02*
X5243991Y-14806650D01*
X5243991Y-14806650D02*
X5272563Y-14806650D01*
X5272563Y-14806650D02*
X5291610Y-14816174D01*
X5291610Y-14816174D02*
X5301134Y-14835222D01*
X5301134Y-14835222D02*
X5301134Y-14939984D01*
X5301134Y-14835222D02*
X5310658Y-14816174D01*
X5310658Y-14816174D02*
X5329705Y-14806650D01*
X5329705Y-14806650D02*
X5358277Y-14806650D01*
X5358277Y-14806650D02*
X5377325Y-14816174D01*
X5377325Y-14816174D02*
X5386848Y-14835222D01*
X5386848Y-14835222D02*
X5386848Y-14939984D01*
X5482086Y-14939984D02*
X5482086Y-14806650D01*
X5482086Y-14825698D02*
X5491610Y-14816174D01*
X5491610Y-14816174D02*
X5510658Y-14806650D01*
X5510658Y-14806650D02*
X5539229Y-14806650D01*
X5539229Y-14806650D02*
X5558277Y-14816174D01*
X5558277Y-14816174D02*
X5567801Y-14835222D01*
X5567801Y-14835222D02*
X5567801Y-14939984D01*
X5567801Y-14835222D02*
X5577325Y-14816174D01*
X5577325Y-14816174D02*
X5596372Y-14806650D01*
X5596372Y-14806650D02*
X5624943Y-14806650D01*
X5624943Y-14806650D02*
X5643991Y-14816174D01*
X5643991Y-14816174D02*
X5653515Y-14835222D01*
X5653515Y-14835222D02*
X5653515Y-14939984D01*
X6043991Y-14730460D02*
X5872563Y-14987603D01*
X6301134Y-14739984D02*
X6320182Y-14739984D01*
X6320182Y-14739984D02*
X6339229Y-14749508D01*
X6339229Y-14749508D02*
X6348753Y-14759031D01*
X6348753Y-14759031D02*
X6358277Y-14778079D01*
X6358277Y-14778079D02*
X6367801Y-14816174D01*
X6367801Y-14816174D02*
X6367801Y-14863793D01*
X6367801Y-14863793D02*
X6358277Y-14901888D01*
X6358277Y-14901888D02*
X6348753Y-14920936D01*
X6348753Y-14920936D02*
X6339229Y-14930460D01*
X6339229Y-14930460D02*
X6320182Y-14939984D01*
X6320182Y-14939984D02*
X6301134Y-14939984D01*
X6301134Y-14939984D02*
X6282086Y-14930460D01*
X6282086Y-14930460D02*
X6272563Y-14920936D01*
X6272563Y-14920936D02*
X6263039Y-14901888D01*
X6263039Y-14901888D02*
X6253515Y-14863793D01*
X6253515Y-14863793D02*
X6253515Y-14816174D01*
X6253515Y-14816174D02*
X6263039Y-14778079D01*
X6263039Y-14778079D02*
X6272563Y-14759031D01*
X6272563Y-14759031D02*
X6282086Y-14749508D01*
X6282086Y-14749508D02*
X6301134Y-14739984D01*
X6453515Y-14920936D02*
X6463039Y-14930460D01*
X6463039Y-14930460D02*
X6453515Y-14939984D01*
X6453515Y-14939984D02*
X6443991Y-14930460D01*
X6443991Y-14930460D02*
X6453515Y-14920936D01*
X6453515Y-14920936D02*
X6453515Y-14939984D01*
X6586848Y-14739984D02*
X6605896Y-14739984D01*
X6605896Y-14739984D02*
X6624944Y-14749508D01*
X6624944Y-14749508D02*
X6634467Y-14759031D01*
X6634467Y-14759031D02*
X6643991Y-14778079D01*
X6643991Y-14778079D02*
X6653515Y-14816174D01*
X6653515Y-14816174D02*
X6653515Y-14863793D01*
X6653515Y-14863793D02*
X6643991Y-14901888D01*
X6643991Y-14901888D02*
X6634467Y-14920936D01*
X6634467Y-14920936D02*
X6624944Y-14930460D01*
X6624944Y-14930460D02*
X6605896Y-14939984D01*
X6605896Y-14939984D02*
X6586848Y-14939984D01*
X6586848Y-14939984D02*
X6567801Y-14930460D01*
X6567801Y-14930460D02*
X6558277Y-14920936D01*
X6558277Y-14920936D02*
X6548753Y-14901888D01*
X6548753Y-14901888D02*
X6539229Y-14863793D01*
X6539229Y-14863793D02*
X6539229Y-14816174D01*
X6539229Y-14816174D02*
X6548753Y-14778079D01*
X6548753Y-14778079D02*
X6558277Y-14759031D01*
X6558277Y-14759031D02*
X6567801Y-14749508D01*
X6567801Y-14749508D02*
X6586848Y-14739984D01*
X6720182Y-14739984D02*
X6843991Y-14739984D01*
X6843991Y-14739984D02*
X6777325Y-14816174D01*
X6777325Y-14816174D02*
X6805896Y-14816174D01*
X6805896Y-14816174D02*
X6824944Y-14825698D01*
X6824944Y-14825698D02*
X6834467Y-14835222D01*
X6834467Y-14835222D02*
X6843991Y-14854269D01*
X6843991Y-14854269D02*
X6843991Y-14901888D01*
X6843991Y-14901888D02*
X6834467Y-14920936D01*
X6834467Y-14920936D02*
X6824944Y-14930460D01*
X6824944Y-14930460D02*
X6805896Y-14939984D01*
X6805896Y-14939984D02*
X6748753Y-14939984D01*
X6748753Y-14939984D02*
X6729706Y-14930460D01*
X6729706Y-14930460D02*
X6720182Y-14920936D01*
X6939229Y-14939984D02*
X6977325Y-14939984D01*
X6977325Y-14939984D02*
X6996372Y-14930460D01*
X6996372Y-14930460D02*
X7005896Y-14920936D01*
X7005896Y-14920936D02*
X7024944Y-14892365D01*
X7024944Y-14892365D02*
X7034467Y-14854269D01*
X7034467Y-14854269D02*
X7034467Y-14778079D01*
X7034467Y-14778079D02*
X7024944Y-14759031D01*
X7024944Y-14759031D02*
X7015420Y-14749508D01*
X7015420Y-14749508D02*
X6996372Y-14739984D01*
X6996372Y-14739984D02*
X6958277Y-14739984D01*
X6958277Y-14739984D02*
X6939229Y-14749508D01*
X6939229Y-14749508D02*
X6929706Y-14759031D01*
X6929706Y-14759031D02*
X6920182Y-14778079D01*
X6920182Y-14778079D02*
X6920182Y-14825698D01*
X6920182Y-14825698D02*
X6929706Y-14844746D01*
X6929706Y-14844746D02*
X6939229Y-14854269D01*
X6939229Y-14854269D02*
X6958277Y-14863793D01*
X6958277Y-14863793D02*
X6996372Y-14863793D01*
X6996372Y-14863793D02*
X7015420Y-14854269D01*
X7015420Y-14854269D02*
X7024944Y-14844746D01*
X7024944Y-14844746D02*
X7034467Y-14825698D01*
X7205896Y-14806650D02*
X7205896Y-14939984D01*
X7158277Y-14730460D02*
X7110658Y-14873317D01*
X7110658Y-14873317D02*
X7234467Y-14873317D01*
X7301134Y-14739984D02*
X7301134Y-14778079D01*
X7377325Y-14739984D02*
X7377325Y-14778079D01*
X7672563Y-15016174D02*
X7663039Y-15006650D01*
X7663039Y-15006650D02*
X7643991Y-14978079D01*
X7643991Y-14978079D02*
X7634468Y-14959031D01*
X7634468Y-14959031D02*
X7624944Y-14930460D01*
X7624944Y-14930460D02*
X7615420Y-14882841D01*
X7615420Y-14882841D02*
X7615420Y-14844746D01*
X7615420Y-14844746D02*
X7624944Y-14797127D01*
X7624944Y-14797127D02*
X7634468Y-14768555D01*
X7634468Y-14768555D02*
X7643991Y-14749508D01*
X7643991Y-14749508D02*
X7663039Y-14720936D01*
X7663039Y-14720936D02*
X7672563Y-14711412D01*
X7758277Y-14939984D02*
X7796372Y-14939984D01*
X7796372Y-14939984D02*
X7815420Y-14930460D01*
X7815420Y-14930460D02*
X7824944Y-14920936D01*
X7824944Y-14920936D02*
X7843991Y-14892365D01*
X7843991Y-14892365D02*
X7853515Y-14854269D01*
X7853515Y-14854269D02*
X7853515Y-14778079D01*
X7853515Y-14778079D02*
X7843991Y-14759031D01*
X7843991Y-14759031D02*
X7834468Y-14749508D01*
X7834468Y-14749508D02*
X7815420Y-14739984D01*
X7815420Y-14739984D02*
X7777325Y-14739984D01*
X7777325Y-14739984D02*
X7758277Y-14749508D01*
X7758277Y-14749508D02*
X7748753Y-14759031D01*
X7748753Y-14759031D02*
X7739229Y-14778079D01*
X7739229Y-14778079D02*
X7739229Y-14825698D01*
X7739229Y-14825698D02*
X7748753Y-14844746D01*
X7748753Y-14844746D02*
X7758277Y-14854269D01*
X7758277Y-14854269D02*
X7777325Y-14863793D01*
X7777325Y-14863793D02*
X7815420Y-14863793D01*
X7815420Y-14863793D02*
X7834468Y-14854269D01*
X7834468Y-14854269D02*
X7843991Y-14844746D01*
X7843991Y-14844746D02*
X7853515Y-14825698D01*
X8091610Y-14939984D02*
X8091610Y-14739984D01*
X8177325Y-14939984D02*
X8177325Y-14835222D01*
X8177325Y-14835222D02*
X8167801Y-14816174D01*
X8167801Y-14816174D02*
X8148753Y-14806650D01*
X8148753Y-14806650D02*
X8120182Y-14806650D01*
X8120182Y-14806650D02*
X8101134Y-14816174D01*
X8101134Y-14816174D02*
X8091610Y-14825698D01*
X8301134Y-14939984D02*
X8282087Y-14930460D01*
X8282087Y-14930460D02*
X8272563Y-14920936D01*
X8272563Y-14920936D02*
X8263039Y-14901888D01*
X8263039Y-14901888D02*
X8263039Y-14844746D01*
X8263039Y-14844746D02*
X8272563Y-14825698D01*
X8272563Y-14825698D02*
X8282087Y-14816174D01*
X8282087Y-14816174D02*
X8301134Y-14806650D01*
X8301134Y-14806650D02*
X8329706Y-14806650D01*
X8329706Y-14806650D02*
X8348753Y-14816174D01*
X8348753Y-14816174D02*
X8358277Y-14825698D01*
X8358277Y-14825698D02*
X8367801Y-14844746D01*
X8367801Y-14844746D02*
X8367801Y-14901888D01*
X8367801Y-14901888D02*
X8358277Y-14920936D01*
X8358277Y-14920936D02*
X8348753Y-14930460D01*
X8348753Y-14930460D02*
X8329706Y-14939984D01*
X8329706Y-14939984D02*
X8301134Y-14939984D01*
X8482087Y-14939984D02*
X8463039Y-14930460D01*
X8463039Y-14930460D02*
X8453515Y-14911412D01*
X8453515Y-14911412D02*
X8453515Y-14739984D01*
X8634468Y-14930460D02*
X8615420Y-14939984D01*
X8615420Y-14939984D02*
X8577325Y-14939984D01*
X8577325Y-14939984D02*
X8558277Y-14930460D01*
X8558277Y-14930460D02*
X8548753Y-14911412D01*
X8548753Y-14911412D02*
X8548753Y-14835222D01*
X8548753Y-14835222D02*
X8558277Y-14816174D01*
X8558277Y-14816174D02*
X8577325Y-14806650D01*
X8577325Y-14806650D02*
X8615420Y-14806650D01*
X8615420Y-14806650D02*
X8634468Y-14816174D01*
X8634468Y-14816174D02*
X8643992Y-14835222D01*
X8643992Y-14835222D02*
X8643992Y-14854269D01*
X8643992Y-14854269D02*
X8548753Y-14873317D01*
X8720182Y-14930460D02*
X8739230Y-14939984D01*
X8739230Y-14939984D02*
X8777325Y-14939984D01*
X8777325Y-14939984D02*
X8796373Y-14930460D01*
X8796373Y-14930460D02*
X8805896Y-14911412D01*
X8805896Y-14911412D02*
X8805896Y-14901888D01*
X8805896Y-14901888D02*
X8796373Y-14882841D01*
X8796373Y-14882841D02*
X8777325Y-14873317D01*
X8777325Y-14873317D02*
X8748753Y-14873317D01*
X8748753Y-14873317D02*
X8729706Y-14863793D01*
X8729706Y-14863793D02*
X8720182Y-14844746D01*
X8720182Y-14844746D02*
X8720182Y-14835222D01*
X8720182Y-14835222D02*
X8729706Y-14816174D01*
X8729706Y-14816174D02*
X8748753Y-14806650D01*
X8748753Y-14806650D02*
X8777325Y-14806650D01*
X8777325Y-14806650D02*
X8796373Y-14816174D01*
X8872563Y-15016174D02*
X8882087Y-15006650D01*
X8882087Y-15006650D02*
X8901134Y-14978079D01*
X8901134Y-14978079D02*
X8910658Y-14959031D01*
X8910658Y-14959031D02*
X8920182Y-14930460D01*
X8920182Y-14930460D02*
X8929706Y-14882841D01*
X8929706Y-14882841D02*
X8929706Y-14844746D01*
X8929706Y-14844746D02*
X8920182Y-14797127D01*
X8920182Y-14797127D02*
X8910658Y-14768555D01*
X8910658Y-14768555D02*
X8901134Y-14749508D01*
X8901134Y-14749508D02*
X8882087Y-14720936D01*
X8882087Y-14720936D02*
X8872563Y-14711412D01*
D13*
X3987500Y-15057500D02*
X4097500Y-15167500D01*
X4097500Y-15057500D02*
X3987500Y-15167500D01*
X4097500Y-15112500D02*
G75*
G02*
X3987500Y-15112500I-55000J0D01*
G01*
X3987500Y-15112500D02*
G75*
G02*
X4097500Y-15112500I55000J0D01*
G01*
D11*
X4463039Y-15203984D02*
X4348753Y-15203984D01*
X4405896Y-15203984D02*
X4405896Y-15003984D01*
X4405896Y-15003984D02*
X4386848Y-15032555D01*
X4386848Y-15032555D02*
X4367801Y-15051603D01*
X4367801Y-15051603D02*
X4348753Y-15061127D01*
X4548753Y-15184936D02*
X4558277Y-15194460D01*
X4558277Y-15194460D02*
X4548753Y-15203984D01*
X4548753Y-15203984D02*
X4539229Y-15194460D01*
X4539229Y-15194460D02*
X4548753Y-15184936D01*
X4548753Y-15184936D02*
X4548753Y-15203984D01*
X4748753Y-15203984D02*
X4634467Y-15203984D01*
X4691610Y-15203984D02*
X4691610Y-15003984D01*
X4691610Y-15003984D02*
X4672563Y-15032555D01*
X4672563Y-15032555D02*
X4653515Y-15051603D01*
X4653515Y-15051603D02*
X4634467Y-15061127D01*
X4872563Y-15003984D02*
X4891610Y-15003984D01*
X4891610Y-15003984D02*
X4910658Y-15013508D01*
X4910658Y-15013508D02*
X4920182Y-15023031D01*
X4920182Y-15023031D02*
X4929705Y-15042079D01*
X4929705Y-15042079D02*
X4939229Y-15080174D01*
X4939229Y-15080174D02*
X4939229Y-15127793D01*
X4939229Y-15127793D02*
X4929705Y-15165888D01*
X4929705Y-15165888D02*
X4920182Y-15184936D01*
X4920182Y-15184936D02*
X4910658Y-15194460D01*
X4910658Y-15194460D02*
X4891610Y-15203984D01*
X4891610Y-15203984D02*
X4872563Y-15203984D01*
X4872563Y-15203984D02*
X4853515Y-15194460D01*
X4853515Y-15194460D02*
X4843991Y-15184936D01*
X4843991Y-15184936D02*
X4834467Y-15165888D01*
X4834467Y-15165888D02*
X4824944Y-15127793D01*
X4824944Y-15127793D02*
X4824944Y-15080174D01*
X4824944Y-15080174D02*
X4834467Y-15042079D01*
X4834467Y-15042079D02*
X4843991Y-15023031D01*
X4843991Y-15023031D02*
X4853515Y-15013508D01*
X4853515Y-15013508D02*
X4872563Y-15003984D01*
X5063039Y-15003984D02*
X5082086Y-15003984D01*
X5082086Y-15003984D02*
X5101134Y-15013508D01*
X5101134Y-15013508D02*
X5110658Y-15023031D01*
X5110658Y-15023031D02*
X5120182Y-15042079D01*
X5120182Y-15042079D02*
X5129705Y-15080174D01*
X5129705Y-15080174D02*
X5129705Y-15127793D01*
X5129705Y-15127793D02*
X5120182Y-15165888D01*
X5120182Y-15165888D02*
X5110658Y-15184936D01*
X5110658Y-15184936D02*
X5101134Y-15194460D01*
X5101134Y-15194460D02*
X5082086Y-15203984D01*
X5082086Y-15203984D02*
X5063039Y-15203984D01*
X5063039Y-15203984D02*
X5043991Y-15194460D01*
X5043991Y-15194460D02*
X5034467Y-15184936D01*
X5034467Y-15184936D02*
X5024944Y-15165888D01*
X5024944Y-15165888D02*
X5015420Y-15127793D01*
X5015420Y-15127793D02*
X5015420Y-15080174D01*
X5015420Y-15080174D02*
X5024944Y-15042079D01*
X5024944Y-15042079D02*
X5034467Y-15023031D01*
X5034467Y-15023031D02*
X5043991Y-15013508D01*
X5043991Y-15013508D02*
X5063039Y-15003984D01*
X5215420Y-15203984D02*
X5215420Y-15070650D01*
X5215420Y-15089698D02*
X5224944Y-15080174D01*
X5224944Y-15080174D02*
X5243991Y-15070650D01*
X5243991Y-15070650D02*
X5272563Y-15070650D01*
X5272563Y-15070650D02*
X5291610Y-15080174D01*
X5291610Y-15080174D02*
X5301134Y-15099222D01*
X5301134Y-15099222D02*
X5301134Y-15203984D01*
X5301134Y-15099222D02*
X5310658Y-15080174D01*
X5310658Y-15080174D02*
X5329705Y-15070650D01*
X5329705Y-15070650D02*
X5358277Y-15070650D01*
X5358277Y-15070650D02*
X5377325Y-15080174D01*
X5377325Y-15080174D02*
X5386848Y-15099222D01*
X5386848Y-15099222D02*
X5386848Y-15203984D01*
X5482086Y-15203984D02*
X5482086Y-15070650D01*
X5482086Y-15089698D02*
X5491610Y-15080174D01*
X5491610Y-15080174D02*
X5510658Y-15070650D01*
X5510658Y-15070650D02*
X5539229Y-15070650D01*
X5539229Y-15070650D02*
X5558277Y-15080174D01*
X5558277Y-15080174D02*
X5567801Y-15099222D01*
X5567801Y-15099222D02*
X5567801Y-15203984D01*
X5567801Y-15099222D02*
X5577325Y-15080174D01*
X5577325Y-15080174D02*
X5596372Y-15070650D01*
X5596372Y-15070650D02*
X5624943Y-15070650D01*
X5624943Y-15070650D02*
X5643991Y-15080174D01*
X5643991Y-15080174D02*
X5653515Y-15099222D01*
X5653515Y-15099222D02*
X5653515Y-15203984D01*
X6043991Y-14994460D02*
X5872563Y-15251603D01*
X6301134Y-15003984D02*
X6320182Y-15003984D01*
X6320182Y-15003984D02*
X6339229Y-15013508D01*
X6339229Y-15013508D02*
X6348753Y-15023031D01*
X6348753Y-15023031D02*
X6358277Y-15042079D01*
X6358277Y-15042079D02*
X6367801Y-15080174D01*
X6367801Y-15080174D02*
X6367801Y-15127793D01*
X6367801Y-15127793D02*
X6358277Y-15165888D01*
X6358277Y-15165888D02*
X6348753Y-15184936D01*
X6348753Y-15184936D02*
X6339229Y-15194460D01*
X6339229Y-15194460D02*
X6320182Y-15203984D01*
X6320182Y-15203984D02*
X6301134Y-15203984D01*
X6301134Y-15203984D02*
X6282086Y-15194460D01*
X6282086Y-15194460D02*
X6272563Y-15184936D01*
X6272563Y-15184936D02*
X6263039Y-15165888D01*
X6263039Y-15165888D02*
X6253515Y-15127793D01*
X6253515Y-15127793D02*
X6253515Y-15080174D01*
X6253515Y-15080174D02*
X6263039Y-15042079D01*
X6263039Y-15042079D02*
X6272563Y-15023031D01*
X6272563Y-15023031D02*
X6282086Y-15013508D01*
X6282086Y-15013508D02*
X6301134Y-15003984D01*
X6453515Y-15184936D02*
X6463039Y-15194460D01*
X6463039Y-15194460D02*
X6453515Y-15203984D01*
X6453515Y-15203984D02*
X6443991Y-15194460D01*
X6443991Y-15194460D02*
X6453515Y-15184936D01*
X6453515Y-15184936D02*
X6453515Y-15203984D01*
X6586848Y-15003984D02*
X6605896Y-15003984D01*
X6605896Y-15003984D02*
X6624944Y-15013508D01*
X6624944Y-15013508D02*
X6634467Y-15023031D01*
X6634467Y-15023031D02*
X6643991Y-15042079D01*
X6643991Y-15042079D02*
X6653515Y-15080174D01*
X6653515Y-15080174D02*
X6653515Y-15127793D01*
X6653515Y-15127793D02*
X6643991Y-15165888D01*
X6643991Y-15165888D02*
X6634467Y-15184936D01*
X6634467Y-15184936D02*
X6624944Y-15194460D01*
X6624944Y-15194460D02*
X6605896Y-15203984D01*
X6605896Y-15203984D02*
X6586848Y-15203984D01*
X6586848Y-15203984D02*
X6567801Y-15194460D01*
X6567801Y-15194460D02*
X6558277Y-15184936D01*
X6558277Y-15184936D02*
X6548753Y-15165888D01*
X6548753Y-15165888D02*
X6539229Y-15127793D01*
X6539229Y-15127793D02*
X6539229Y-15080174D01*
X6539229Y-15080174D02*
X6548753Y-15042079D01*
X6548753Y-15042079D02*
X6558277Y-15023031D01*
X6558277Y-15023031D02*
X6567801Y-15013508D01*
X6567801Y-15013508D02*
X6586848Y-15003984D01*
X6824944Y-15070650D02*
X6824944Y-15203984D01*
X6777325Y-14994460D02*
X6729706Y-15137317D01*
X6729706Y-15137317D02*
X6853515Y-15137317D01*
X6910658Y-15003984D02*
X7034467Y-15003984D01*
X7034467Y-15003984D02*
X6967801Y-15080174D01*
X6967801Y-15080174D02*
X6996372Y-15080174D01*
X6996372Y-15080174D02*
X7015420Y-15089698D01*
X7015420Y-15089698D02*
X7024944Y-15099222D01*
X7024944Y-15099222D02*
X7034467Y-15118269D01*
X7034467Y-15118269D02*
X7034467Y-15165888D01*
X7034467Y-15165888D02*
X7024944Y-15184936D01*
X7024944Y-15184936D02*
X7015420Y-15194460D01*
X7015420Y-15194460D02*
X6996372Y-15203984D01*
X6996372Y-15203984D02*
X6939229Y-15203984D01*
X6939229Y-15203984D02*
X6920182Y-15194460D01*
X6920182Y-15194460D02*
X6910658Y-15184936D01*
X7101134Y-15003984D02*
X7224944Y-15003984D01*
X7224944Y-15003984D02*
X7158277Y-15080174D01*
X7158277Y-15080174D02*
X7186848Y-15080174D01*
X7186848Y-15080174D02*
X7205896Y-15089698D01*
X7205896Y-15089698D02*
X7215420Y-15099222D01*
X7215420Y-15099222D02*
X7224944Y-15118269D01*
X7224944Y-15118269D02*
X7224944Y-15165888D01*
X7224944Y-15165888D02*
X7215420Y-15184936D01*
X7215420Y-15184936D02*
X7205896Y-15194460D01*
X7205896Y-15194460D02*
X7186848Y-15203984D01*
X7186848Y-15203984D02*
X7129706Y-15203984D01*
X7129706Y-15203984D02*
X7110658Y-15194460D01*
X7110658Y-15194460D02*
X7101134Y-15184936D01*
X7301134Y-15003984D02*
X7301134Y-15042079D01*
X7377325Y-15003984D02*
X7377325Y-15042079D01*
X7672563Y-15280174D02*
X7663039Y-15270650D01*
X7663039Y-15270650D02*
X7643991Y-15242079D01*
X7643991Y-15242079D02*
X7634468Y-15223031D01*
X7634468Y-15223031D02*
X7624944Y-15194460D01*
X7624944Y-15194460D02*
X7615420Y-15146841D01*
X7615420Y-15146841D02*
X7615420Y-15108746D01*
X7615420Y-15108746D02*
X7624944Y-15061127D01*
X7624944Y-15061127D02*
X7634468Y-15032555D01*
X7634468Y-15032555D02*
X7643991Y-15013508D01*
X7643991Y-15013508D02*
X7663039Y-14984936D01*
X7663039Y-14984936D02*
X7672563Y-14975412D01*
X7834468Y-15003984D02*
X7796372Y-15003984D01*
X7796372Y-15003984D02*
X7777325Y-15013508D01*
X7777325Y-15013508D02*
X7767801Y-15023031D01*
X7767801Y-15023031D02*
X7748753Y-15051603D01*
X7748753Y-15051603D02*
X7739229Y-15089698D01*
X7739229Y-15089698D02*
X7739229Y-15165888D01*
X7739229Y-15165888D02*
X7748753Y-15184936D01*
X7748753Y-15184936D02*
X7758277Y-15194460D01*
X7758277Y-15194460D02*
X7777325Y-15203984D01*
X7777325Y-15203984D02*
X7815420Y-15203984D01*
X7815420Y-15203984D02*
X7834468Y-15194460D01*
X7834468Y-15194460D02*
X7843991Y-15184936D01*
X7843991Y-15184936D02*
X7853515Y-15165888D01*
X7853515Y-15165888D02*
X7853515Y-15118269D01*
X7853515Y-15118269D02*
X7843991Y-15099222D01*
X7843991Y-15099222D02*
X7834468Y-15089698D01*
X7834468Y-15089698D02*
X7815420Y-15080174D01*
X7815420Y-15080174D02*
X7777325Y-15080174D01*
X7777325Y-15080174D02*
X7758277Y-15089698D01*
X7758277Y-15089698D02*
X7748753Y-15099222D01*
X7748753Y-15099222D02*
X7739229Y-15118269D01*
X8024944Y-15070650D02*
X8024944Y-15203984D01*
X7977325Y-14994460D02*
X7929706Y-15137317D01*
X7929706Y-15137317D02*
X8053515Y-15137317D01*
X8282087Y-15203984D02*
X8282087Y-15003984D01*
X8367801Y-15203984D02*
X8367801Y-15099222D01*
X8367801Y-15099222D02*
X8358277Y-15080174D01*
X8358277Y-15080174D02*
X8339230Y-15070650D01*
X8339230Y-15070650D02*
X8310658Y-15070650D01*
X8310658Y-15070650D02*
X8291610Y-15080174D01*
X8291610Y-15080174D02*
X8282087Y-15089698D01*
X8491611Y-15203984D02*
X8472563Y-15194460D01*
X8472563Y-15194460D02*
X8463039Y-15184936D01*
X8463039Y-15184936D02*
X8453515Y-15165888D01*
X8453515Y-15165888D02*
X8453515Y-15108746D01*
X8453515Y-15108746D02*
X8463039Y-15089698D01*
X8463039Y-15089698D02*
X8472563Y-15080174D01*
X8472563Y-15080174D02*
X8491611Y-15070650D01*
X8491611Y-15070650D02*
X8520182Y-15070650D01*
X8520182Y-15070650D02*
X8539230Y-15080174D01*
X8539230Y-15080174D02*
X8548753Y-15089698D01*
X8548753Y-15089698D02*
X8558277Y-15108746D01*
X8558277Y-15108746D02*
X8558277Y-15165888D01*
X8558277Y-15165888D02*
X8548753Y-15184936D01*
X8548753Y-15184936D02*
X8539230Y-15194460D01*
X8539230Y-15194460D02*
X8520182Y-15203984D01*
X8520182Y-15203984D02*
X8491611Y-15203984D01*
X8672563Y-15203984D02*
X8653515Y-15194460D01*
X8653515Y-15194460D02*
X8643992Y-15175412D01*
X8643992Y-15175412D02*
X8643992Y-15003984D01*
X8824944Y-15194460D02*
X8805896Y-15203984D01*
X8805896Y-15203984D02*
X8767801Y-15203984D01*
X8767801Y-15203984D02*
X8748753Y-15194460D01*
X8748753Y-15194460D02*
X8739230Y-15175412D01*
X8739230Y-15175412D02*
X8739230Y-15099222D01*
X8739230Y-15099222D02*
X8748753Y-15080174D01*
X8748753Y-15080174D02*
X8767801Y-15070650D01*
X8767801Y-15070650D02*
X8805896Y-15070650D01*
X8805896Y-15070650D02*
X8824944Y-15080174D01*
X8824944Y-15080174D02*
X8834468Y-15099222D01*
X8834468Y-15099222D02*
X8834468Y-15118269D01*
X8834468Y-15118269D02*
X8739230Y-15137317D01*
X8910658Y-15194460D02*
X8929706Y-15203984D01*
X8929706Y-15203984D02*
X8967801Y-15203984D01*
X8967801Y-15203984D02*
X8986849Y-15194460D01*
X8986849Y-15194460D02*
X8996373Y-15175412D01*
X8996373Y-15175412D02*
X8996373Y-15165888D01*
X8996373Y-15165888D02*
X8986849Y-15146841D01*
X8986849Y-15146841D02*
X8967801Y-15137317D01*
X8967801Y-15137317D02*
X8939230Y-15137317D01*
X8939230Y-15137317D02*
X8920182Y-15127793D01*
X8920182Y-15127793D02*
X8910658Y-15108746D01*
X8910658Y-15108746D02*
X8910658Y-15099222D01*
X8910658Y-15099222D02*
X8920182Y-15080174D01*
X8920182Y-15080174D02*
X8939230Y-15070650D01*
X8939230Y-15070650D02*
X8967801Y-15070650D01*
X8967801Y-15070650D02*
X8986849Y-15080174D01*
X9063039Y-15280174D02*
X9072563Y-15270650D01*
X9072563Y-15270650D02*
X9091611Y-15242079D01*
X9091611Y-15242079D02*
X9101134Y-15223031D01*
X9101134Y-15223031D02*
X9110658Y-15194460D01*
X9110658Y-15194460D02*
X9120182Y-15146841D01*
X9120182Y-15146841D02*
X9120182Y-15108746D01*
X9120182Y-15108746D02*
X9110658Y-15061127D01*
X9110658Y-15061127D02*
X9101134Y-15032555D01*
X9101134Y-15032555D02*
X9091611Y-15013508D01*
X9091611Y-15013508D02*
X9072563Y-14984936D01*
X9072563Y-14984936D02*
X9063039Y-14975412D01*
D14*
X3917500Y-15286500D02*
X4097500Y-15466500D01*
X4097500Y-15286500D02*
X3917500Y-15466500D01*
X4007500Y-15286500D02*
X4007500Y-15466500D01*
X3917500Y-15376500D02*
X4097500Y-15376500D01*
D11*
X4463039Y-15467984D02*
X4348753Y-15467984D01*
X4405896Y-15467984D02*
X4405896Y-15267984D01*
X4405896Y-15267984D02*
X4386848Y-15296555D01*
X4386848Y-15296555D02*
X4367801Y-15315603D01*
X4367801Y-15315603D02*
X4348753Y-15325127D01*
X4548753Y-15448936D02*
X4558277Y-15458460D01*
X4558277Y-15458460D02*
X4548753Y-15467984D01*
X4548753Y-15467984D02*
X4539229Y-15458460D01*
X4539229Y-15458460D02*
X4548753Y-15448936D01*
X4548753Y-15448936D02*
X4548753Y-15467984D01*
X4672563Y-15353698D02*
X4653515Y-15344174D01*
X4653515Y-15344174D02*
X4643991Y-15334650D01*
X4643991Y-15334650D02*
X4634467Y-15315603D01*
X4634467Y-15315603D02*
X4634467Y-15306079D01*
X4634467Y-15306079D02*
X4643991Y-15287031D01*
X4643991Y-15287031D02*
X4653515Y-15277508D01*
X4653515Y-15277508D02*
X4672563Y-15267984D01*
X4672563Y-15267984D02*
X4710658Y-15267984D01*
X4710658Y-15267984D02*
X4729705Y-15277508D01*
X4729705Y-15277508D02*
X4739229Y-15287031D01*
X4739229Y-15287031D02*
X4748753Y-15306079D01*
X4748753Y-15306079D02*
X4748753Y-15315603D01*
X4748753Y-15315603D02*
X4739229Y-15334650D01*
X4739229Y-15334650D02*
X4729705Y-15344174D01*
X4729705Y-15344174D02*
X4710658Y-15353698D01*
X4710658Y-15353698D02*
X4672563Y-15353698D01*
X4672563Y-15353698D02*
X4653515Y-15363222D01*
X4653515Y-15363222D02*
X4643991Y-15372746D01*
X4643991Y-15372746D02*
X4634467Y-15391793D01*
X4634467Y-15391793D02*
X4634467Y-15429888D01*
X4634467Y-15429888D02*
X4643991Y-15448936D01*
X4643991Y-15448936D02*
X4653515Y-15458460D01*
X4653515Y-15458460D02*
X4672563Y-15467984D01*
X4672563Y-15467984D02*
X4710658Y-15467984D01*
X4710658Y-15467984D02*
X4729705Y-15458460D01*
X4729705Y-15458460D02*
X4739229Y-15448936D01*
X4739229Y-15448936D02*
X4748753Y-15429888D01*
X4748753Y-15429888D02*
X4748753Y-15391793D01*
X4748753Y-15391793D02*
X4739229Y-15372746D01*
X4739229Y-15372746D02*
X4729705Y-15363222D01*
X4729705Y-15363222D02*
X4710658Y-15353698D01*
X4872563Y-15267984D02*
X4891610Y-15267984D01*
X4891610Y-15267984D02*
X4910658Y-15277508D01*
X4910658Y-15277508D02*
X4920182Y-15287031D01*
X4920182Y-15287031D02*
X4929705Y-15306079D01*
X4929705Y-15306079D02*
X4939229Y-15344174D01*
X4939229Y-15344174D02*
X4939229Y-15391793D01*
X4939229Y-15391793D02*
X4929705Y-15429888D01*
X4929705Y-15429888D02*
X4920182Y-15448936D01*
X4920182Y-15448936D02*
X4910658Y-15458460D01*
X4910658Y-15458460D02*
X4891610Y-15467984D01*
X4891610Y-15467984D02*
X4872563Y-15467984D01*
X4872563Y-15467984D02*
X4853515Y-15458460D01*
X4853515Y-15458460D02*
X4843991Y-15448936D01*
X4843991Y-15448936D02*
X4834467Y-15429888D01*
X4834467Y-15429888D02*
X4824944Y-15391793D01*
X4824944Y-15391793D02*
X4824944Y-15344174D01*
X4824944Y-15344174D02*
X4834467Y-15306079D01*
X4834467Y-15306079D02*
X4843991Y-15287031D01*
X4843991Y-15287031D02*
X4853515Y-15277508D01*
X4853515Y-15277508D02*
X4872563Y-15267984D01*
X5063039Y-15267984D02*
X5082086Y-15267984D01*
X5082086Y-15267984D02*
X5101134Y-15277508D01*
X5101134Y-15277508D02*
X5110658Y-15287031D01*
X5110658Y-15287031D02*
X5120182Y-15306079D01*
X5120182Y-15306079D02*
X5129705Y-15344174D01*
X5129705Y-15344174D02*
X5129705Y-15391793D01*
X5129705Y-15391793D02*
X5120182Y-15429888D01*
X5120182Y-15429888D02*
X5110658Y-15448936D01*
X5110658Y-15448936D02*
X5101134Y-15458460D01*
X5101134Y-15458460D02*
X5082086Y-15467984D01*
X5082086Y-15467984D02*
X5063039Y-15467984D01*
X5063039Y-15467984D02*
X5043991Y-15458460D01*
X5043991Y-15458460D02*
X5034467Y-15448936D01*
X5034467Y-15448936D02*
X5024944Y-15429888D01*
X5024944Y-15429888D02*
X5015420Y-15391793D01*
X5015420Y-15391793D02*
X5015420Y-15344174D01*
X5015420Y-15344174D02*
X5024944Y-15306079D01*
X5024944Y-15306079D02*
X5034467Y-15287031D01*
X5034467Y-15287031D02*
X5043991Y-15277508D01*
X5043991Y-15277508D02*
X5063039Y-15267984D01*
X5215420Y-15467984D02*
X5215420Y-15334650D01*
X5215420Y-15353698D02*
X5224944Y-15344174D01*
X5224944Y-15344174D02*
X5243991Y-15334650D01*
X5243991Y-15334650D02*
X5272563Y-15334650D01*
X5272563Y-15334650D02*
X5291610Y-15344174D01*
X5291610Y-15344174D02*
X5301134Y-15363222D01*
X5301134Y-15363222D02*
X5301134Y-15467984D01*
X5301134Y-15363222D02*
X5310658Y-15344174D01*
X5310658Y-15344174D02*
X5329705Y-15334650D01*
X5329705Y-15334650D02*
X5358277Y-15334650D01*
X5358277Y-15334650D02*
X5377325Y-15344174D01*
X5377325Y-15344174D02*
X5386848Y-15363222D01*
X5386848Y-15363222D02*
X5386848Y-15467984D01*
X5482086Y-15467984D02*
X5482086Y-15334650D01*
X5482086Y-15353698D02*
X5491610Y-15344174D01*
X5491610Y-15344174D02*
X5510658Y-15334650D01*
X5510658Y-15334650D02*
X5539229Y-15334650D01*
X5539229Y-15334650D02*
X5558277Y-15344174D01*
X5558277Y-15344174D02*
X5567801Y-15363222D01*
X5567801Y-15363222D02*
X5567801Y-15467984D01*
X5567801Y-15363222D02*
X5577325Y-15344174D01*
X5577325Y-15344174D02*
X5596372Y-15334650D01*
X5596372Y-15334650D02*
X5624943Y-15334650D01*
X5624943Y-15334650D02*
X5643991Y-15344174D01*
X5643991Y-15344174D02*
X5653515Y-15363222D01*
X5653515Y-15363222D02*
X5653515Y-15467984D01*
X6043991Y-15258460D02*
X5872563Y-15515603D01*
X6301134Y-15267984D02*
X6320182Y-15267984D01*
X6320182Y-15267984D02*
X6339229Y-15277508D01*
X6339229Y-15277508D02*
X6348753Y-15287031D01*
X6348753Y-15287031D02*
X6358277Y-15306079D01*
X6358277Y-15306079D02*
X6367801Y-15344174D01*
X6367801Y-15344174D02*
X6367801Y-15391793D01*
X6367801Y-15391793D02*
X6358277Y-15429888D01*
X6358277Y-15429888D02*
X6348753Y-15448936D01*
X6348753Y-15448936D02*
X6339229Y-15458460D01*
X6339229Y-15458460D02*
X6320182Y-15467984D01*
X6320182Y-15467984D02*
X6301134Y-15467984D01*
X6301134Y-15467984D02*
X6282086Y-15458460D01*
X6282086Y-15458460D02*
X6272563Y-15448936D01*
X6272563Y-15448936D02*
X6263039Y-15429888D01*
X6263039Y-15429888D02*
X6253515Y-15391793D01*
X6253515Y-15391793D02*
X6253515Y-15344174D01*
X6253515Y-15344174D02*
X6263039Y-15306079D01*
X6263039Y-15306079D02*
X6272563Y-15287031D01*
X6272563Y-15287031D02*
X6282086Y-15277508D01*
X6282086Y-15277508D02*
X6301134Y-15267984D01*
X6453515Y-15448936D02*
X6463039Y-15458460D01*
X6463039Y-15458460D02*
X6453515Y-15467984D01*
X6453515Y-15467984D02*
X6443991Y-15458460D01*
X6443991Y-15458460D02*
X6453515Y-15448936D01*
X6453515Y-15448936D02*
X6453515Y-15467984D01*
X6586848Y-15267984D02*
X6605896Y-15267984D01*
X6605896Y-15267984D02*
X6624944Y-15277508D01*
X6624944Y-15277508D02*
X6634467Y-15287031D01*
X6634467Y-15287031D02*
X6643991Y-15306079D01*
X6643991Y-15306079D02*
X6653515Y-15344174D01*
X6653515Y-15344174D02*
X6653515Y-15391793D01*
X6653515Y-15391793D02*
X6643991Y-15429888D01*
X6643991Y-15429888D02*
X6634467Y-15448936D01*
X6634467Y-15448936D02*
X6624944Y-15458460D01*
X6624944Y-15458460D02*
X6605896Y-15467984D01*
X6605896Y-15467984D02*
X6586848Y-15467984D01*
X6586848Y-15467984D02*
X6567801Y-15458460D01*
X6567801Y-15458460D02*
X6558277Y-15448936D01*
X6558277Y-15448936D02*
X6548753Y-15429888D01*
X6548753Y-15429888D02*
X6539229Y-15391793D01*
X6539229Y-15391793D02*
X6539229Y-15344174D01*
X6539229Y-15344174D02*
X6548753Y-15306079D01*
X6548753Y-15306079D02*
X6558277Y-15287031D01*
X6558277Y-15287031D02*
X6567801Y-15277508D01*
X6567801Y-15277508D02*
X6586848Y-15267984D01*
X6720182Y-15267984D02*
X6853515Y-15267984D01*
X6853515Y-15267984D02*
X6767801Y-15467984D01*
X6967801Y-15267984D02*
X6986848Y-15267984D01*
X6986848Y-15267984D02*
X7005896Y-15277508D01*
X7005896Y-15277508D02*
X7015420Y-15287031D01*
X7015420Y-15287031D02*
X7024944Y-15306079D01*
X7024944Y-15306079D02*
X7034467Y-15344174D01*
X7034467Y-15344174D02*
X7034467Y-15391793D01*
X7034467Y-15391793D02*
X7024944Y-15429888D01*
X7024944Y-15429888D02*
X7015420Y-15448936D01*
X7015420Y-15448936D02*
X7005896Y-15458460D01*
X7005896Y-15458460D02*
X6986848Y-15467984D01*
X6986848Y-15467984D02*
X6967801Y-15467984D01*
X6967801Y-15467984D02*
X6948753Y-15458460D01*
X6948753Y-15458460D02*
X6939229Y-15448936D01*
X6939229Y-15448936D02*
X6929706Y-15429888D01*
X6929706Y-15429888D02*
X6920182Y-15391793D01*
X6920182Y-15391793D02*
X6920182Y-15344174D01*
X6920182Y-15344174D02*
X6929706Y-15306079D01*
X6929706Y-15306079D02*
X6939229Y-15287031D01*
X6939229Y-15287031D02*
X6948753Y-15277508D01*
X6948753Y-15277508D02*
X6967801Y-15267984D01*
X7129706Y-15467984D02*
X7167801Y-15467984D01*
X7167801Y-15467984D02*
X7186848Y-15458460D01*
X7186848Y-15458460D02*
X7196372Y-15448936D01*
X7196372Y-15448936D02*
X7215420Y-15420365D01*
X7215420Y-15420365D02*
X7224944Y-15382269D01*
X7224944Y-15382269D02*
X7224944Y-15306079D01*
X7224944Y-15306079D02*
X7215420Y-15287031D01*
X7215420Y-15287031D02*
X7205896Y-15277508D01*
X7205896Y-15277508D02*
X7186848Y-15267984D01*
X7186848Y-15267984D02*
X7148753Y-15267984D01*
X7148753Y-15267984D02*
X7129706Y-15277508D01*
X7129706Y-15277508D02*
X7120182Y-15287031D01*
X7120182Y-15287031D02*
X7110658Y-15306079D01*
X7110658Y-15306079D02*
X7110658Y-15353698D01*
X7110658Y-15353698D02*
X7120182Y-15372746D01*
X7120182Y-15372746D02*
X7129706Y-15382269D01*
X7129706Y-15382269D02*
X7148753Y-15391793D01*
X7148753Y-15391793D02*
X7186848Y-15391793D01*
X7186848Y-15391793D02*
X7205896Y-15382269D01*
X7205896Y-15382269D02*
X7215420Y-15372746D01*
X7215420Y-15372746D02*
X7224944Y-15353698D01*
X7301134Y-15267984D02*
X7301134Y-15306079D01*
X7377325Y-15267984D02*
X7377325Y-15306079D01*
X7672563Y-15544174D02*
X7663039Y-15534650D01*
X7663039Y-15534650D02*
X7643991Y-15506079D01*
X7643991Y-15506079D02*
X7634468Y-15487031D01*
X7634468Y-15487031D02*
X7624944Y-15458460D01*
X7624944Y-15458460D02*
X7615420Y-15410841D01*
X7615420Y-15410841D02*
X7615420Y-15372746D01*
X7615420Y-15372746D02*
X7624944Y-15325127D01*
X7624944Y-15325127D02*
X7634468Y-15296555D01*
X7634468Y-15296555D02*
X7643991Y-15277508D01*
X7643991Y-15277508D02*
X7663039Y-15248936D01*
X7663039Y-15248936D02*
X7672563Y-15239412D01*
X7786848Y-15267984D02*
X7805896Y-15267984D01*
X7805896Y-15267984D02*
X7824944Y-15277508D01*
X7824944Y-15277508D02*
X7834468Y-15287031D01*
X7834468Y-15287031D02*
X7843991Y-15306079D01*
X7843991Y-15306079D02*
X7853515Y-15344174D01*
X7853515Y-15344174D02*
X7853515Y-15391793D01*
X7853515Y-15391793D02*
X7843991Y-15429888D01*
X7843991Y-15429888D02*
X7834468Y-15448936D01*
X7834468Y-15448936D02*
X7824944Y-15458460D01*
X7824944Y-15458460D02*
X7805896Y-15467984D01*
X7805896Y-15467984D02*
X7786848Y-15467984D01*
X7786848Y-15467984D02*
X7767801Y-15458460D01*
X7767801Y-15458460D02*
X7758277Y-15448936D01*
X7758277Y-15448936D02*
X7748753Y-15429888D01*
X7748753Y-15429888D02*
X7739229Y-15391793D01*
X7739229Y-15391793D02*
X7739229Y-15344174D01*
X7739229Y-15344174D02*
X7748753Y-15306079D01*
X7748753Y-15306079D02*
X7758277Y-15287031D01*
X7758277Y-15287031D02*
X7767801Y-15277508D01*
X7767801Y-15277508D02*
X7786848Y-15267984D01*
X8091610Y-15467984D02*
X8091610Y-15267984D01*
X8177325Y-15467984D02*
X8177325Y-15363222D01*
X8177325Y-15363222D02*
X8167801Y-15344174D01*
X8167801Y-15344174D02*
X8148753Y-15334650D01*
X8148753Y-15334650D02*
X8120182Y-15334650D01*
X8120182Y-15334650D02*
X8101134Y-15344174D01*
X8101134Y-15344174D02*
X8091610Y-15353698D01*
X8301134Y-15467984D02*
X8282087Y-15458460D01*
X8282087Y-15458460D02*
X8272563Y-15448936D01*
X8272563Y-15448936D02*
X8263039Y-15429888D01*
X8263039Y-15429888D02*
X8263039Y-15372746D01*
X8263039Y-15372746D02*
X8272563Y-15353698D01*
X8272563Y-15353698D02*
X8282087Y-15344174D01*
X8282087Y-15344174D02*
X8301134Y-15334650D01*
X8301134Y-15334650D02*
X8329706Y-15334650D01*
X8329706Y-15334650D02*
X8348753Y-15344174D01*
X8348753Y-15344174D02*
X8358277Y-15353698D01*
X8358277Y-15353698D02*
X8367801Y-15372746D01*
X8367801Y-15372746D02*
X8367801Y-15429888D01*
X8367801Y-15429888D02*
X8358277Y-15448936D01*
X8358277Y-15448936D02*
X8348753Y-15458460D01*
X8348753Y-15458460D02*
X8329706Y-15467984D01*
X8329706Y-15467984D02*
X8301134Y-15467984D01*
X8482087Y-15467984D02*
X8463039Y-15458460D01*
X8463039Y-15458460D02*
X8453515Y-15439412D01*
X8453515Y-15439412D02*
X8453515Y-15267984D01*
X8634468Y-15458460D02*
X8615420Y-15467984D01*
X8615420Y-15467984D02*
X8577325Y-15467984D01*
X8577325Y-15467984D02*
X8558277Y-15458460D01*
X8558277Y-15458460D02*
X8548753Y-15439412D01*
X8548753Y-15439412D02*
X8548753Y-15363222D01*
X8548753Y-15363222D02*
X8558277Y-15344174D01*
X8558277Y-15344174D02*
X8577325Y-15334650D01*
X8577325Y-15334650D02*
X8615420Y-15334650D01*
X8615420Y-15334650D02*
X8634468Y-15344174D01*
X8634468Y-15344174D02*
X8643992Y-15363222D01*
X8643992Y-15363222D02*
X8643992Y-15382269D01*
X8643992Y-15382269D02*
X8548753Y-15401317D01*
X8720182Y-15458460D02*
X8739230Y-15467984D01*
X8739230Y-15467984D02*
X8777325Y-15467984D01*
X8777325Y-15467984D02*
X8796373Y-15458460D01*
X8796373Y-15458460D02*
X8805896Y-15439412D01*
X8805896Y-15439412D02*
X8805896Y-15429888D01*
X8805896Y-15429888D02*
X8796373Y-15410841D01*
X8796373Y-15410841D02*
X8777325Y-15401317D01*
X8777325Y-15401317D02*
X8748753Y-15401317D01*
X8748753Y-15401317D02*
X8729706Y-15391793D01*
X8729706Y-15391793D02*
X8720182Y-15372746D01*
X8720182Y-15372746D02*
X8720182Y-15363222D01*
X8720182Y-15363222D02*
X8729706Y-15344174D01*
X8729706Y-15344174D02*
X8748753Y-15334650D01*
X8748753Y-15334650D02*
X8777325Y-15334650D01*
X8777325Y-15334650D02*
X8796373Y-15344174D01*
X9043992Y-15391793D02*
X9196373Y-15391793D01*
X9120182Y-15467984D02*
X9120182Y-15315603D01*
X9529706Y-15267984D02*
X9491611Y-15267984D01*
X9491611Y-15267984D02*
X9472563Y-15277508D01*
X9472563Y-15277508D02*
X9463039Y-15287031D01*
X9463039Y-15287031D02*
X9443992Y-15315603D01*
X9443992Y-15315603D02*
X9434468Y-15353698D01*
X9434468Y-15353698D02*
X9434468Y-15429888D01*
X9434468Y-15429888D02*
X9443992Y-15448936D01*
X9443992Y-15448936D02*
X9453515Y-15458460D01*
X9453515Y-15458460D02*
X9472563Y-15467984D01*
X9472563Y-15467984D02*
X9510658Y-15467984D01*
X9510658Y-15467984D02*
X9529706Y-15458460D01*
X9529706Y-15458460D02*
X9539230Y-15448936D01*
X9539230Y-15448936D02*
X9548754Y-15429888D01*
X9548754Y-15429888D02*
X9548754Y-15382269D01*
X9548754Y-15382269D02*
X9539230Y-15363222D01*
X9539230Y-15363222D02*
X9529706Y-15353698D01*
X9529706Y-15353698D02*
X9510658Y-15344174D01*
X9510658Y-15344174D02*
X9472563Y-15344174D01*
X9472563Y-15344174D02*
X9453515Y-15353698D01*
X9453515Y-15353698D02*
X9443992Y-15363222D01*
X9443992Y-15363222D02*
X9434468Y-15382269D01*
X9777325Y-15458460D02*
X9796373Y-15467984D01*
X9796373Y-15467984D02*
X9834468Y-15467984D01*
X9834468Y-15467984D02*
X9853516Y-15458460D01*
X9853516Y-15458460D02*
X9863039Y-15439412D01*
X9863039Y-15439412D02*
X9863039Y-15429888D01*
X9863039Y-15429888D02*
X9853516Y-15410841D01*
X9853516Y-15410841D02*
X9834468Y-15401317D01*
X9834468Y-15401317D02*
X9805896Y-15401317D01*
X9805896Y-15401317D02*
X9786849Y-15391793D01*
X9786849Y-15391793D02*
X9777325Y-15372746D01*
X9777325Y-15372746D02*
X9777325Y-15363222D01*
X9777325Y-15363222D02*
X9786849Y-15344174D01*
X9786849Y-15344174D02*
X9805896Y-15334650D01*
X9805896Y-15334650D02*
X9834468Y-15334650D01*
X9834468Y-15334650D02*
X9853516Y-15344174D01*
X9977325Y-15467984D02*
X9958277Y-15458460D01*
X9958277Y-15458460D02*
X9948754Y-15439412D01*
X9948754Y-15439412D02*
X9948754Y-15267984D01*
X10082087Y-15467984D02*
X10063039Y-15458460D01*
X10063039Y-15458460D02*
X10053516Y-15448936D01*
X10053516Y-15448936D02*
X10043992Y-15429888D01*
X10043992Y-15429888D02*
X10043992Y-15372746D01*
X10043992Y-15372746D02*
X10053516Y-15353698D01*
X10053516Y-15353698D02*
X10063039Y-15344174D01*
X10063039Y-15344174D02*
X10082087Y-15334650D01*
X10082087Y-15334650D02*
X10110658Y-15334650D01*
X10110658Y-15334650D02*
X10129706Y-15344174D01*
X10129706Y-15344174D02*
X10139230Y-15353698D01*
X10139230Y-15353698D02*
X10148754Y-15372746D01*
X10148754Y-15372746D02*
X10148754Y-15429888D01*
X10148754Y-15429888D02*
X10139230Y-15448936D01*
X10139230Y-15448936D02*
X10129706Y-15458460D01*
X10129706Y-15458460D02*
X10110658Y-15467984D01*
X10110658Y-15467984D02*
X10082087Y-15467984D01*
X10205897Y-15334650D02*
X10282087Y-15334650D01*
X10234468Y-15267984D02*
X10234468Y-15439412D01*
X10234468Y-15439412D02*
X10243992Y-15458460D01*
X10243992Y-15458460D02*
X10263039Y-15467984D01*
X10263039Y-15467984D02*
X10282087Y-15467984D01*
X10339230Y-15458460D02*
X10358277Y-15467984D01*
X10358277Y-15467984D02*
X10396373Y-15467984D01*
X10396373Y-15467984D02*
X10415420Y-15458460D01*
X10415420Y-15458460D02*
X10424944Y-15439412D01*
X10424944Y-15439412D02*
X10424944Y-15429888D01*
X10424944Y-15429888D02*
X10415420Y-15410841D01*
X10415420Y-15410841D02*
X10396373Y-15401317D01*
X10396373Y-15401317D02*
X10367801Y-15401317D01*
X10367801Y-15401317D02*
X10348754Y-15391793D01*
X10348754Y-15391793D02*
X10339230Y-15372746D01*
X10339230Y-15372746D02*
X10339230Y-15363222D01*
X10339230Y-15363222D02*
X10348754Y-15344174D01*
X10348754Y-15344174D02*
X10367801Y-15334650D01*
X10367801Y-15334650D02*
X10396373Y-15334650D01*
X10396373Y-15334650D02*
X10415420Y-15344174D01*
X10491611Y-15544174D02*
X10501135Y-15534650D01*
X10501135Y-15534650D02*
X10520182Y-15506079D01*
X10520182Y-15506079D02*
X10529706Y-15487031D01*
X10529706Y-15487031D02*
X10539230Y-15458460D01*
X10539230Y-15458460D02*
X10548754Y-15410841D01*
X10548754Y-15410841D02*
X10548754Y-15372746D01*
X10548754Y-15372746D02*
X10539230Y-15325127D01*
X10539230Y-15325127D02*
X10529706Y-15296555D01*
X10529706Y-15296555D02*
X10520182Y-15277508D01*
X10520182Y-15277508D02*
X10501135Y-15248936D01*
X10501135Y-15248936D02*
X10491611Y-15239412D01*
M02*
