%TF.GenerationSoftware,KiCad,Pcbnew,8.0.4*%
%TF.CreationDate,2024-08-21T22:32:37+02:00*%
%TF.ProjectId,pixxy,70697878-792e-46b6-9963-61645f706362,rev?*%
%TF.SameCoordinates,Original*%
%TF.FileFunction,Drillmap*%
%TF.FilePolarity,Positive*%
%FSLAX45Y45*%
G04 Gerber Fmt 4.5, Leading zero omitted, Abs format (unit mm)*
G04 Created by KiCad (PCBNEW 8.0.4) date 2024-08-21 22:32:37*
%MOMM*%
%LPD*%
G01*
G04 APERTURE LIST*
%ADD10C,0.050000*%
%ADD11C,0.200000*%
%ADD12C,0.150000*%
%ADD13C,0.180000*%
G04 APERTURE END LIST*
D10*
X4100000Y-3350000D02*
X9650000Y-3350000D01*
X9650000Y-13150000D01*
X4100000Y-13150000D01*
X4100000Y-3350000D01*
D11*
D12*
X8872000Y-5121500D02*
X9022000Y-5271500D01*
X9022000Y-5121500D02*
X8872000Y-5271500D01*
X8872000Y-5606500D02*
X9022000Y-5756500D01*
X9022000Y-5606500D02*
X8872000Y-5756500D01*
D13*
X9340000Y-5166500D02*
G75*
G02*
X9160000Y-5166500I-90000J0D01*
G01*
X9160000Y-5166500D02*
G75*
G02*
X9340000Y-5166500I90000J0D01*
G01*
X9340000Y-5711500D02*
G75*
G02*
X9160000Y-5711500I-90000J0D01*
G01*
X9160000Y-5711500D02*
G75*
G02*
X9340000Y-5711500I90000J0D01*
G01*
D11*
X4358277Y-13463984D02*
X4358277Y-13263984D01*
X4358277Y-13263984D02*
X4405896Y-13263984D01*
X4405896Y-13263984D02*
X4434467Y-13273508D01*
X4434467Y-13273508D02*
X4453515Y-13292555D01*
X4453515Y-13292555D02*
X4463039Y-13311603D01*
X4463039Y-13311603D02*
X4472563Y-13349698D01*
X4472563Y-13349698D02*
X4472563Y-13378269D01*
X4472563Y-13378269D02*
X4463039Y-13416365D01*
X4463039Y-13416365D02*
X4453515Y-13435412D01*
X4453515Y-13435412D02*
X4434467Y-13454460D01*
X4434467Y-13454460D02*
X4405896Y-13463984D01*
X4405896Y-13463984D02*
X4358277Y-13463984D01*
X4558277Y-13463984D02*
X4558277Y-13330650D01*
X4558277Y-13368746D02*
X4567801Y-13349698D01*
X4567801Y-13349698D02*
X4577324Y-13340174D01*
X4577324Y-13340174D02*
X4596372Y-13330650D01*
X4596372Y-13330650D02*
X4615420Y-13330650D01*
X4682086Y-13463984D02*
X4682086Y-13330650D01*
X4682086Y-13263984D02*
X4672563Y-13273508D01*
X4672563Y-13273508D02*
X4682086Y-13283031D01*
X4682086Y-13283031D02*
X4691610Y-13273508D01*
X4691610Y-13273508D02*
X4682086Y-13263984D01*
X4682086Y-13263984D02*
X4682086Y-13283031D01*
X4805896Y-13463984D02*
X4786848Y-13454460D01*
X4786848Y-13454460D02*
X4777324Y-13435412D01*
X4777324Y-13435412D02*
X4777324Y-13263984D01*
X4910658Y-13463984D02*
X4891610Y-13454460D01*
X4891610Y-13454460D02*
X4882086Y-13435412D01*
X4882086Y-13435412D02*
X4882086Y-13263984D01*
X5139229Y-13463984D02*
X5139229Y-13263984D01*
X5139229Y-13263984D02*
X5205896Y-13406841D01*
X5205896Y-13406841D02*
X5272563Y-13263984D01*
X5272563Y-13263984D02*
X5272563Y-13463984D01*
X5453515Y-13463984D02*
X5453515Y-13359222D01*
X5453515Y-13359222D02*
X5443991Y-13340174D01*
X5443991Y-13340174D02*
X5424944Y-13330650D01*
X5424944Y-13330650D02*
X5386848Y-13330650D01*
X5386848Y-13330650D02*
X5367801Y-13340174D01*
X5453515Y-13454460D02*
X5434467Y-13463984D01*
X5434467Y-13463984D02*
X5386848Y-13463984D01*
X5386848Y-13463984D02*
X5367801Y-13454460D01*
X5367801Y-13454460D02*
X5358277Y-13435412D01*
X5358277Y-13435412D02*
X5358277Y-13416365D01*
X5358277Y-13416365D02*
X5367801Y-13397317D01*
X5367801Y-13397317D02*
X5386848Y-13387793D01*
X5386848Y-13387793D02*
X5434467Y-13387793D01*
X5434467Y-13387793D02*
X5453515Y-13378269D01*
X5548753Y-13330650D02*
X5548753Y-13530650D01*
X5548753Y-13340174D02*
X5567801Y-13330650D01*
X5567801Y-13330650D02*
X5605896Y-13330650D01*
X5605896Y-13330650D02*
X5624943Y-13340174D01*
X5624943Y-13340174D02*
X5634467Y-13349698D01*
X5634467Y-13349698D02*
X5643991Y-13368746D01*
X5643991Y-13368746D02*
X5643991Y-13425888D01*
X5643991Y-13425888D02*
X5634467Y-13444936D01*
X5634467Y-13444936D02*
X5624943Y-13454460D01*
X5624943Y-13454460D02*
X5605896Y-13463984D01*
X5605896Y-13463984D02*
X5567801Y-13463984D01*
X5567801Y-13463984D02*
X5548753Y-13454460D01*
X5729705Y-13444936D02*
X5739229Y-13454460D01*
X5739229Y-13454460D02*
X5729705Y-13463984D01*
X5729705Y-13463984D02*
X5720182Y-13454460D01*
X5720182Y-13454460D02*
X5729705Y-13444936D01*
X5729705Y-13444936D02*
X5729705Y-13463984D01*
X5729705Y-13340174D02*
X5739229Y-13349698D01*
X5739229Y-13349698D02*
X5729705Y-13359222D01*
X5729705Y-13359222D02*
X5720182Y-13349698D01*
X5720182Y-13349698D02*
X5729705Y-13340174D01*
X5729705Y-13340174D02*
X5729705Y-13359222D01*
D12*
X3947500Y-13717500D02*
X4097500Y-13867500D01*
X4097500Y-13717500D02*
X3947500Y-13867500D01*
D11*
X4463039Y-13883984D02*
X4348753Y-13883984D01*
X4405896Y-13883984D02*
X4405896Y-13683984D01*
X4405896Y-13683984D02*
X4386848Y-13712555D01*
X4386848Y-13712555D02*
X4367801Y-13731603D01*
X4367801Y-13731603D02*
X4348753Y-13741127D01*
X4548753Y-13864936D02*
X4558277Y-13874460D01*
X4558277Y-13874460D02*
X4548753Y-13883984D01*
X4548753Y-13883984D02*
X4539229Y-13874460D01*
X4539229Y-13874460D02*
X4548753Y-13864936D01*
X4548753Y-13864936D02*
X4548753Y-13883984D01*
X4739229Y-13683984D02*
X4643991Y-13683984D01*
X4643991Y-13683984D02*
X4634467Y-13779222D01*
X4634467Y-13779222D02*
X4643991Y-13769698D01*
X4643991Y-13769698D02*
X4663039Y-13760174D01*
X4663039Y-13760174D02*
X4710658Y-13760174D01*
X4710658Y-13760174D02*
X4729705Y-13769698D01*
X4729705Y-13769698D02*
X4739229Y-13779222D01*
X4739229Y-13779222D02*
X4748753Y-13798269D01*
X4748753Y-13798269D02*
X4748753Y-13845888D01*
X4748753Y-13845888D02*
X4739229Y-13864936D01*
X4739229Y-13864936D02*
X4729705Y-13874460D01*
X4729705Y-13874460D02*
X4710658Y-13883984D01*
X4710658Y-13883984D02*
X4663039Y-13883984D01*
X4663039Y-13883984D02*
X4643991Y-13874460D01*
X4643991Y-13874460D02*
X4634467Y-13864936D01*
X4872563Y-13683984D02*
X4891610Y-13683984D01*
X4891610Y-13683984D02*
X4910658Y-13693508D01*
X4910658Y-13693508D02*
X4920182Y-13703031D01*
X4920182Y-13703031D02*
X4929705Y-13722079D01*
X4929705Y-13722079D02*
X4939229Y-13760174D01*
X4939229Y-13760174D02*
X4939229Y-13807793D01*
X4939229Y-13807793D02*
X4929705Y-13845888D01*
X4929705Y-13845888D02*
X4920182Y-13864936D01*
X4920182Y-13864936D02*
X4910658Y-13874460D01*
X4910658Y-13874460D02*
X4891610Y-13883984D01*
X4891610Y-13883984D02*
X4872563Y-13883984D01*
X4872563Y-13883984D02*
X4853515Y-13874460D01*
X4853515Y-13874460D02*
X4843991Y-13864936D01*
X4843991Y-13864936D02*
X4834467Y-13845888D01*
X4834467Y-13845888D02*
X4824944Y-13807793D01*
X4824944Y-13807793D02*
X4824944Y-13760174D01*
X4824944Y-13760174D02*
X4834467Y-13722079D01*
X4834467Y-13722079D02*
X4843991Y-13703031D01*
X4843991Y-13703031D02*
X4853515Y-13693508D01*
X4853515Y-13693508D02*
X4872563Y-13683984D01*
X5063039Y-13683984D02*
X5082086Y-13683984D01*
X5082086Y-13683984D02*
X5101134Y-13693508D01*
X5101134Y-13693508D02*
X5110658Y-13703031D01*
X5110658Y-13703031D02*
X5120182Y-13722079D01*
X5120182Y-13722079D02*
X5129705Y-13760174D01*
X5129705Y-13760174D02*
X5129705Y-13807793D01*
X5129705Y-13807793D02*
X5120182Y-13845888D01*
X5120182Y-13845888D02*
X5110658Y-13864936D01*
X5110658Y-13864936D02*
X5101134Y-13874460D01*
X5101134Y-13874460D02*
X5082086Y-13883984D01*
X5082086Y-13883984D02*
X5063039Y-13883984D01*
X5063039Y-13883984D02*
X5043991Y-13874460D01*
X5043991Y-13874460D02*
X5034467Y-13864936D01*
X5034467Y-13864936D02*
X5024944Y-13845888D01*
X5024944Y-13845888D02*
X5015420Y-13807793D01*
X5015420Y-13807793D02*
X5015420Y-13760174D01*
X5015420Y-13760174D02*
X5024944Y-13722079D01*
X5024944Y-13722079D02*
X5034467Y-13703031D01*
X5034467Y-13703031D02*
X5043991Y-13693508D01*
X5043991Y-13693508D02*
X5063039Y-13683984D01*
X5215420Y-13883984D02*
X5215420Y-13750650D01*
X5215420Y-13769698D02*
X5224944Y-13760174D01*
X5224944Y-13760174D02*
X5243991Y-13750650D01*
X5243991Y-13750650D02*
X5272563Y-13750650D01*
X5272563Y-13750650D02*
X5291610Y-13760174D01*
X5291610Y-13760174D02*
X5301134Y-13779222D01*
X5301134Y-13779222D02*
X5301134Y-13883984D01*
X5301134Y-13779222D02*
X5310658Y-13760174D01*
X5310658Y-13760174D02*
X5329705Y-13750650D01*
X5329705Y-13750650D02*
X5358277Y-13750650D01*
X5358277Y-13750650D02*
X5377325Y-13760174D01*
X5377325Y-13760174D02*
X5386848Y-13779222D01*
X5386848Y-13779222D02*
X5386848Y-13883984D01*
X5482086Y-13883984D02*
X5482086Y-13750650D01*
X5482086Y-13769698D02*
X5491610Y-13760174D01*
X5491610Y-13760174D02*
X5510658Y-13750650D01*
X5510658Y-13750650D02*
X5539229Y-13750650D01*
X5539229Y-13750650D02*
X5558277Y-13760174D01*
X5558277Y-13760174D02*
X5567801Y-13779222D01*
X5567801Y-13779222D02*
X5567801Y-13883984D01*
X5567801Y-13779222D02*
X5577325Y-13760174D01*
X5577325Y-13760174D02*
X5596372Y-13750650D01*
X5596372Y-13750650D02*
X5624943Y-13750650D01*
X5624943Y-13750650D02*
X5643991Y-13760174D01*
X5643991Y-13760174D02*
X5653515Y-13779222D01*
X5653515Y-13779222D02*
X5653515Y-13883984D01*
X6043991Y-13674460D02*
X5872563Y-13931603D01*
X6301134Y-13683984D02*
X6320182Y-13683984D01*
X6320182Y-13683984D02*
X6339229Y-13693508D01*
X6339229Y-13693508D02*
X6348753Y-13703031D01*
X6348753Y-13703031D02*
X6358277Y-13722079D01*
X6358277Y-13722079D02*
X6367801Y-13760174D01*
X6367801Y-13760174D02*
X6367801Y-13807793D01*
X6367801Y-13807793D02*
X6358277Y-13845888D01*
X6358277Y-13845888D02*
X6348753Y-13864936D01*
X6348753Y-13864936D02*
X6339229Y-13874460D01*
X6339229Y-13874460D02*
X6320182Y-13883984D01*
X6320182Y-13883984D02*
X6301134Y-13883984D01*
X6301134Y-13883984D02*
X6282086Y-13874460D01*
X6282086Y-13874460D02*
X6272563Y-13864936D01*
X6272563Y-13864936D02*
X6263039Y-13845888D01*
X6263039Y-13845888D02*
X6253515Y-13807793D01*
X6253515Y-13807793D02*
X6253515Y-13760174D01*
X6253515Y-13760174D02*
X6263039Y-13722079D01*
X6263039Y-13722079D02*
X6272563Y-13703031D01*
X6272563Y-13703031D02*
X6282086Y-13693508D01*
X6282086Y-13693508D02*
X6301134Y-13683984D01*
X6453515Y-13864936D02*
X6463039Y-13874460D01*
X6463039Y-13874460D02*
X6453515Y-13883984D01*
X6453515Y-13883984D02*
X6443991Y-13874460D01*
X6443991Y-13874460D02*
X6453515Y-13864936D01*
X6453515Y-13864936D02*
X6453515Y-13883984D01*
X6586848Y-13683984D02*
X6605896Y-13683984D01*
X6605896Y-13683984D02*
X6624944Y-13693508D01*
X6624944Y-13693508D02*
X6634467Y-13703031D01*
X6634467Y-13703031D02*
X6643991Y-13722079D01*
X6643991Y-13722079D02*
X6653515Y-13760174D01*
X6653515Y-13760174D02*
X6653515Y-13807793D01*
X6653515Y-13807793D02*
X6643991Y-13845888D01*
X6643991Y-13845888D02*
X6634467Y-13864936D01*
X6634467Y-13864936D02*
X6624944Y-13874460D01*
X6624944Y-13874460D02*
X6605896Y-13883984D01*
X6605896Y-13883984D02*
X6586848Y-13883984D01*
X6586848Y-13883984D02*
X6567801Y-13874460D01*
X6567801Y-13874460D02*
X6558277Y-13864936D01*
X6558277Y-13864936D02*
X6548753Y-13845888D01*
X6548753Y-13845888D02*
X6539229Y-13807793D01*
X6539229Y-13807793D02*
X6539229Y-13760174D01*
X6539229Y-13760174D02*
X6548753Y-13722079D01*
X6548753Y-13722079D02*
X6558277Y-13703031D01*
X6558277Y-13703031D02*
X6567801Y-13693508D01*
X6567801Y-13693508D02*
X6586848Y-13683984D01*
X6834467Y-13683984D02*
X6739229Y-13683984D01*
X6739229Y-13683984D02*
X6729706Y-13779222D01*
X6729706Y-13779222D02*
X6739229Y-13769698D01*
X6739229Y-13769698D02*
X6758277Y-13760174D01*
X6758277Y-13760174D02*
X6805896Y-13760174D01*
X6805896Y-13760174D02*
X6824944Y-13769698D01*
X6824944Y-13769698D02*
X6834467Y-13779222D01*
X6834467Y-13779222D02*
X6843991Y-13798269D01*
X6843991Y-13798269D02*
X6843991Y-13845888D01*
X6843991Y-13845888D02*
X6834467Y-13864936D01*
X6834467Y-13864936D02*
X6824944Y-13874460D01*
X6824944Y-13874460D02*
X6805896Y-13883984D01*
X6805896Y-13883984D02*
X6758277Y-13883984D01*
X6758277Y-13883984D02*
X6739229Y-13874460D01*
X6739229Y-13874460D02*
X6729706Y-13864936D01*
X6939229Y-13883984D02*
X6977325Y-13883984D01*
X6977325Y-13883984D02*
X6996372Y-13874460D01*
X6996372Y-13874460D02*
X7005896Y-13864936D01*
X7005896Y-13864936D02*
X7024944Y-13836365D01*
X7024944Y-13836365D02*
X7034467Y-13798269D01*
X7034467Y-13798269D02*
X7034467Y-13722079D01*
X7034467Y-13722079D02*
X7024944Y-13703031D01*
X7024944Y-13703031D02*
X7015420Y-13693508D01*
X7015420Y-13693508D02*
X6996372Y-13683984D01*
X6996372Y-13683984D02*
X6958277Y-13683984D01*
X6958277Y-13683984D02*
X6939229Y-13693508D01*
X6939229Y-13693508D02*
X6929706Y-13703031D01*
X6929706Y-13703031D02*
X6920182Y-13722079D01*
X6920182Y-13722079D02*
X6920182Y-13769698D01*
X6920182Y-13769698D02*
X6929706Y-13788746D01*
X6929706Y-13788746D02*
X6939229Y-13798269D01*
X6939229Y-13798269D02*
X6958277Y-13807793D01*
X6958277Y-13807793D02*
X6996372Y-13807793D01*
X6996372Y-13807793D02*
X7015420Y-13798269D01*
X7015420Y-13798269D02*
X7024944Y-13788746D01*
X7024944Y-13788746D02*
X7034467Y-13769698D01*
X7224944Y-13883984D02*
X7110658Y-13883984D01*
X7167801Y-13883984D02*
X7167801Y-13683984D01*
X7167801Y-13683984D02*
X7148753Y-13712555D01*
X7148753Y-13712555D02*
X7129706Y-13731603D01*
X7129706Y-13731603D02*
X7110658Y-13741127D01*
X7301134Y-13683984D02*
X7301134Y-13722079D01*
X7377325Y-13683984D02*
X7377325Y-13722079D01*
X7672563Y-13960174D02*
X7663039Y-13950650D01*
X7663039Y-13950650D02*
X7643991Y-13922079D01*
X7643991Y-13922079D02*
X7634468Y-13903031D01*
X7634468Y-13903031D02*
X7624944Y-13874460D01*
X7624944Y-13874460D02*
X7615420Y-13826841D01*
X7615420Y-13826841D02*
X7615420Y-13788746D01*
X7615420Y-13788746D02*
X7624944Y-13741127D01*
X7624944Y-13741127D02*
X7634468Y-13712555D01*
X7634468Y-13712555D02*
X7643991Y-13693508D01*
X7643991Y-13693508D02*
X7663039Y-13664936D01*
X7663039Y-13664936D02*
X7672563Y-13655412D01*
X7739229Y-13703031D02*
X7748753Y-13693508D01*
X7748753Y-13693508D02*
X7767801Y-13683984D01*
X7767801Y-13683984D02*
X7815420Y-13683984D01*
X7815420Y-13683984D02*
X7834468Y-13693508D01*
X7834468Y-13693508D02*
X7843991Y-13703031D01*
X7843991Y-13703031D02*
X7853515Y-13722079D01*
X7853515Y-13722079D02*
X7853515Y-13741127D01*
X7853515Y-13741127D02*
X7843991Y-13769698D01*
X7843991Y-13769698D02*
X7729706Y-13883984D01*
X7729706Y-13883984D02*
X7853515Y-13883984D01*
X8091610Y-13883984D02*
X8091610Y-13683984D01*
X8177325Y-13883984D02*
X8177325Y-13779222D01*
X8177325Y-13779222D02*
X8167801Y-13760174D01*
X8167801Y-13760174D02*
X8148753Y-13750650D01*
X8148753Y-13750650D02*
X8120182Y-13750650D01*
X8120182Y-13750650D02*
X8101134Y-13760174D01*
X8101134Y-13760174D02*
X8091610Y-13769698D01*
X8301134Y-13883984D02*
X8282087Y-13874460D01*
X8282087Y-13874460D02*
X8272563Y-13864936D01*
X8272563Y-13864936D02*
X8263039Y-13845888D01*
X8263039Y-13845888D02*
X8263039Y-13788746D01*
X8263039Y-13788746D02*
X8272563Y-13769698D01*
X8272563Y-13769698D02*
X8282087Y-13760174D01*
X8282087Y-13760174D02*
X8301134Y-13750650D01*
X8301134Y-13750650D02*
X8329706Y-13750650D01*
X8329706Y-13750650D02*
X8348753Y-13760174D01*
X8348753Y-13760174D02*
X8358277Y-13769698D01*
X8358277Y-13769698D02*
X8367801Y-13788746D01*
X8367801Y-13788746D02*
X8367801Y-13845888D01*
X8367801Y-13845888D02*
X8358277Y-13864936D01*
X8358277Y-13864936D02*
X8348753Y-13874460D01*
X8348753Y-13874460D02*
X8329706Y-13883984D01*
X8329706Y-13883984D02*
X8301134Y-13883984D01*
X8482087Y-13883984D02*
X8463039Y-13874460D01*
X8463039Y-13874460D02*
X8453515Y-13855412D01*
X8453515Y-13855412D02*
X8453515Y-13683984D01*
X8634468Y-13874460D02*
X8615420Y-13883984D01*
X8615420Y-13883984D02*
X8577325Y-13883984D01*
X8577325Y-13883984D02*
X8558277Y-13874460D01*
X8558277Y-13874460D02*
X8548753Y-13855412D01*
X8548753Y-13855412D02*
X8548753Y-13779222D01*
X8548753Y-13779222D02*
X8558277Y-13760174D01*
X8558277Y-13760174D02*
X8577325Y-13750650D01*
X8577325Y-13750650D02*
X8615420Y-13750650D01*
X8615420Y-13750650D02*
X8634468Y-13760174D01*
X8634468Y-13760174D02*
X8643992Y-13779222D01*
X8643992Y-13779222D02*
X8643992Y-13798269D01*
X8643992Y-13798269D02*
X8548753Y-13817317D01*
X8720182Y-13874460D02*
X8739230Y-13883984D01*
X8739230Y-13883984D02*
X8777325Y-13883984D01*
X8777325Y-13883984D02*
X8796373Y-13874460D01*
X8796373Y-13874460D02*
X8805896Y-13855412D01*
X8805896Y-13855412D02*
X8805896Y-13845888D01*
X8805896Y-13845888D02*
X8796373Y-13826841D01*
X8796373Y-13826841D02*
X8777325Y-13817317D01*
X8777325Y-13817317D02*
X8748753Y-13817317D01*
X8748753Y-13817317D02*
X8729706Y-13807793D01*
X8729706Y-13807793D02*
X8720182Y-13788746D01*
X8720182Y-13788746D02*
X8720182Y-13779222D01*
X8720182Y-13779222D02*
X8729706Y-13760174D01*
X8729706Y-13760174D02*
X8748753Y-13750650D01*
X8748753Y-13750650D02*
X8777325Y-13750650D01*
X8777325Y-13750650D02*
X8796373Y-13760174D01*
X8872563Y-13960174D02*
X8882087Y-13950650D01*
X8882087Y-13950650D02*
X8901134Y-13922079D01*
X8901134Y-13922079D02*
X8910658Y-13903031D01*
X8910658Y-13903031D02*
X8920182Y-13874460D01*
X8920182Y-13874460D02*
X8929706Y-13826841D01*
X8929706Y-13826841D02*
X8929706Y-13788746D01*
X8929706Y-13788746D02*
X8920182Y-13741127D01*
X8920182Y-13741127D02*
X8910658Y-13712555D01*
X8910658Y-13712555D02*
X8901134Y-13693508D01*
X8901134Y-13693508D02*
X8882087Y-13664936D01*
X8882087Y-13664936D02*
X8872563Y-13655412D01*
X9234468Y-13960174D02*
X9224944Y-13950650D01*
X9224944Y-13950650D02*
X9205896Y-13922079D01*
X9205896Y-13922079D02*
X9196373Y-13903031D01*
X9196373Y-13903031D02*
X9186849Y-13874460D01*
X9186849Y-13874460D02*
X9177325Y-13826841D01*
X9177325Y-13826841D02*
X9177325Y-13788746D01*
X9177325Y-13788746D02*
X9186849Y-13741127D01*
X9186849Y-13741127D02*
X9196373Y-13712555D01*
X9196373Y-13712555D02*
X9205896Y-13693508D01*
X9205896Y-13693508D02*
X9224944Y-13664936D01*
X9224944Y-13664936D02*
X9234468Y-13655412D01*
X9310658Y-13750650D02*
X9310658Y-13883984D01*
X9310658Y-13769698D02*
X9320182Y-13760174D01*
X9320182Y-13760174D02*
X9339230Y-13750650D01*
X9339230Y-13750650D02*
X9367801Y-13750650D01*
X9367801Y-13750650D02*
X9386849Y-13760174D01*
X9386849Y-13760174D02*
X9396373Y-13779222D01*
X9396373Y-13779222D02*
X9396373Y-13883984D01*
X9520182Y-13883984D02*
X9501134Y-13874460D01*
X9501134Y-13874460D02*
X9491611Y-13864936D01*
X9491611Y-13864936D02*
X9482087Y-13845888D01*
X9482087Y-13845888D02*
X9482087Y-13788746D01*
X9482087Y-13788746D02*
X9491611Y-13769698D01*
X9491611Y-13769698D02*
X9501134Y-13760174D01*
X9501134Y-13760174D02*
X9520182Y-13750650D01*
X9520182Y-13750650D02*
X9548754Y-13750650D01*
X9548754Y-13750650D02*
X9567801Y-13760174D01*
X9567801Y-13760174D02*
X9577325Y-13769698D01*
X9577325Y-13769698D02*
X9586849Y-13788746D01*
X9586849Y-13788746D02*
X9586849Y-13845888D01*
X9586849Y-13845888D02*
X9577325Y-13864936D01*
X9577325Y-13864936D02*
X9567801Y-13874460D01*
X9567801Y-13874460D02*
X9548754Y-13883984D01*
X9548754Y-13883984D02*
X9520182Y-13883984D01*
X9643992Y-13750650D02*
X9720182Y-13750650D01*
X9672563Y-13683984D02*
X9672563Y-13855412D01*
X9672563Y-13855412D02*
X9682087Y-13874460D01*
X9682087Y-13874460D02*
X9701134Y-13883984D01*
X9701134Y-13883984D02*
X9720182Y-13883984D01*
X9939230Y-13750650D02*
X9939230Y-13950650D01*
X9939230Y-13760174D02*
X9958277Y-13750650D01*
X9958277Y-13750650D02*
X9996373Y-13750650D01*
X9996373Y-13750650D02*
X10015420Y-13760174D01*
X10015420Y-13760174D02*
X10024944Y-13769698D01*
X10024944Y-13769698D02*
X10034468Y-13788746D01*
X10034468Y-13788746D02*
X10034468Y-13845888D01*
X10034468Y-13845888D02*
X10024944Y-13864936D01*
X10024944Y-13864936D02*
X10015420Y-13874460D01*
X10015420Y-13874460D02*
X9996373Y-13883984D01*
X9996373Y-13883984D02*
X9958277Y-13883984D01*
X9958277Y-13883984D02*
X9939230Y-13874460D01*
X10148754Y-13883984D02*
X10129706Y-13874460D01*
X10129706Y-13874460D02*
X10120182Y-13855412D01*
X10120182Y-13855412D02*
X10120182Y-13683984D01*
X10310658Y-13883984D02*
X10310658Y-13779222D01*
X10310658Y-13779222D02*
X10301135Y-13760174D01*
X10301135Y-13760174D02*
X10282087Y-13750650D01*
X10282087Y-13750650D02*
X10243992Y-13750650D01*
X10243992Y-13750650D02*
X10224944Y-13760174D01*
X10310658Y-13874460D02*
X10291611Y-13883984D01*
X10291611Y-13883984D02*
X10243992Y-13883984D01*
X10243992Y-13883984D02*
X10224944Y-13874460D01*
X10224944Y-13874460D02*
X10215420Y-13855412D01*
X10215420Y-13855412D02*
X10215420Y-13836365D01*
X10215420Y-13836365D02*
X10224944Y-13817317D01*
X10224944Y-13817317D02*
X10243992Y-13807793D01*
X10243992Y-13807793D02*
X10291611Y-13807793D01*
X10291611Y-13807793D02*
X10310658Y-13798269D01*
X10377325Y-13750650D02*
X10453515Y-13750650D01*
X10405896Y-13683984D02*
X10405896Y-13855412D01*
X10405896Y-13855412D02*
X10415420Y-13874460D01*
X10415420Y-13874460D02*
X10434468Y-13883984D01*
X10434468Y-13883984D02*
X10453515Y-13883984D01*
X10596373Y-13874460D02*
X10577325Y-13883984D01*
X10577325Y-13883984D02*
X10539230Y-13883984D01*
X10539230Y-13883984D02*
X10520182Y-13874460D01*
X10520182Y-13874460D02*
X10510658Y-13855412D01*
X10510658Y-13855412D02*
X10510658Y-13779222D01*
X10510658Y-13779222D02*
X10520182Y-13760174D01*
X10520182Y-13760174D02*
X10539230Y-13750650D01*
X10539230Y-13750650D02*
X10577325Y-13750650D01*
X10577325Y-13750650D02*
X10596373Y-13760174D01*
X10596373Y-13760174D02*
X10605896Y-13779222D01*
X10605896Y-13779222D02*
X10605896Y-13798269D01*
X10605896Y-13798269D02*
X10510658Y-13817317D01*
X10777325Y-13883984D02*
X10777325Y-13683984D01*
X10777325Y-13874460D02*
X10758277Y-13883984D01*
X10758277Y-13883984D02*
X10720182Y-13883984D01*
X10720182Y-13883984D02*
X10701135Y-13874460D01*
X10701135Y-13874460D02*
X10691611Y-13864936D01*
X10691611Y-13864936D02*
X10682087Y-13845888D01*
X10682087Y-13845888D02*
X10682087Y-13788746D01*
X10682087Y-13788746D02*
X10691611Y-13769698D01*
X10691611Y-13769698D02*
X10701135Y-13760174D01*
X10701135Y-13760174D02*
X10720182Y-13750650D01*
X10720182Y-13750650D02*
X10758277Y-13750650D01*
X10758277Y-13750650D02*
X10777325Y-13760174D01*
X10853516Y-13960174D02*
X10863039Y-13950650D01*
X10863039Y-13950650D02*
X10882087Y-13922079D01*
X10882087Y-13922079D02*
X10891611Y-13903031D01*
X10891611Y-13903031D02*
X10901135Y-13874460D01*
X10901135Y-13874460D02*
X10910658Y-13826841D01*
X10910658Y-13826841D02*
X10910658Y-13788746D01*
X10910658Y-13788746D02*
X10901135Y-13741127D01*
X10901135Y-13741127D02*
X10891611Y-13712555D01*
X10891611Y-13712555D02*
X10882087Y-13693508D01*
X10882087Y-13693508D02*
X10863039Y-13664936D01*
X10863039Y-13664936D02*
X10853516Y-13655412D01*
D13*
X4097500Y-14062500D02*
G75*
G02*
X3917500Y-14062500I-90000J0D01*
G01*
X3917500Y-14062500D02*
G75*
G02*
X4097500Y-14062500I90000J0D01*
G01*
D11*
X4463039Y-14153984D02*
X4348753Y-14153984D01*
X4405896Y-14153984D02*
X4405896Y-13953984D01*
X4405896Y-13953984D02*
X4386848Y-13982555D01*
X4386848Y-13982555D02*
X4367801Y-14001603D01*
X4367801Y-14001603D02*
X4348753Y-14011127D01*
X4548753Y-14134936D02*
X4558277Y-14144460D01*
X4558277Y-14144460D02*
X4548753Y-14153984D01*
X4548753Y-14153984D02*
X4539229Y-14144460D01*
X4539229Y-14144460D02*
X4548753Y-14134936D01*
X4548753Y-14134936D02*
X4548753Y-14153984D01*
X4672563Y-14039698D02*
X4653515Y-14030174D01*
X4653515Y-14030174D02*
X4643991Y-14020650D01*
X4643991Y-14020650D02*
X4634467Y-14001603D01*
X4634467Y-14001603D02*
X4634467Y-13992079D01*
X4634467Y-13992079D02*
X4643991Y-13973031D01*
X4643991Y-13973031D02*
X4653515Y-13963508D01*
X4653515Y-13963508D02*
X4672563Y-13953984D01*
X4672563Y-13953984D02*
X4710658Y-13953984D01*
X4710658Y-13953984D02*
X4729705Y-13963508D01*
X4729705Y-13963508D02*
X4739229Y-13973031D01*
X4739229Y-13973031D02*
X4748753Y-13992079D01*
X4748753Y-13992079D02*
X4748753Y-14001603D01*
X4748753Y-14001603D02*
X4739229Y-14020650D01*
X4739229Y-14020650D02*
X4729705Y-14030174D01*
X4729705Y-14030174D02*
X4710658Y-14039698D01*
X4710658Y-14039698D02*
X4672563Y-14039698D01*
X4672563Y-14039698D02*
X4653515Y-14049222D01*
X4653515Y-14049222D02*
X4643991Y-14058746D01*
X4643991Y-14058746D02*
X4634467Y-14077793D01*
X4634467Y-14077793D02*
X4634467Y-14115888D01*
X4634467Y-14115888D02*
X4643991Y-14134936D01*
X4643991Y-14134936D02*
X4653515Y-14144460D01*
X4653515Y-14144460D02*
X4672563Y-14153984D01*
X4672563Y-14153984D02*
X4710658Y-14153984D01*
X4710658Y-14153984D02*
X4729705Y-14144460D01*
X4729705Y-14144460D02*
X4739229Y-14134936D01*
X4739229Y-14134936D02*
X4748753Y-14115888D01*
X4748753Y-14115888D02*
X4748753Y-14077793D01*
X4748753Y-14077793D02*
X4739229Y-14058746D01*
X4739229Y-14058746D02*
X4729705Y-14049222D01*
X4729705Y-14049222D02*
X4710658Y-14039698D01*
X4872563Y-13953984D02*
X4891610Y-13953984D01*
X4891610Y-13953984D02*
X4910658Y-13963508D01*
X4910658Y-13963508D02*
X4920182Y-13973031D01*
X4920182Y-13973031D02*
X4929705Y-13992079D01*
X4929705Y-13992079D02*
X4939229Y-14030174D01*
X4939229Y-14030174D02*
X4939229Y-14077793D01*
X4939229Y-14077793D02*
X4929705Y-14115888D01*
X4929705Y-14115888D02*
X4920182Y-14134936D01*
X4920182Y-14134936D02*
X4910658Y-14144460D01*
X4910658Y-14144460D02*
X4891610Y-14153984D01*
X4891610Y-14153984D02*
X4872563Y-14153984D01*
X4872563Y-14153984D02*
X4853515Y-14144460D01*
X4853515Y-14144460D02*
X4843991Y-14134936D01*
X4843991Y-14134936D02*
X4834467Y-14115888D01*
X4834467Y-14115888D02*
X4824944Y-14077793D01*
X4824944Y-14077793D02*
X4824944Y-14030174D01*
X4824944Y-14030174D02*
X4834467Y-13992079D01*
X4834467Y-13992079D02*
X4843991Y-13973031D01*
X4843991Y-13973031D02*
X4853515Y-13963508D01*
X4853515Y-13963508D02*
X4872563Y-13953984D01*
X5063039Y-13953984D02*
X5082086Y-13953984D01*
X5082086Y-13953984D02*
X5101134Y-13963508D01*
X5101134Y-13963508D02*
X5110658Y-13973031D01*
X5110658Y-13973031D02*
X5120182Y-13992079D01*
X5120182Y-13992079D02*
X5129705Y-14030174D01*
X5129705Y-14030174D02*
X5129705Y-14077793D01*
X5129705Y-14077793D02*
X5120182Y-14115888D01*
X5120182Y-14115888D02*
X5110658Y-14134936D01*
X5110658Y-14134936D02*
X5101134Y-14144460D01*
X5101134Y-14144460D02*
X5082086Y-14153984D01*
X5082086Y-14153984D02*
X5063039Y-14153984D01*
X5063039Y-14153984D02*
X5043991Y-14144460D01*
X5043991Y-14144460D02*
X5034467Y-14134936D01*
X5034467Y-14134936D02*
X5024944Y-14115888D01*
X5024944Y-14115888D02*
X5015420Y-14077793D01*
X5015420Y-14077793D02*
X5015420Y-14030174D01*
X5015420Y-14030174D02*
X5024944Y-13992079D01*
X5024944Y-13992079D02*
X5034467Y-13973031D01*
X5034467Y-13973031D02*
X5043991Y-13963508D01*
X5043991Y-13963508D02*
X5063039Y-13953984D01*
X5215420Y-14153984D02*
X5215420Y-14020650D01*
X5215420Y-14039698D02*
X5224944Y-14030174D01*
X5224944Y-14030174D02*
X5243991Y-14020650D01*
X5243991Y-14020650D02*
X5272563Y-14020650D01*
X5272563Y-14020650D02*
X5291610Y-14030174D01*
X5291610Y-14030174D02*
X5301134Y-14049222D01*
X5301134Y-14049222D02*
X5301134Y-14153984D01*
X5301134Y-14049222D02*
X5310658Y-14030174D01*
X5310658Y-14030174D02*
X5329705Y-14020650D01*
X5329705Y-14020650D02*
X5358277Y-14020650D01*
X5358277Y-14020650D02*
X5377325Y-14030174D01*
X5377325Y-14030174D02*
X5386848Y-14049222D01*
X5386848Y-14049222D02*
X5386848Y-14153984D01*
X5482086Y-14153984D02*
X5482086Y-14020650D01*
X5482086Y-14039698D02*
X5491610Y-14030174D01*
X5491610Y-14030174D02*
X5510658Y-14020650D01*
X5510658Y-14020650D02*
X5539229Y-14020650D01*
X5539229Y-14020650D02*
X5558277Y-14030174D01*
X5558277Y-14030174D02*
X5567801Y-14049222D01*
X5567801Y-14049222D02*
X5567801Y-14153984D01*
X5567801Y-14049222D02*
X5577325Y-14030174D01*
X5577325Y-14030174D02*
X5596372Y-14020650D01*
X5596372Y-14020650D02*
X5624943Y-14020650D01*
X5624943Y-14020650D02*
X5643991Y-14030174D01*
X5643991Y-14030174D02*
X5653515Y-14049222D01*
X5653515Y-14049222D02*
X5653515Y-14153984D01*
X6043991Y-13944460D02*
X5872563Y-14201603D01*
X6301134Y-13953984D02*
X6320182Y-13953984D01*
X6320182Y-13953984D02*
X6339229Y-13963508D01*
X6339229Y-13963508D02*
X6348753Y-13973031D01*
X6348753Y-13973031D02*
X6358277Y-13992079D01*
X6358277Y-13992079D02*
X6367801Y-14030174D01*
X6367801Y-14030174D02*
X6367801Y-14077793D01*
X6367801Y-14077793D02*
X6358277Y-14115888D01*
X6358277Y-14115888D02*
X6348753Y-14134936D01*
X6348753Y-14134936D02*
X6339229Y-14144460D01*
X6339229Y-14144460D02*
X6320182Y-14153984D01*
X6320182Y-14153984D02*
X6301134Y-14153984D01*
X6301134Y-14153984D02*
X6282086Y-14144460D01*
X6282086Y-14144460D02*
X6272563Y-14134936D01*
X6272563Y-14134936D02*
X6263039Y-14115888D01*
X6263039Y-14115888D02*
X6253515Y-14077793D01*
X6253515Y-14077793D02*
X6253515Y-14030174D01*
X6253515Y-14030174D02*
X6263039Y-13992079D01*
X6263039Y-13992079D02*
X6272563Y-13973031D01*
X6272563Y-13973031D02*
X6282086Y-13963508D01*
X6282086Y-13963508D02*
X6301134Y-13953984D01*
X6453515Y-14134936D02*
X6463039Y-14144460D01*
X6463039Y-14144460D02*
X6453515Y-14153984D01*
X6453515Y-14153984D02*
X6443991Y-14144460D01*
X6443991Y-14144460D02*
X6453515Y-14134936D01*
X6453515Y-14134936D02*
X6453515Y-14153984D01*
X6586848Y-13953984D02*
X6605896Y-13953984D01*
X6605896Y-13953984D02*
X6624944Y-13963508D01*
X6624944Y-13963508D02*
X6634467Y-13973031D01*
X6634467Y-13973031D02*
X6643991Y-13992079D01*
X6643991Y-13992079D02*
X6653515Y-14030174D01*
X6653515Y-14030174D02*
X6653515Y-14077793D01*
X6653515Y-14077793D02*
X6643991Y-14115888D01*
X6643991Y-14115888D02*
X6634467Y-14134936D01*
X6634467Y-14134936D02*
X6624944Y-14144460D01*
X6624944Y-14144460D02*
X6605896Y-14153984D01*
X6605896Y-14153984D02*
X6586848Y-14153984D01*
X6586848Y-14153984D02*
X6567801Y-14144460D01*
X6567801Y-14144460D02*
X6558277Y-14134936D01*
X6558277Y-14134936D02*
X6548753Y-14115888D01*
X6548753Y-14115888D02*
X6539229Y-14077793D01*
X6539229Y-14077793D02*
X6539229Y-14030174D01*
X6539229Y-14030174D02*
X6548753Y-13992079D01*
X6548753Y-13992079D02*
X6558277Y-13973031D01*
X6558277Y-13973031D02*
X6567801Y-13963508D01*
X6567801Y-13963508D02*
X6586848Y-13953984D01*
X6720182Y-13953984D02*
X6853515Y-13953984D01*
X6853515Y-13953984D02*
X6767801Y-14153984D01*
X6967801Y-13953984D02*
X6986848Y-13953984D01*
X6986848Y-13953984D02*
X7005896Y-13963508D01*
X7005896Y-13963508D02*
X7015420Y-13973031D01*
X7015420Y-13973031D02*
X7024944Y-13992079D01*
X7024944Y-13992079D02*
X7034467Y-14030174D01*
X7034467Y-14030174D02*
X7034467Y-14077793D01*
X7034467Y-14077793D02*
X7024944Y-14115888D01*
X7024944Y-14115888D02*
X7015420Y-14134936D01*
X7015420Y-14134936D02*
X7005896Y-14144460D01*
X7005896Y-14144460D02*
X6986848Y-14153984D01*
X6986848Y-14153984D02*
X6967801Y-14153984D01*
X6967801Y-14153984D02*
X6948753Y-14144460D01*
X6948753Y-14144460D02*
X6939229Y-14134936D01*
X6939229Y-14134936D02*
X6929706Y-14115888D01*
X6929706Y-14115888D02*
X6920182Y-14077793D01*
X6920182Y-14077793D02*
X6920182Y-14030174D01*
X6920182Y-14030174D02*
X6929706Y-13992079D01*
X6929706Y-13992079D02*
X6939229Y-13973031D01*
X6939229Y-13973031D02*
X6948753Y-13963508D01*
X6948753Y-13963508D02*
X6967801Y-13953984D01*
X7129706Y-14153984D02*
X7167801Y-14153984D01*
X7167801Y-14153984D02*
X7186848Y-14144460D01*
X7186848Y-14144460D02*
X7196372Y-14134936D01*
X7196372Y-14134936D02*
X7215420Y-14106365D01*
X7215420Y-14106365D02*
X7224944Y-14068269D01*
X7224944Y-14068269D02*
X7224944Y-13992079D01*
X7224944Y-13992079D02*
X7215420Y-13973031D01*
X7215420Y-13973031D02*
X7205896Y-13963508D01*
X7205896Y-13963508D02*
X7186848Y-13953984D01*
X7186848Y-13953984D02*
X7148753Y-13953984D01*
X7148753Y-13953984D02*
X7129706Y-13963508D01*
X7129706Y-13963508D02*
X7120182Y-13973031D01*
X7120182Y-13973031D02*
X7110658Y-13992079D01*
X7110658Y-13992079D02*
X7110658Y-14039698D01*
X7110658Y-14039698D02*
X7120182Y-14058746D01*
X7120182Y-14058746D02*
X7129706Y-14068269D01*
X7129706Y-14068269D02*
X7148753Y-14077793D01*
X7148753Y-14077793D02*
X7186848Y-14077793D01*
X7186848Y-14077793D02*
X7205896Y-14068269D01*
X7205896Y-14068269D02*
X7215420Y-14058746D01*
X7215420Y-14058746D02*
X7224944Y-14039698D01*
X7301134Y-13953984D02*
X7301134Y-13992079D01*
X7377325Y-13953984D02*
X7377325Y-13992079D01*
X7672563Y-14230174D02*
X7663039Y-14220650D01*
X7663039Y-14220650D02*
X7643991Y-14192079D01*
X7643991Y-14192079D02*
X7634468Y-14173031D01*
X7634468Y-14173031D02*
X7624944Y-14144460D01*
X7624944Y-14144460D02*
X7615420Y-14096841D01*
X7615420Y-14096841D02*
X7615420Y-14058746D01*
X7615420Y-14058746D02*
X7624944Y-14011127D01*
X7624944Y-14011127D02*
X7634468Y-13982555D01*
X7634468Y-13982555D02*
X7643991Y-13963508D01*
X7643991Y-13963508D02*
X7663039Y-13934936D01*
X7663039Y-13934936D02*
X7672563Y-13925412D01*
X7739229Y-13973031D02*
X7748753Y-13963508D01*
X7748753Y-13963508D02*
X7767801Y-13953984D01*
X7767801Y-13953984D02*
X7815420Y-13953984D01*
X7815420Y-13953984D02*
X7834468Y-13963508D01*
X7834468Y-13963508D02*
X7843991Y-13973031D01*
X7843991Y-13973031D02*
X7853515Y-13992079D01*
X7853515Y-13992079D02*
X7853515Y-14011127D01*
X7853515Y-14011127D02*
X7843991Y-14039698D01*
X7843991Y-14039698D02*
X7729706Y-14153984D01*
X7729706Y-14153984D02*
X7853515Y-14153984D01*
X8091610Y-14153984D02*
X8091610Y-13953984D01*
X8177325Y-14153984D02*
X8177325Y-14049222D01*
X8177325Y-14049222D02*
X8167801Y-14030174D01*
X8167801Y-14030174D02*
X8148753Y-14020650D01*
X8148753Y-14020650D02*
X8120182Y-14020650D01*
X8120182Y-14020650D02*
X8101134Y-14030174D01*
X8101134Y-14030174D02*
X8091610Y-14039698D01*
X8301134Y-14153984D02*
X8282087Y-14144460D01*
X8282087Y-14144460D02*
X8272563Y-14134936D01*
X8272563Y-14134936D02*
X8263039Y-14115888D01*
X8263039Y-14115888D02*
X8263039Y-14058746D01*
X8263039Y-14058746D02*
X8272563Y-14039698D01*
X8272563Y-14039698D02*
X8282087Y-14030174D01*
X8282087Y-14030174D02*
X8301134Y-14020650D01*
X8301134Y-14020650D02*
X8329706Y-14020650D01*
X8329706Y-14020650D02*
X8348753Y-14030174D01*
X8348753Y-14030174D02*
X8358277Y-14039698D01*
X8358277Y-14039698D02*
X8367801Y-14058746D01*
X8367801Y-14058746D02*
X8367801Y-14115888D01*
X8367801Y-14115888D02*
X8358277Y-14134936D01*
X8358277Y-14134936D02*
X8348753Y-14144460D01*
X8348753Y-14144460D02*
X8329706Y-14153984D01*
X8329706Y-14153984D02*
X8301134Y-14153984D01*
X8482087Y-14153984D02*
X8463039Y-14144460D01*
X8463039Y-14144460D02*
X8453515Y-14125412D01*
X8453515Y-14125412D02*
X8453515Y-13953984D01*
X8634468Y-14144460D02*
X8615420Y-14153984D01*
X8615420Y-14153984D02*
X8577325Y-14153984D01*
X8577325Y-14153984D02*
X8558277Y-14144460D01*
X8558277Y-14144460D02*
X8548753Y-14125412D01*
X8548753Y-14125412D02*
X8548753Y-14049222D01*
X8548753Y-14049222D02*
X8558277Y-14030174D01*
X8558277Y-14030174D02*
X8577325Y-14020650D01*
X8577325Y-14020650D02*
X8615420Y-14020650D01*
X8615420Y-14020650D02*
X8634468Y-14030174D01*
X8634468Y-14030174D02*
X8643992Y-14049222D01*
X8643992Y-14049222D02*
X8643992Y-14068269D01*
X8643992Y-14068269D02*
X8548753Y-14087317D01*
X8720182Y-14144460D02*
X8739230Y-14153984D01*
X8739230Y-14153984D02*
X8777325Y-14153984D01*
X8777325Y-14153984D02*
X8796373Y-14144460D01*
X8796373Y-14144460D02*
X8805896Y-14125412D01*
X8805896Y-14125412D02*
X8805896Y-14115888D01*
X8805896Y-14115888D02*
X8796373Y-14096841D01*
X8796373Y-14096841D02*
X8777325Y-14087317D01*
X8777325Y-14087317D02*
X8748753Y-14087317D01*
X8748753Y-14087317D02*
X8729706Y-14077793D01*
X8729706Y-14077793D02*
X8720182Y-14058746D01*
X8720182Y-14058746D02*
X8720182Y-14049222D01*
X8720182Y-14049222D02*
X8729706Y-14030174D01*
X8729706Y-14030174D02*
X8748753Y-14020650D01*
X8748753Y-14020650D02*
X8777325Y-14020650D01*
X8777325Y-14020650D02*
X8796373Y-14030174D01*
X8872563Y-14230174D02*
X8882087Y-14220650D01*
X8882087Y-14220650D02*
X8901134Y-14192079D01*
X8901134Y-14192079D02*
X8910658Y-14173031D01*
X8910658Y-14173031D02*
X8920182Y-14144460D01*
X8920182Y-14144460D02*
X8929706Y-14096841D01*
X8929706Y-14096841D02*
X8929706Y-14058746D01*
X8929706Y-14058746D02*
X8920182Y-14011127D01*
X8920182Y-14011127D02*
X8910658Y-13982555D01*
X8910658Y-13982555D02*
X8901134Y-13963508D01*
X8901134Y-13963508D02*
X8882087Y-13934936D01*
X8882087Y-13934936D02*
X8872563Y-13925412D01*
X9234468Y-14230174D02*
X9224944Y-14220650D01*
X9224944Y-14220650D02*
X9205896Y-14192079D01*
X9205896Y-14192079D02*
X9196373Y-14173031D01*
X9196373Y-14173031D02*
X9186849Y-14144460D01*
X9186849Y-14144460D02*
X9177325Y-14096841D01*
X9177325Y-14096841D02*
X9177325Y-14058746D01*
X9177325Y-14058746D02*
X9186849Y-14011127D01*
X9186849Y-14011127D02*
X9196373Y-13982555D01*
X9196373Y-13982555D02*
X9205896Y-13963508D01*
X9205896Y-13963508D02*
X9224944Y-13934936D01*
X9224944Y-13934936D02*
X9234468Y-13925412D01*
X9310658Y-14020650D02*
X9310658Y-14153984D01*
X9310658Y-14039698D02*
X9320182Y-14030174D01*
X9320182Y-14030174D02*
X9339230Y-14020650D01*
X9339230Y-14020650D02*
X9367801Y-14020650D01*
X9367801Y-14020650D02*
X9386849Y-14030174D01*
X9386849Y-14030174D02*
X9396373Y-14049222D01*
X9396373Y-14049222D02*
X9396373Y-14153984D01*
X9520182Y-14153984D02*
X9501134Y-14144460D01*
X9501134Y-14144460D02*
X9491611Y-14134936D01*
X9491611Y-14134936D02*
X9482087Y-14115888D01*
X9482087Y-14115888D02*
X9482087Y-14058746D01*
X9482087Y-14058746D02*
X9491611Y-14039698D01*
X9491611Y-14039698D02*
X9501134Y-14030174D01*
X9501134Y-14030174D02*
X9520182Y-14020650D01*
X9520182Y-14020650D02*
X9548754Y-14020650D01*
X9548754Y-14020650D02*
X9567801Y-14030174D01*
X9567801Y-14030174D02*
X9577325Y-14039698D01*
X9577325Y-14039698D02*
X9586849Y-14058746D01*
X9586849Y-14058746D02*
X9586849Y-14115888D01*
X9586849Y-14115888D02*
X9577325Y-14134936D01*
X9577325Y-14134936D02*
X9567801Y-14144460D01*
X9567801Y-14144460D02*
X9548754Y-14153984D01*
X9548754Y-14153984D02*
X9520182Y-14153984D01*
X9643992Y-14020650D02*
X9720182Y-14020650D01*
X9672563Y-13953984D02*
X9672563Y-14125412D01*
X9672563Y-14125412D02*
X9682087Y-14144460D01*
X9682087Y-14144460D02*
X9701134Y-14153984D01*
X9701134Y-14153984D02*
X9720182Y-14153984D01*
X9939230Y-14020650D02*
X9939230Y-14220650D01*
X9939230Y-14030174D02*
X9958277Y-14020650D01*
X9958277Y-14020650D02*
X9996373Y-14020650D01*
X9996373Y-14020650D02*
X10015420Y-14030174D01*
X10015420Y-14030174D02*
X10024944Y-14039698D01*
X10024944Y-14039698D02*
X10034468Y-14058746D01*
X10034468Y-14058746D02*
X10034468Y-14115888D01*
X10034468Y-14115888D02*
X10024944Y-14134936D01*
X10024944Y-14134936D02*
X10015420Y-14144460D01*
X10015420Y-14144460D02*
X9996373Y-14153984D01*
X9996373Y-14153984D02*
X9958277Y-14153984D01*
X9958277Y-14153984D02*
X9939230Y-14144460D01*
X10148754Y-14153984D02*
X10129706Y-14144460D01*
X10129706Y-14144460D02*
X10120182Y-14125412D01*
X10120182Y-14125412D02*
X10120182Y-13953984D01*
X10310658Y-14153984D02*
X10310658Y-14049222D01*
X10310658Y-14049222D02*
X10301135Y-14030174D01*
X10301135Y-14030174D02*
X10282087Y-14020650D01*
X10282087Y-14020650D02*
X10243992Y-14020650D01*
X10243992Y-14020650D02*
X10224944Y-14030174D01*
X10310658Y-14144460D02*
X10291611Y-14153984D01*
X10291611Y-14153984D02*
X10243992Y-14153984D01*
X10243992Y-14153984D02*
X10224944Y-14144460D01*
X10224944Y-14144460D02*
X10215420Y-14125412D01*
X10215420Y-14125412D02*
X10215420Y-14106365D01*
X10215420Y-14106365D02*
X10224944Y-14087317D01*
X10224944Y-14087317D02*
X10243992Y-14077793D01*
X10243992Y-14077793D02*
X10291611Y-14077793D01*
X10291611Y-14077793D02*
X10310658Y-14068269D01*
X10377325Y-14020650D02*
X10453515Y-14020650D01*
X10405896Y-13953984D02*
X10405896Y-14125412D01*
X10405896Y-14125412D02*
X10415420Y-14144460D01*
X10415420Y-14144460D02*
X10434468Y-14153984D01*
X10434468Y-14153984D02*
X10453515Y-14153984D01*
X10596373Y-14144460D02*
X10577325Y-14153984D01*
X10577325Y-14153984D02*
X10539230Y-14153984D01*
X10539230Y-14153984D02*
X10520182Y-14144460D01*
X10520182Y-14144460D02*
X10510658Y-14125412D01*
X10510658Y-14125412D02*
X10510658Y-14049222D01*
X10510658Y-14049222D02*
X10520182Y-14030174D01*
X10520182Y-14030174D02*
X10539230Y-14020650D01*
X10539230Y-14020650D02*
X10577325Y-14020650D01*
X10577325Y-14020650D02*
X10596373Y-14030174D01*
X10596373Y-14030174D02*
X10605896Y-14049222D01*
X10605896Y-14049222D02*
X10605896Y-14068269D01*
X10605896Y-14068269D02*
X10510658Y-14087317D01*
X10777325Y-14153984D02*
X10777325Y-13953984D01*
X10777325Y-14144460D02*
X10758277Y-14153984D01*
X10758277Y-14153984D02*
X10720182Y-14153984D01*
X10720182Y-14153984D02*
X10701135Y-14144460D01*
X10701135Y-14144460D02*
X10691611Y-14134936D01*
X10691611Y-14134936D02*
X10682087Y-14115888D01*
X10682087Y-14115888D02*
X10682087Y-14058746D01*
X10682087Y-14058746D02*
X10691611Y-14039698D01*
X10691611Y-14039698D02*
X10701135Y-14030174D01*
X10701135Y-14030174D02*
X10720182Y-14020650D01*
X10720182Y-14020650D02*
X10758277Y-14020650D01*
X10758277Y-14020650D02*
X10777325Y-14030174D01*
X10853516Y-14230174D02*
X10863039Y-14220650D01*
X10863039Y-14220650D02*
X10882087Y-14192079D01*
X10882087Y-14192079D02*
X10891611Y-14173031D01*
X10891611Y-14173031D02*
X10901135Y-14144460D01*
X10901135Y-14144460D02*
X10910658Y-14096841D01*
X10910658Y-14096841D02*
X10910658Y-14058746D01*
X10910658Y-14058746D02*
X10901135Y-14011127D01*
X10901135Y-14011127D02*
X10891611Y-13982555D01*
X10891611Y-13982555D02*
X10882087Y-13963508D01*
X10882087Y-13963508D02*
X10863039Y-13934936D01*
X10863039Y-13934936D02*
X10853516Y-13925412D01*
M02*
