M48
; DRILL file {KiCad 8.0.4} date 2024-08-21T22:32:30+0200
; FORMAT={-:-/ absolute / metric / decimal}
; #@! TF.CreationDate,2024-08-21T22:32:30+02:00
; #@! TF.GenerationSoftware,Kicad,Pcbnew,8.0.4
; #@! TF.FileFunction,Plated,1,2,PTH
FMAT,2
METRIC
; #@! TA.AperFunction,Plated,PTH,ViaDrill
T1C0.300
; #@! TA.AperFunction,Plated,PTH,ComponentDrill
T2C0.750
; #@! TA.AperFunction,Plated,PTH,ComponentDrill
T3C0.800
; #@! TA.AperFunction,Plated,PTH,ComponentDrill
T4C0.900
; #@! TA.AperFunction,Plated,PTH,ComponentDrill
T5C1.000
; #@! TA.AperFunction,Plated,PTH,ComponentDrill
T6C1.100
; #@! TA.AperFunction,Plated,PTH,ComponentDrill
T7C1.800
%
G90
G05
T1
X87.5Y-47.5
X93.5Y-69.0
T2
X52.0Y-38.5
X53.27Y-38.5
X54.54Y-38.5
T3
X71.92Y-38.5
X82.08Y-38.5
X85.46Y-106.0
X88.0Y-106.0
X90.54Y-106.0
T4
X62.725Y-38.5
X65.265Y-38.5
T5
X50.5Y-76.55
X53.0Y-76.55
X55.5Y-76.55
X66.5Y-76.55
X69.0Y-76.55
X71.5Y-76.55
X83.0Y-76.55
X85.5Y-76.55
X88.0Y-76.55
T6
X47.25Y-86.25
X47.25Y-90.75
X47.25Y-96.8
X47.25Y-101.3
X47.25Y-106.75
X47.25Y-111.25
X47.25Y-122.25
X47.25Y-126.75
X53.75Y-86.25
X53.75Y-90.75
X53.75Y-96.8
X53.75Y-101.3
X53.75Y-106.75
X53.75Y-111.25
X53.75Y-122.25
X53.75Y-126.75
X59.4Y-86.25
X59.4Y-90.75
X59.4Y-96.8
X59.4Y-101.3
X59.4Y-106.75
X59.4Y-111.25
X59.4Y-122.25
X59.4Y-126.75
X65.9Y-86.25
X65.9Y-90.75
X65.9Y-96.8
X65.9Y-101.3
X65.9Y-106.75
X65.9Y-111.25
X65.9Y-122.25
X65.9Y-126.75
X71.4Y-86.25
X71.4Y-90.75
X71.4Y-96.8
X71.4Y-101.3
X71.4Y-106.75
X71.4Y-111.25
X71.4Y-122.25
X71.4Y-126.75
X77.9Y-86.25
X77.9Y-90.75
X77.9Y-96.8
X77.9Y-101.3
X77.9Y-106.75
X77.9Y-111.25
X77.9Y-122.25
X77.9Y-126.75
X84.9Y-86.25
X84.9Y-90.75
X84.9Y-96.4
X84.9Y-100.9
X84.9Y-112.25
X84.9Y-116.75
X84.9Y-122.25
X84.9Y-126.75
X91.4Y-86.25
X91.4Y-90.75
X91.4Y-96.4
X91.4Y-100.9
X91.4Y-112.25
X91.4Y-116.75
X91.4Y-122.25
X91.4Y-126.75
T7
X48.6Y-69.7G85X48.6Y-69.4
G05
X57.4Y-69.7G85X57.4Y-69.4
G05
X64.6Y-69.7G85X64.6Y-69.4
G05
X73.4Y-69.7G85X73.4Y-69.4
G05
X81.1Y-69.7G85X81.1Y-69.4
G05
X89.9Y-69.7G85X89.9Y-69.4
G05
M30
